<svg xmlns="http://www.w3.org/2000/svg" xmlns:xlink="http://www.w3.org/1999/xlink" width="500" zoomAndPan="magnify" viewBox="0 0 375 374.999991" height="500" preserveAspectRatio="xMidYMid meet" version="1.0"><defs><g/><clipPath id="b567c02e0e"><path d="M 37.5 37.5 L 337.5 37.5 L 337.5 337.5 L 37.5 337.5 Z M 37.5 37.5 " clip-rule="nonzero"/></clipPath><clipPath id="8d98fb71a1"><path d="M 187.5 37.5 C 104.65625 37.5 37.5 104.65625 37.5 187.5 C 37.5 270.34375 104.65625 337.5 187.5 337.5 C 270.34375 337.5 337.5 270.34375 337.5 187.5 C 337.5 104.65625 270.34375 37.5 187.5 37.5 Z M 187.5 37.5 " clip-rule="nonzero"/></clipPath><clipPath id="8d48ed1fc0"><path d="M 83.878906 83.878906 L 291.121094 83.878906 L 291.121094 291.121094 L 83.878906 291.121094 Z M 83.878906 83.878906 " clip-rule="nonzero"/></clipPath><clipPath id="0aa60f3765"><path d="M 187.5 83.878906 C 130.273438 83.878906 83.878906 130.273438 83.878906 187.5 C 83.878906 244.726562 130.273438 291.121094 187.5 291.121094 C 244.726562 291.121094 291.121094 244.726562 291.121094 187.5 C 291.121094 130.273438 244.726562 83.878906 187.5 83.878906 Z M 187.5 83.878906 " clip-rule="nonzero"/></clipPath><clipPath id="272b87c560"><path d="M 83.878906 83.878906 L 290.878906 83.878906 L 290.878906 290.878906 L 83.878906 290.878906 Z M 83.878906 83.878906 " clip-rule="nonzero"/></clipPath><clipPath id="c902f34a67"><path d="M 187.496094 83.878906 C 130.269531 83.878906 83.878906 130.269531 83.878906 187.496094 C 83.878906 244.722656 130.269531 291.113281 187.496094 291.113281 C 244.722656 291.113281 291.113281 244.722656 291.113281 187.496094 C 291.113281 130.269531 244.722656 83.878906 187.496094 83.878906 Z M 187.496094 83.878906 " clip-rule="nonzero"/></clipPath><clipPath id="af517fd5fd"><path d="M 106.09375 106.09375 L 268.90625 106.09375 L 268.90625 268.90625 L 106.09375 268.90625 Z M 106.09375 106.09375 " clip-rule="nonzero"/></clipPath><clipPath id="4625da8f4e"><path d="M 187.5 106.09375 C 142.542969 106.09375 106.09375 142.542969 106.09375 187.5 C 106.09375 232.457031 142.542969 268.90625 187.5 268.90625 C 232.457031 268.90625 268.90625 232.457031 268.90625 187.5 C 268.90625 142.542969 232.457031 106.09375 187.5 106.09375 Z M 187.5 106.09375 " clip-rule="nonzero"/></clipPath><clipPath id="a1d8dbc59a"><path d="M 87.328125 88.738281 L 284.570312 88.738281 L 284.570312 288.84375 L 87.328125 288.84375 Z M 87.328125 88.738281 " clip-rule="nonzero"/></clipPath><clipPath id="3cd6ac5507"><path d="M 118.230469 119.214844 L 258 119.214844 L 258 255.785156 L 118.230469 255.785156 Z M 118.230469 119.214844 " clip-rule="nonzero"/></clipPath><clipPath id="8c51afdf1f"><path d="M 188.074219 119.214844 C 149.5 119.214844 118.230469 149.789062 118.230469 187.5 C 118.230469 225.210938 149.5 255.785156 188.074219 255.785156 C 226.648438 255.785156 257.917969 225.210938 257.917969 187.5 C 257.917969 149.789062 226.648438 119.214844 188.074219 119.214844 Z M 188.074219 119.214844 " clip-rule="nonzero"/></clipPath><clipPath id="6d500fbe93"><path d="M 53 154 L 73 154 L 73 174.300781 L 53 174.300781 Z M 53 154 " clip-rule="nonzero"/></clipPath><clipPath id="de52afce4d"><path d="M 295.457031 144.300781 L 322.457031 144.300781 L 322.457031 174.300781 L 295.457031 174.300781 Z M 295.457031 144.300781 " clip-rule="nonzero"/></clipPath><clipPath id="2af3979c23"><path d="M 118.230469 116.742188 L 258.480469 116.742188 L 258.480469 256.992188 L 118.230469 256.992188 Z M 118.230469 116.742188 " clip-rule="nonzero"/></clipPath><clipPath id="45f217fb75"><path d="M 143 116.742188 L 233 116.742188 L 233 256.992188 L 143 256.992188 Z M 143 116.742188 " clip-rule="nonzero"/></clipPath><clipPath id="4508caef58"><path d="M 118.230469 142 L 258.480469 142 L 258.480469 232 L 118.230469 232 Z M 118.230469 142 " clip-rule="nonzero"/></clipPath></defs><g clip-path="url(#b567c02e0e)"><g clip-path="url(#8d98fb71a1)"><path fill="#015551" d="M 37.5 37.5 L 337.5 37.5 L 337.5 337.5 L 37.5 337.5 Z M 37.5 37.5 " fill-opacity="1" fill-rule="nonzero"/><path stroke-linecap="butt" transform="matrix(0.75, 0, 0, 0.75, 37.500002, 37.499998)" fill="none" stroke-linejoin="miter" d="M 200.00001 0.00000328333 C 89.54167 0.00000328333 -0.00000271667 89.541676 -0.00000271667 200.000016 C -0.00000271667 310.458357 89.54167 400.00003 200.00001 400.00003 C 310.458351 400.00003 400.000024 310.458357 400.000024 200.000016 C 400.000024 89.541676 310.458351 0.00000328333 200.00001 0.00000328333 Z M 200.00001 0.00000328333 " stroke="#e07a5f" stroke-width="16" stroke-opacity="1" stroke-miterlimit="4"/></g></g><path fill="#fdfbee" d="M 97.144531 73.640625 C 98.742188 72.371094 100.363281 71.132812 102.011719 69.933594 C 103.660156 68.730469 105.332031 67.5625 107.03125 66.433594 C 108.730469 65.300781 110.449219 64.207031 112.195312 63.148438 C 113.9375 62.089844 115.703125 61.070312 117.492188 60.085938 C 119.277344 59.101562 121.085938 58.15625 122.914062 57.246094 C 124.738281 56.339844 126.585938 55.46875 128.449219 54.640625 C 130.3125 53.808594 132.191406 53.019531 134.089844 52.269531 C 135.984375 51.519531 137.898438 50.808594 139.824219 50.136719 C 141.75 49.46875 143.691406 48.839844 145.644531 48.25 C 147.597656 47.660156 149.5625 47.113281 151.539062 46.609375 C 153.515625 46.105469 155.503906 45.640625 157.5 45.21875 C 159.496094 44.796875 161.5 44.417969 163.511719 44.082031 C 165.523438 43.742188 167.542969 43.449219 169.566406 43.195312 C 171.589844 42.945312 173.621094 42.734375 175.652344 42.570312 C 177.6875 42.402344 179.722656 42.277344 181.761719 42.199219 C 183.800781 42.117188 185.839844 42.082031 187.878906 42.085938 C 189.917969 42.089844 191.957031 42.140625 193.996094 42.230469 C 196.035156 42.320312 198.070312 42.457031 200.101562 42.632812 C 202.132812 42.8125 204.164062 43.03125 206.183594 43.292969 C 208.207031 43.554688 210.226562 43.863281 212.234375 44.210938 C 214.246094 44.558594 216.246094 44.945312 218.242188 45.378906 C 220.234375 45.8125 222.21875 46.285156 224.191406 46.800781 C 226.167969 47.316406 228.128906 47.875 230.078125 48.472656 C 232.03125 49.070312 233.964844 49.710938 235.890625 50.390625 C 237.8125 51.070312 239.722656 51.792969 241.613281 52.554688 C 243.507812 53.3125 245.382812 54.113281 247.242188 54.953125 C 249.101562 55.792969 250.941406 56.671875 252.765625 57.589844 C 254.585938 58.507812 256.390625 59.460938 258.171875 60.457031 C 259.953125 61.449219 261.714844 62.480469 263.453125 63.546875 C 265.191406 64.617188 266.90625 65.71875 268.597656 66.859375 C 270.289062 68 271.957031 69.175781 273.597656 70.386719 C 275.242188 71.597656 276.855469 72.839844 278.445312 74.117188 L 249.550781 110.054688 C 247.378906 108.308594 245.136719 106.65625 242.828125 105.101562 C 240.519531 103.542969 238.148438 102.085938 235.714844 100.730469 C 233.28125 99.375 230.796875 98.125 228.257812 96.976562 C 225.722656 95.832031 223.140625 94.792969 220.515625 93.863281 C 217.886719 92.9375 215.226562 92.121094 212.535156 91.414062 C 209.839844 90.710938 207.121094 90.121094 204.375 89.648438 C 201.628906 89.171875 198.871094 88.8125 196.097656 88.570312 C 193.320312 88.328125 190.542969 88.203125 187.757812 88.199219 C 184.972656 88.191406 182.191406 88.300781 179.414062 88.527344 C 176.640625 88.753906 173.878906 89.097656 171.132812 89.558594 C 168.386719 90.019531 165.664062 90.59375 162.964844 91.285156 C 160.265625 91.972656 157.601562 92.777344 154.972656 93.691406 C 152.339844 94.605469 149.753906 95.628906 147.207031 96.761719 C 144.664062 97.894531 142.171875 99.132812 139.734375 100.476562 C 137.292969 101.820312 134.914062 103.265625 132.597656 104.808594 C 130.277344 106.351562 128.03125 107.992188 125.851562 109.726562 Z M 97.144531 73.640625 " fill-opacity="1" fill-rule="nonzero"/><g fill="#015551" fill-opacity="1"><g transform="translate(127.307929, 89.199969)"><g><path d="M 9.140625 -20.71875 C 9.765625 -19.46875 9.921875 -18.25 9.609375 -17.0625 C 9.304688 -15.875 8.441406 -14.738281 7.015625 -13.65625 L 15.203125 -10.3125 C 15.765625 -10.0625 16.34375 -9.945312 16.9375 -9.96875 C 17.539062 -10 18.097656 -10.140625 18.609375 -10.390625 L 19.0625 -9.5 L 13.75 -6.859375 L 4.78125 -10.90625 C 4.1875 -11.164062 3.710938 -11.300781 3.359375 -11.3125 C 3.003906 -11.332031 2.707031 -11.28125 2.46875 -11.15625 L 4.65625 -6.765625 C 4.9375 -6.210938 5.195312 -5.773438 5.4375 -5.453125 C 5.6875 -5.140625 5.972656 -4.945312 6.296875 -4.875 C 6.628906 -4.800781 7.019531 -4.832031 7.46875 -4.96875 C 7.925781 -5.113281 8.515625 -5.363281 9.234375 -5.71875 L 9.6875 -4.828125 L 0.78125 -0.390625 L 0.328125 -1.28125 C 0.828125 -1.53125 1.210938 -1.765625 1.484375 -1.984375 C 1.765625 -2.210938 1.941406 -2.460938 2.015625 -2.734375 C 2.097656 -3.003906 2.082031 -3.320312 1.96875 -3.6875 C 1.863281 -4.050781 1.679688 -4.492188 1.421875 -5.015625 L -3.75 -15.375 C -4.007812 -15.894531 -4.242188 -16.304688 -4.453125 -16.609375 C -4.660156 -16.910156 -4.878906 -17.117188 -5.109375 -17.234375 C -5.347656 -17.347656 -5.625 -17.367188 -5.9375 -17.296875 C -6.25 -17.222656 -6.644531 -17.085938 -7.125 -16.890625 L -7.578125 -17.78125 L 0.1875 -21.65625 C 2.351562 -22.726562 4.21875 -23.175781 5.78125 -23 C 7.34375 -22.820312 8.460938 -22.0625 9.140625 -20.71875 Z M 1.796875 -12.515625 L 3.265625 -13.25 C 4.660156 -13.945312 5.570312 -14.742188 6 -15.640625 C 6.425781 -16.535156 6.328125 -17.609375 5.703125 -18.859375 C 5.222656 -19.816406 4.539062 -20.441406 3.65625 -20.734375 C 2.78125 -21.023438 1.832031 -20.914062 0.8125 -20.40625 L -1.140625 -19.421875 C -1.410156 -19.285156 -1.484375 -19.09375 -1.359375 -18.84375 Z M 1.796875 -12.515625 "/></g></g></g><g fill="#015551" fill-opacity="1"><g transform="translate(144.697763, 80.675835)"><g><path d="M 12.109375 -6.4375 C 11.210938 -4.34375 9.6875 -2.9375 7.53125 -2.21875 C 6.550781 -1.894531 5.609375 -1.757812 4.703125 -1.8125 C 3.796875 -1.863281 2.960938 -2.070312 2.203125 -2.4375 C 1.453125 -2.800781 0.785156 -3.320312 0.203125 -4 C -0.367188 -4.675781 -0.8125 -5.488281 -1.125 -6.4375 C -1.445312 -7.414062 -1.578125 -8.367188 -1.515625 -9.296875 C -1.453125 -10.222656 -1.210938 -11.085938 -0.796875 -11.890625 C -0.378906 -12.691406 0.1875 -13.394531 0.90625 -14 C 1.632812 -14.601562 2.5 -15.066406 3.5 -15.390625 C 5.175781 -15.953125 6.632812 -15.9375 7.875 -15.34375 C 9.113281 -14.75 10.003906 -13.632812 10.546875 -12 C 10.628906 -11.738281 10.632812 -11.566406 10.5625 -11.484375 C 10.5 -11.410156 10.285156 -11.316406 9.921875 -11.203125 L 2.25 -8.65625 C 2.25 -8.5 2.3125 -8.226562 2.4375 -7.84375 C 2.945312 -6.289062 3.6875 -5.171875 4.65625 -4.484375 C 5.625 -3.804688 6.6875 -3.660156 7.84375 -4.046875 C 8.507812 -4.265625 9.125 -4.628906 9.6875 -5.140625 C 10.25 -5.660156 10.75 -6.300781 11.1875 -7.0625 Z M 5.4375 -11.1875 C 6.070312 -11.394531 6.46875 -11.566406 6.625 -11.703125 C 6.789062 -11.835938 6.828125 -12.039062 6.734375 -12.3125 C 6.503906 -13.007812 6.117188 -13.515625 5.578125 -13.828125 C 5.035156 -14.140625 4.460938 -14.191406 3.859375 -13.984375 C 3.179688 -13.765625 2.664062 -13.285156 2.3125 -12.546875 C 1.957031 -11.804688 1.847656 -10.972656 1.984375 -10.046875 Z M 5.4375 -11.1875 "/></g></g></g><g fill="#015551" fill-opacity="1"><g transform="translate(157.872782, 76.366659)"><g><path d="M 2.078125 -0.4375 L 1.328125 -0.28125 L 0.375 -4.75 L 1.40625 -4.96875 C 1.925781 -3.84375 2.503906 -3.066406 3.140625 -2.640625 C 3.785156 -2.210938 4.523438 -2.09375 5.359375 -2.28125 C 5.960938 -2.40625 6.40625 -2.628906 6.6875 -2.953125 C 6.96875 -3.273438 7.0625 -3.660156 6.96875 -4.109375 C 6.863281 -4.566406 6.5625 -4.96875 6.0625 -5.3125 C 5.5625 -5.65625 4.800781 -5.972656 3.78125 -6.265625 C 2.40625 -6.671875 1.375 -7.144531 0.6875 -7.6875 C 0.0078125 -8.226562 -0.421875 -8.914062 -0.609375 -9.75 C -0.722656 -10.289062 -0.726562 -10.816406 -0.625 -11.328125 C -0.519531 -11.847656 -0.328125 -12.316406 -0.046875 -12.734375 C 0.234375 -13.148438 0.59375 -13.503906 1.03125 -13.796875 C 1.476562 -14.085938 1.988281 -14.296875 2.5625 -14.421875 C 3.070312 -14.535156 3.59375 -14.566406 4.125 -14.515625 C 4.65625 -14.472656 5.140625 -14.363281 5.578125 -14.1875 L 5.890625 -14.875 L 6.53125 -15.015625 L 7.3125 -11.3125 L 6.359375 -11.109375 C 5.785156 -11.953125 5.25 -12.535156 4.75 -12.859375 C 4.257812 -13.179688 3.734375 -13.285156 3.171875 -13.171875 C 2.710938 -13.066406 2.375 -12.863281 2.15625 -12.5625 C 1.945312 -12.257812 1.882812 -11.90625 1.96875 -11.5 C 2.0625 -11.039062 2.351562 -10.648438 2.84375 -10.328125 C 3.332031 -10.003906 4.097656 -9.695312 5.140625 -9.40625 C 5.878906 -9.175781 6.519531 -8.941406 7.0625 -8.703125 C 7.613281 -8.472656 8.066406 -8.210938 8.421875 -7.921875 C 8.785156 -7.628906 9.082031 -7.304688 9.3125 -6.953125 C 9.539062 -6.597656 9.703125 -6.195312 9.796875 -5.75 C 9.921875 -5.175781 9.925781 -4.640625 9.8125 -4.140625 C 9.695312 -3.640625 9.472656 -3.1875 9.140625 -2.78125 C 8.816406 -2.375 8.398438 -2.019531 7.890625 -1.71875 C 7.390625 -1.414062 6.800781 -1.191406 6.125 -1.046875 C 5.425781 -0.898438 4.753906 -0.859375 4.109375 -0.921875 C 3.460938 -0.984375 2.90625 -1.148438 2.4375 -1.421875 Z M 2.078125 -0.4375 "/></g></g></g><g fill="#015551" fill-opacity="1"><g transform="translate(168.18693, 73.631084)"><g><path d="M 10.484375 -20.28125 C 12.003906 -20.375 13.4375 -20.207031 14.78125 -19.78125 C 16.132812 -19.363281 17.332031 -18.726562 18.375 -17.875 C 19.414062 -17.03125 20.253906 -16.007812 20.890625 -14.8125 C 21.523438 -13.625 21.890625 -12.332031 21.984375 -10.9375 C 22.097656 -9.21875 21.78125 -7.613281 21.03125 -6.125 C 20.28125 -4.632812 19.179688 -3.34375 17.734375 -2.25 C 17.472656 -2.039062 17.210938 -1.859375 16.953125 -1.703125 C 16.703125 -1.546875 16.414062 -1.378906 16.09375 -1.203125 C 15.769531 -1.035156 15.390625 -0.851562 14.953125 -0.65625 C 14.523438 -0.457031 14.015625 -0.226562 13.421875 0.03125 C 13.054688 0.1875 12.75 0.320312 12.5 0.4375 C 12.25 0.550781 12.023438 0.660156 11.828125 0.765625 C 11.628906 0.867188 11.453125 0.972656 11.296875 1.078125 C 11.148438 1.179688 11.007812 1.289062 10.875 1.40625 L 10.875 1.5 C 10.976562 1.476562 11.125 1.457031 11.3125 1.4375 C 11.5 1.414062 11.675781 1.398438 11.84375 1.390625 C 12.5625 1.335938 13.242188 1.367188 13.890625 1.484375 C 14.546875 1.597656 15.191406 1.726562 15.828125 1.875 C 16.460938 2.019531 17.097656 2.144531 17.734375 2.25 C 18.378906 2.363281 19.054688 2.398438 19.765625 2.359375 C 20.566406 2.304688 21.179688 2.125 21.609375 1.8125 C 22.046875 1.507812 22.367188 1.007812 22.578125 0.3125 L 23.515625 0.25 C 23.554688 0.46875 23.585938 0.671875 23.609375 0.859375 C 23.640625 1.046875 23.660156 1.203125 23.671875 1.328125 C 23.703125 1.835938 23.613281 2.320312 23.40625 2.78125 C 23.207031 3.238281 22.910156 3.644531 22.515625 4 C 22.117188 4.351562 21.640625 4.640625 21.078125 4.859375 C 20.523438 5.078125 19.921875 5.210938 19.265625 5.265625 C 18.347656 5.316406 17.476562 5.210938 16.65625 4.953125 C 15.832031 4.691406 15.039062 4.390625 14.28125 4.046875 C 13.519531 3.710938 12.796875 3.410156 12.109375 3.140625 C 11.421875 2.867188 10.757812 2.753906 10.125 2.796875 C 9.664062 2.828125 9.296875 2.925781 9.015625 3.09375 C 8.742188 3.257812 8.5 3.4375 8.28125 3.625 C 8.070312 3.820312 7.859375 4 7.640625 4.15625 C 7.429688 4.320312 7.171875 4.414062 6.859375 4.4375 C 6.566406 4.457031 6.332031 4.40625 6.15625 4.28125 C 5.976562 4.15625 5.882812 3.992188 5.875 3.796875 C 5.851562 3.515625 5.960938 3.242188 6.203125 2.984375 C 6.453125 2.734375 6.910156 2.394531 7.578125 1.96875 L 10.625 -0.03125 C 9.28125 -0.0507812 8.015625 -0.304688 6.828125 -0.796875 C 5.640625 -1.296875 4.597656 -1.960938 3.703125 -2.796875 C 2.804688 -3.640625 2.078125 -4.632812 1.515625 -5.78125 C 0.953125 -6.925781 0.625 -8.171875 0.53125 -9.515625 C 0.4375 -10.921875 0.617188 -12.257812 1.078125 -13.53125 C 1.546875 -14.800781 2.222656 -15.921875 3.109375 -16.890625 C 3.992188 -17.859375 5.070312 -18.640625 6.34375 -19.234375 C 7.613281 -19.828125 8.992188 -20.175781 10.484375 -20.28125 Z M 11.71875 -1.53125 C 12.707031 -1.59375 13.585938 -1.851562 14.359375 -2.3125 C 15.140625 -2.78125 15.785156 -3.40625 16.296875 -4.1875 C 16.804688 -4.96875 17.175781 -5.898438 17.40625 -6.984375 C 17.644531 -8.078125 17.71875 -9.28125 17.625 -10.59375 C 17.539062 -11.882812 17.3125 -13.046875 16.9375 -14.078125 C 16.570312 -15.109375 16.082031 -15.972656 15.46875 -16.671875 C 14.863281 -17.367188 14.144531 -17.890625 13.3125 -18.234375 C 12.488281 -18.585938 11.582031 -18.734375 10.59375 -18.671875 C 9.625 -18.597656 8.765625 -18.335938 8.015625 -17.890625 C 7.265625 -17.453125 6.644531 -16.847656 6.15625 -16.078125 C 5.664062 -15.304688 5.304688 -14.382812 5.078125 -13.3125 C 4.859375 -12.238281 4.789062 -11.050781 4.875 -9.75 C 4.96875 -8.40625 5.191406 -7.207031 5.546875 -6.15625 C 5.910156 -5.113281 6.390625 -4.238281 6.984375 -3.53125 C 7.578125 -2.832031 8.273438 -2.304688 9.078125 -1.953125 C 9.878906 -1.609375 10.757812 -1.46875 11.71875 -1.53125 Z M 11.71875 -1.53125 "/></g></g></g><g fill="#015551" fill-opacity="1"><g transform="translate(190.658821, 72.252779)"><g><path d="M 18.03125 1.96875 L 0.875 0.09375 L 0.984375 -0.90625 C 1.523438 -0.863281 1.972656 -0.863281 2.328125 -0.90625 C 2.691406 -0.957031 2.976562 -1.066406 3.1875 -1.234375 C 3.394531 -1.410156 3.550781 -1.679688 3.65625 -2.046875 C 3.769531 -2.410156 3.859375 -2.882812 3.921875 -3.46875 L 5.1875 -14.96875 C 5.25 -15.550781 5.265625 -16.019531 5.234375 -16.375 C 5.210938 -16.738281 5.128906 -17.03125 4.984375 -17.25 C 4.847656 -17.476562 4.628906 -17.648438 4.328125 -17.765625 C 4.023438 -17.878906 3.628906 -17.976562 3.140625 -18.0625 L 3.25 -19.0625 L 11.828125 -18.125 L 11.71875 -17.125 C 11.164062 -17.164062 10.710938 -17.160156 10.359375 -17.109375 C 10.015625 -17.066406 9.738281 -16.945312 9.53125 -16.75 C 9.320312 -16.5625 9.164062 -16.28125 9.0625 -15.90625 C 8.957031 -15.53125 8.867188 -15.023438 8.796875 -14.390625 L 7.65625 -3.953125 C 7.582031 -3.253906 7.59375 -2.675781 7.6875 -2.21875 C 7.789062 -1.757812 8.003906 -1.390625 8.328125 -1.109375 C 8.648438 -0.835938 9.09375 -0.617188 9.65625 -0.453125 C 10.226562 -0.296875 10.953125 -0.171875 11.828125 -0.078125 C 12.785156 0.0234375 13.59375 0.0507812 14.25 0 C 14.90625 -0.0507812 15.472656 -0.210938 15.953125 -0.484375 C 16.429688 -0.753906 16.828125 -1.148438 17.140625 -1.671875 C 17.460938 -2.191406 17.769531 -2.882812 18.0625 -3.75 L 19.0625 -3.640625 Z M 18.03125 1.96875 "/></g></g></g><g fill="#015551" fill-opacity="1"><g transform="translate(208.588355, 74.452068)"><g><path d="M 7.1875 -2.578125 C 7.039062 -1.929688 6.945312 -1.40625 6.90625 -1 C 6.863281 -0.59375 6.894531 -0.265625 7 -0.015625 C 7.101562 0.222656 7.28125 0.410156 7.53125 0.546875 C 7.789062 0.679688 8.15625 0.8125 8.625 0.9375 L 8.40625 1.90625 L 0.71875 0.15625 L 0.9375 -0.8125 C 1.394531 -0.726562 1.773438 -0.695312 2.078125 -0.71875 C 2.378906 -0.738281 2.628906 -0.835938 2.828125 -1.015625 C 3.035156 -1.191406 3.207031 -1.453125 3.34375 -1.796875 C 3.476562 -2.148438 3.613281 -2.613281 3.75 -3.1875 L 4.4375 -6.1875 C 4.644531 -7.132812 4.800781 -7.914062 4.90625 -8.53125 C 5.019531 -9.144531 5.082031 -9.578125 5.09375 -9.828125 C 5.101562 -10.242188 4.976562 -10.550781 4.71875 -10.75 C 4.46875 -10.945312 3.96875 -11.128906 3.21875 -11.296875 L 3.40625 -12.125 L 9.28125 -11.765625 Z M 6.859375 -17.765625 C 6.984375 -18.304688 7.269531 -18.71875 7.71875 -19 C 8.175781 -19.28125 8.664062 -19.359375 9.1875 -19.234375 C 9.71875 -19.117188 10.125 -18.835938 10.40625 -18.390625 C 10.6875 -17.941406 10.765625 -17.445312 10.640625 -16.90625 C 10.523438 -16.382812 10.242188 -15.984375 9.796875 -15.703125 C 9.347656 -15.421875 8.859375 -15.335938 8.328125 -15.453125 C 7.804688 -15.578125 7.398438 -15.863281 7.109375 -16.3125 C 6.828125 -16.757812 6.742188 -17.242188 6.859375 -17.765625 Z M 6.859375 -17.765625 "/></g></g></g><g fill="#015551" fill-opacity="1"><g transform="translate(216.691558, 75.984909)"><g><path d="M 7.421875 -1.71875 C 7.191406 -1.082031 7.03125 -0.570312 6.9375 -0.1875 C 6.851562 0.195312 6.84375 0.507812 6.90625 0.75 C 6.976562 0.988281 7.140625 1.191406 7.390625 1.359375 C 7.648438 1.523438 8.007812 1.707031 8.46875 1.90625 L 8.140625 2.84375 L 0.6875 0.234375 L 1.015625 -0.703125 C 1.484375 -0.566406 1.863281 -0.484375 2.15625 -0.453125 C 2.457031 -0.429688 2.71875 -0.488281 2.9375 -0.625 C 3.15625 -0.757812 3.34375 -0.988281 3.5 -1.3125 C 3.664062 -1.644531 3.851562 -2.113281 4.0625 -2.71875 L 5.09375 -5.6875 C 5.414062 -6.613281 5.664062 -7.367188 5.84375 -7.953125 C 6.019531 -8.535156 6.117188 -8.9375 6.140625 -9.15625 C 6.160156 -9.382812 6.15625 -9.578125 6.125 -9.734375 C 6.09375 -9.890625 6.007812 -10.03125 5.875 -10.15625 C 5.738281 -10.289062 5.554688 -10.410156 5.328125 -10.515625 C 5.109375 -10.628906 4.816406 -10.75 4.453125 -10.875 L 4.734375 -11.671875 L 9.625 -10.984375 L 9.203125 -8.796875 L 9.296875 -8.765625 C 10.046875 -9.242188 10.835938 -9.539062 11.671875 -9.65625 C 12.503906 -9.769531 13.347656 -9.679688 14.203125 -9.390625 C 15.210938 -9.035156 15.976562 -8.609375 16.5 -8.109375 C 17.019531 -7.617188 17.421875 -6.96875 17.703125 -6.15625 C 17.835938 -5.695312 17.90625 -5.140625 17.90625 -4.484375 C 17.914062 -3.835938 17.75 -3.015625 17.40625 -2.015625 L 16.234375 1.34375 C 16.003906 1.976562 15.84375 2.488281 15.75 2.875 C 15.65625 3.269531 15.640625 3.582031 15.703125 3.8125 C 15.773438 4.050781 15.9375 4.253906 16.1875 4.421875 C 16.4375 4.585938 16.78125 4.765625 17.21875 4.953125 L 16.890625 5.890625 L 9.484375 3.3125 L 9.8125 2.375 C 10.300781 2.507812 10.691406 2.585938 10.984375 2.609375 C 11.273438 2.640625 11.523438 2.582031 11.734375 2.4375 C 11.953125 2.300781 12.144531 2.066406 12.3125 1.734375 C 12.488281 1.398438 12.675781 0.941406 12.875 0.359375 L 14 -2.859375 C 14.28125 -3.660156 14.46875 -4.351562 14.5625 -4.9375 C 14.664062 -5.53125 14.671875 -6.03125 14.578125 -6.4375 C 14.484375 -6.851562 14.289062 -7.195312 14 -7.46875 C 13.707031 -7.75 13.300781 -7.984375 12.78125 -8.171875 C 12.269531 -8.335938 11.785156 -8.34375 11.328125 -8.1875 C 10.867188 -8.03125 10.414062 -7.75 9.96875 -7.34375 C 9.71875 -7.101562 9.460938 -6.773438 9.203125 -6.359375 C 8.941406 -5.941406 8.726562 -5.488281 8.5625 -5 Z M 7.421875 -1.71875 "/></g></g></g><g fill="#015551" fill-opacity="1"><g transform="translate(232.919307, 81.620392)"><g><path d="M 8.421875 3.234375 C 8.898438 3.484375 9.242188 3.640625 9.453125 3.703125 C 9.660156 3.765625 9.796875 3.738281 9.859375 3.625 C 9.910156 3.53125 9.925781 3.253906 9.90625 2.796875 C 9.882812 2.347656 9.835938 1.8125 9.765625 1.1875 L 9.390625 -2.234375 L 7.734375 -1.734375 L 7.28125 -0.875 C 6.976562 -0.289062 6.753906 0.1875 6.609375 0.5625 C 6.472656 0.945312 6.410156 1.269531 6.421875 1.53125 C 6.429688 1.789062 6.515625 2.007812 6.671875 2.1875 C 6.828125 2.363281 7.0625 2.535156 7.375 2.703125 L 6.921875 3.59375 L 0.359375 0.1875 L 0.8125 -0.703125 C 1.238281 -0.503906 1.597656 -0.378906 1.890625 -0.328125 C 2.179688 -0.273438 2.445312 -0.300781 2.6875 -0.40625 C 2.925781 -0.507812 3.15625 -0.710938 3.375 -1.015625 C 3.601562 -1.328125 3.859375 -1.753906 4.140625 -2.296875 L 9.03125 -11.734375 C 9.5 -12.640625 9.851562 -13.351562 10.09375 -13.875 C 10.332031 -14.40625 10.457031 -14.832031 10.46875 -15.15625 C 10.476562 -15.488281 10.367188 -15.75 10.140625 -15.9375 C 9.910156 -16.132812 9.570312 -16.347656 9.125 -16.578125 L 9.546875 -17.40625 L 14.953125 -15.6875 L 8.546875 -3.3125 L 11.71875 -4.21875 C 12.875 -4.550781 13.707031 -4.816406 14.21875 -5.015625 C 14.738281 -5.210938 15.039062 -5.390625 15.125 -5.546875 C 15.1875 -5.679688 15.097656 -5.84375 14.859375 -6.03125 C 14.617188 -6.226562 14.128906 -6.519531 13.390625 -6.90625 L 13.84375 -7.796875 L 19.90625 -4.65625 L 19.453125 -3.765625 C 18.890625 -4.046875 18.335938 -4.203125 17.796875 -4.234375 C 17.265625 -4.273438 16.628906 -4.179688 15.890625 -3.953125 L 12.671875 -3.0625 L 13.703125 4.390625 C 13.796875 5.046875 13.957031 5.546875 14.1875 5.890625 C 14.414062 6.234375 14.800781 6.546875 15.34375 6.828125 L 14.890625 7.71875 L 7.96875 4.125 Z M 8.421875 3.234375 "/></g></g></g><g clip-path="url(#8d48ed1fc0)"><g clip-path="url(#0aa60f3765)"><path fill="#fdfbee" d="M 83.878906 83.878906 L 291.121094 83.878906 L 291.121094 291.121094 L 83.878906 291.121094 Z M 83.878906 83.878906 " fill-opacity="1" fill-rule="nonzero"/></g></g><g clip-path="url(#272b87c560)"><g clip-path="url(#c902f34a67)"><path stroke-linecap="butt" transform="matrix(0.75, 0, 0, 0.75, 83.879699, 83.879694)" fill="none" stroke-linejoin="miter" d="M 138.155202 -0.00105099 C 61.853114 -0.00105099 -0.00105699 61.85312 -0.00105699 138.155208 C -0.00105699 214.457296 61.853114 276.311467 138.155202 276.311467 C 214.45729 276.311467 276.311461 214.457296 276.311461 138.155208 C 276.311461 61.85312 214.45729 -0.00105099 138.155202 -0.00105099 Z M 138.155202 -0.00105099 " stroke="#e07a5f" stroke-width="16" stroke-opacity="1" stroke-miterlimit="4"/></g></g><g clip-path="url(#af517fd5fd)"><g clip-path="url(#4625da8f4e)"><path fill="#e07a5f" d="M 106.09375 106.09375 L 268.90625 106.09375 L 268.90625 268.90625 L 106.09375 268.90625 Z M 106.09375 106.09375 " fill-opacity="1" fill-rule="nonzero"/></g></g><g clip-path="url(#a1d8dbc59a)"><path fill="#015551" d="M 282.058594 171.375 C 281.855469 171.359375 281.652344 171.367188 281.445312 171.402344 L 280.097656 169.625 L 267.527344 144.804688 L 272.292969 140.195312 C 272.960938 140.679688 273.835938 140.867188 274.691406 140.625 C 274.769531 140.601562 274.847656 140.574219 274.921875 140.546875 Z M 281.046875 192.316406 C 280.722656 191.882812 280.28125 191.550781 279.785156 191.363281 L 281.601562 176.929688 C 281.941406 176.960938 282.292969 176.9375 282.636719 176.839844 C 282.671875 176.828125 282.699219 176.816406 282.734375 176.804688 Z M 278.695312 213.9375 C 278.152344 213.726562 277.574219 213.609375 276.980469 213.609375 L 279.105469 196.738281 C 279.257812 196.722656 279.410156 196.695312 279.558594 196.652344 C 279.972656 196.535156 280.335938 196.328125 280.636719 196.0625 Z M 275.71875 213.785156 C 275.035156 213.980469 274.433594 214.316406 273.933594 214.75 L 258.960938 194.0625 C 259.75 193.566406 260.242188 192.699219 260.261719 191.769531 L 276.023438 193.675781 C 275.988281 194.019531 276.015625 194.378906 276.113281 194.730469 C 276.402344 195.746094 277.214844 196.46875 278.175781 196.691406 L 276.03125 213.710938 C 275.925781 213.730469 275.824219 213.757812 275.71875 213.785156 Z M 263.367188 239.601562 L 263.066406 236.910156 L 273.960938 221.789062 C 274.140625 221.941406 274.328125 222.078125 274.527344 222.203125 L 265.175781 240.339844 C 264.667969 239.867188 264.027344 239.597656 263.367188 239.601562 Z M 246.523438 260.644531 C 246.417969 260.535156 246.308594 260.421875 246.191406 260.320312 L 259.316406 242.113281 L 260.941406 242.378906 C 260.945312 242.667969 260.988281 242.964844 261.070312 243.257812 C 261.261719 243.925781 261.636719 244.480469 262.109375 244.875 Z M 225.976562 273.886719 C 225.632812 273.296875 225.089844 272.863281 224.464844 272.648438 L 225.019531 271.023438 L 238.917969 265.796875 C 239 265.972656 239.097656 266.136719 239.199219 266.296875 Z M 196.125 282.808594 C 196.035156 282.53125 195.925781 282.265625 195.792969 282.015625 L 207.707031 277.535156 L 220.8125 275.738281 C 220.828125 275.839844 220.851562 275.945312 220.878906 276.046875 C 220.882812 276.058594 220.886719 276.070312 220.890625 276.078125 Z M 172.984375 282.976562 C 173 282.753906 172.996094 282.527344 172.960938 282.300781 L 189.65625 280.011719 C 188.066406 280.78125 187.066406 282.386719 187.039062 284.121094 Z M 149.625 276.464844 C 150 275.542969 150.082031 274.488281 149.789062 273.453125 C 149.65625 272.984375 149.457031 272.554688 149.203125 272.167969 L 161.691406 263.753906 L 169.375 280.082031 C 168.496094 280.359375 167.847656 281.027344 167.570312 281.84375 Z M 139.621094 251.109375 L 151.335938 248.183594 C 151.355469 248.269531 151.375 248.359375 151.398438 248.449219 C 151.847656 250.03125 153.332031 250.996094 154.714844 250.601562 C 154.949219 250.535156 155.164062 250.433594 155.363281 250.300781 L 161.289062 262.902344 L 148.613281 271.445312 C 147.601562 270.429688 146.144531 269.910156 144.664062 270.121094 Z M 122.757812 253.097656 L 120.816406 251.359375 L 129.257812 215.695312 L 136.050781 241.285156 Z M 138.667969 251.15625 L 124.527344 254.6875 L 122.894531 253.222656 L 136.105469 241.488281 Z M 143.761719 270.34375 C 143.355469 270.488281 142.976562 270.683594 142.636719 270.921875 L 124.695312 254.835938 L 138.71875 251.335938 Z M 122.199219 255.269531 C 122.183594 255.183594 122.164062 255.09375 122.136719 255.007812 C 122.054688 254.714844 121.9375 254.449219 121.792969 254.203125 L 122.195312 253.847656 L 123.4375 254.960938 Z M 120.433594 252.980469 L 120.574219 252.390625 L 122.058594 253.71875 L 121.691406 254.046875 C 121.363281 253.5625 120.925781 253.195312 120.433594 252.980469 Z M 118.820312 252.855469 C 118.566406 252.925781 118.335938 253.039062 118.125 253.1875 L 114.675781 247.101562 L 120.414062 252.25 L 120.257812 252.910156 C 119.800781 252.75 119.304688 252.71875 118.820312 252.855469 Z M 113.234375 244.5625 L 110.410156 239.578125 C 110.578125 238.84375 110.566406 238.054688 110.347656 237.28125 C 110.101562 236.410156 109.621094 235.667969 108.996094 235.105469 L 125.859375 213.5625 C 126.730469 214.21875 127.820312 214.566406 128.941406 214.5 L 129.160156 215.316406 L 120.660156 251.21875 Z M 109.609375 241.3125 C 109.9375 240.867188 110.1875 240.367188 110.339844 239.835938 L 112.800781 244.171875 Z M 91.910156 206.957031 C 92.945312 206.425781 93.546875 205.300781 93.40625 204.136719 L 114.804688 197.605469 L 124.921875 207.105469 C 124.101562 208.222656 123.789062 209.691406 124.195312 211.125 C 124.390625 211.816406 124.730469 212.425781 125.175781 212.929688 L 108.246094 234.550781 C 107.953125 234.378906 107.644531 234.234375 107.316406 234.128906 Z M 104.605469 234.074219 C 104.472656 234.113281 104.339844 234.160156 104.210938 234.207031 L 91.398438 207.15625 C 91.402344 207.15625 91.402344 207.15625 91.402344 207.15625 C 91.519531 207.121094 91.628906 207.078125 91.738281 207.035156 L 107.0625 234.054688 C 106.28125 233.847656 105.4375 233.839844 104.605469 234.074219 Z M 90.964844 181.113281 C 91.695312 181.277344 92.476562 181.265625 93.246094 181.046875 C 93.660156 180.929688 94.042969 180.757812 94.394531 180.546875 L 91.039062 201.710938 C 90.84375 201.683594 90.648438 201.675781 90.449219 201.691406 Z M 98.546875 147.289062 C 98.871094 147.503906 99.230469 147.652344 99.601562 147.707031 L 97.238281 162.597656 L 92.441406 171.949219 C 92.355469 171.941406 92.273438 171.933594 92.1875 171.929688 Z M 117.832031 120.613281 C 118.019531 120.851562 118.226562 121.074219 118.457031 121.269531 L 112.898438 132.097656 L 101.804688 143.066406 C 101.546875 142.703125 101.226562 142.40625 100.867188 142.195312 Z M 143.703125 100.605469 C 143.792969 100.855469 143.910156 101.085938 144.054688 101.292969 L 135.308594 109.9375 L 125.003906 114.699219 C 124.863281 114.539062 124.710938 114.386719 124.546875 114.246094 Z M 167.425781 94.21875 C 167.453125 94.367188 167.484375 94.511719 167.527344 94.65625 C 167.558594 94.773438 167.601562 94.890625 167.640625 95.007812 L 158.503906 99.226562 L 149.113281 99.96875 C 149.148438 99.628906 149.121094 99.28125 149.023438 98.9375 C 148.96875 98.746094 148.894531 98.566406 148.808594 98.398438 Z M 205.847656 95.007812 C 205.8125 95.164062 205.792969 95.328125 205.785156 95.492188 L 189.8125 96.753906 L 176.617188 93.9375 C 176.636719 93.773438 176.644531 93.605469 176.648438 93.4375 Z M 236.410156 105.816406 C 236.289062 106.082031 236.191406 106.355469 236.121094 106.632812 L 212.792969 101.65625 L 210.394531 97.691406 C 210.773438 97.363281 211.058594 96.941406 211.214844 96.46875 Z M 272.269531 135.703125 C 272.140625 135.800781 272.019531 135.90625 271.910156 136.023438 L 260.738281 128.101562 C 260.929688 127.574219 260.964844 126.980469 260.800781 126.394531 C 260.378906 124.910156 258.835938 124.050781 257.355469 124.472656 C 257.335938 124.476562 257.320312 124.484375 257.300781 124.488281 L 245.0625 109.160156 C 245.085938 109.082031 245.109375 109.011719 245.128906 108.933594 Z M 259.734375 129.421875 C 260.148438 129.128906 260.46875 128.730469 260.667969 128.277344 L 271.785156 136.160156 C 271.21875 136.84375 270.988281 137.785156 271.246094 138.703125 C 271.40625 139.261719 271.726562 139.734375 272.144531 140.082031 L 267.441406 144.628906 Z M 266.226562 145.800781 C 265.152344 144.566406 263.464844 143.949219 261.78125 144.300781 L 256.179688 134.246094 L 257.488281 129.871094 C 257.933594 129.976562 258.40625 129.972656 258.878906 129.839844 C 259.132812 129.765625 259.367188 129.660156 259.578125 129.527344 L 267.296875 144.765625 Z M 266.460938 151.609375 C 267.285156 150.492188 267.601562 149.023438 267.191406 147.582031 C 267.019531 146.964844 266.726562 146.414062 266.347656 145.945312 L 267.386719 144.9375 L 279.46875 168.792969 Z M 279.195312 174.914062 C 279.234375 175.054688 279.285156 175.1875 279.34375 175.316406 L 270.789062 181.46875 L 257.714844 161.148438 L 260.722656 153.046875 C 261.703125 153.515625 262.855469 153.644531 263.988281 153.324219 C 264.695312 153.125 265.316406 152.769531 265.828125 152.3125 L 280.519531 171.71875 C 279.414062 172.335938 278.835938 173.644531 279.195312 174.914062 Z M 271.292969 182.25 L 279.867188 176.085938 C 280.105469 176.335938 280.386719 176.535156 280.699219 176.679688 L 278.871094 191.179688 C 278.597656 191.171875 278.316406 191.207031 278.039062 191.285156 C 277.777344 191.359375 277.535156 191.472656 277.316406 191.609375 Z M 259.945312 190.410156 L 271.140625 182.359375 L 277.160156 191.714844 C 276.574219 192.140625 276.175781 192.78125 276.050781 193.492188 L 260.257812 191.578125 C 260.25 191.367188 260.214844 191.15625 260.15625 190.945312 C 260.101562 190.753906 260.03125 190.578125 259.945312 190.410156 Z M 254.214844 170.578125 L 257.632812 161.367188 L 270.636719 181.578125 L 259.378906 189.671875 C 258.832031 189.160156 258.09375 188.878906 257.324219 188.921875 Z M 272.511719 219.527344 C 272.523438 219.570312 272.539062 219.613281 272.550781 219.65625 L 261.746094 225.21875 L 260.210938 211.609375 L 272.457031 217.199219 C 272.285156 217.941406 272.289062 218.738281 272.511719 219.527344 Z M 261.765625 225.414062 L 272.613281 219.835938 C 272.78125 220.300781 273.015625 220.726562 273.308594 221.105469 L 262.910156 235.535156 Z M 243.5625 259.183594 L 243.164062 239.453125 L 258.289062 241.945312 L 245.4375 259.78125 C 244.867188 259.453125 244.226562 259.246094 243.5625 259.183594 Z M 229.402344 258.183594 L 238.742188 262.261719 C 238.449219 263.089844 238.386719 264.007812 238.609375 264.921875 L 225.410156 269.882812 Z M 222.945312 270.8125 L 220.664062 254.363281 L 229.234375 258.109375 L 225.183594 269.96875 Z M 223.179688 272.527344 L 223.074219 271.753906 L 224.792969 271.109375 L 224.285156 272.597656 C 223.933594 272.5 223.558594 272.476562 223.179688 272.527344 Z M 220.96875 272.546875 L 221.617188 273.289062 C 221.023438 273.871094 220.707031 274.699219 220.789062 275.550781 L 208.492188 277.238281 Z M 191.695312 279.542969 C 191.671875 279.542969 191.644531 279.542969 191.621094 279.542969 L 193.292969 246.90625 C 193.96875 247.027344 194.683594 247.003906 195.390625 246.804688 C 196.222656 246.566406 196.9375 246.117188 197.492188 245.53125 L 220.320312 271.796875 L 204.332031 277.808594 Z M 192.519531 279.617188 L 203.546875 278.105469 L 195.261719 281.222656 C 194.5625 280.382812 193.589844 279.8125 192.519531 279.617188 Z M 156.484375 247.355469 L 189.480469 242.589844 C 189.5 242.925781 189.554688 243.261719 189.648438 243.597656 C 189.664062 243.652344 189.683594 243.707031 189.699219 243.761719 L 161.445312 262.796875 L 155.515625 250.191406 C 156.292969 249.578125 156.6875 248.484375 156.484375 247.355469 Z M 136.882812 240.796875 L 155.605469 224.15625 L 161.382812 227.050781 L 154.808594 245.050781 C 154.277344 244.789062 153.675781 244.710938 153.09375 244.878906 C 151.839844 245.234375 151.105469 246.574219 151.308594 247.996094 L 139.570312 250.929688 Z M 132.609375 192.167969 C 132.953125 192.746094 133.488281 193.167969 134.105469 193.382812 L 129.542969 205.292969 C 128.851562 205.160156 128.121094 205.179688 127.398438 205.382812 C 126.683594 205.589844 126.058594 205.945312 125.542969 206.414062 L 115.828125 197.292969 Z M 104.964844 187.085938 L 120.929688 167.097656 C 121.519531 167.378906 122.207031 167.457031 122.886719 167.265625 C 122.933594 167.25 122.976562 167.234375 123.019531 167.21875 L 133.476562 188.40625 C 132.484375 189.058594 131.980469 190.300781 132.320312 191.503906 C 132.355469 191.621094 132.398438 191.730469 132.445312 191.839844 L 115.585938 197.0625 Z M 95.566406 179.53125 L 104.246094 187.6875 L 92.5 202.398438 C 92.140625 202.074219 91.699219 201.847656 91.222656 201.746094 L 94.605469 180.410156 C 94.96875 180.164062 95.289062 179.867188 95.566406 179.53125 Z M 95.503906 173.546875 C 94.941406 172.890625 94.203125 172.40625 93.386719 172.144531 L 96.773438 165.542969 Z M 96.105469 174.4375 L 119.507812 165.539062 C 119.746094 166.183594 120.195312 166.695312 120.757812 167.011719 L 104.828125 186.957031 L 96.085938 178.746094 C 96.625 177.726562 96.789062 176.503906 96.449219 175.308594 C 96.363281 175 96.246094 174.710938 96.105469 174.4375 Z M 104.984375 149.550781 L 119.773438 163.089844 C 119.488281 163.539062 119.335938 164.0625 119.339844 164.609375 L 95.683594 173.605469 L 97.046875 165.015625 Z M 100.59375 147.652344 C 101.132812 147.5 101.574219 147.164062 101.886719 146.71875 L 104.273438 148.898438 L 97.511719 162.070312 L 99.785156 147.730469 C 100.054688 147.75 100.324219 147.726562 100.59375 147.652344 Z M 102.371094 144.480469 L 107.203125 143.191406 L 104.359375 148.730469 L 101.992188 146.5625 C 102.34375 145.980469 102.492188 145.238281 102.371094 144.480469 Z M 107.316406 142.96875 L 102.339844 144.296875 C 102.324219 144.222656 102.308594 144.152344 102.289062 144.078125 C 102.199219 143.769531 102.070312 143.480469 101.910156 143.222656 L 112.625 132.628906 Z M 122.152344 123.210938 L 122.128906 139.015625 L 108.527344 142.644531 L 114.746094 130.53125 Z M 122.152344 122.359375 L 122.152344 122.949219 L 115.019531 130 L 119.222656 121.808594 C 120.09375 122.296875 121.117188 122.507812 122.152344 122.359375 Z M 146.070312 105.992188 L 146.6875 129.957031 C 146.601562 129.972656 146.515625 129.992188 146.429688 130.019531 C 145.742188 130.214844 145.1875 130.652344 144.835938 131.214844 L 125.621094 119.902344 C 125.664062 119.824219 125.703125 119.742188 125.738281 119.664062 L 133.859375 111.632812 Z M 145.980469 102.460938 L 146.042969 104.980469 L 135.804688 109.710938 L 144.164062 101.445312 C 144.613281 102.003906 145.265625 102.367188 145.980469 102.460938 Z M 152.886719 101.820312 L 148.925781 100.734375 C 149 100.550781 149.054688 100.355469 149.089844 100.15625 L 158.015625 99.453125 Z M 169.929688 98.511719 L 167.484375 105.820312 L 154.277344 102.203125 L 160.691406 99.242188 Z M 170.207031 97.675781 L 169.996094 98.320312 L 161.175781 99.015625 L 168.050781 95.839844 C 168.566406 96.675781 169.328125 97.308594 170.207031 97.675781 Z M 175.59375 97.875 L 174.984375 96.953125 C 175.648438 96.394531 176.144531 95.660156 176.414062 94.84375 L 186.558594 97.007812 Z M 200.925781 100.078125 L 186.675781 109.433594 C 185.996094 108.898438 185.082031 108.679688 184.183594 108.933594 C 183.824219 109.035156 183.503906 109.207031 183.226562 109.421875 L 175.710938 98.054688 L 187.195312 97.144531 Z M 205.890625 96.34375 C 205.929688 96.476562 205.976562 96.601562 206.03125 96.722656 L 202.019531 99.359375 L 190.449219 96.890625 L 205.789062 95.675781 C 205.796875 95.898438 205.828125 96.121094 205.890625 96.34375 Z M 224.898438 122.039062 L 221.554688 125.359375 C 216.613281 123.335938 209.78125 120.535156 203.070312 117.78125 C 197.628906 115.550781 192.191406 113.324219 187.730469 111.496094 C 187.71875 111.28125 187.6875 111.070312 187.628906 110.859375 C 187.480469 110.339844 187.195312 109.898438 186.824219 109.5625 L 201.183594 100.128906 L 213.203125 102.695312 Z M 236.730469 110.289062 L 225.035156 121.90625 L 213.453125 102.75 L 235.988281 107.558594 C 235.96875 108.039062 236.019531 108.535156 236.160156 109.023438 C 236.289062 109.484375 236.484375 109.90625 236.730469 110.289062 Z M 241.898438 112.230469 C 242.171875 112.152344 242.429688 112.050781 242.675781 111.933594 L 251.125 127.09375 L 231.644531 128.003906 C 231.117188 126.710938 229.6875 125.992188 228.308594 126.382812 C 228.148438 126.429688 227.992188 126.488281 227.847656 126.558594 L 225.527344 122.722656 L 237.316406 111.015625 C 238.472656 112.1875 240.210938 112.707031 241.898438 112.230469 Z M 252.265625 127.230469 L 255.328125 127.085938 C 255.320312 127.359375 255.355469 127.640625 255.433594 127.917969 C 255.6875 128.816406 256.359375 129.484375 257.179688 129.78125 L 255.976562 133.886719 Z M 258.121094 148.167969 L 252.207031 147.503906 L 255.804688 135.488281 L 260.878906 144.585938 C 259.375 145.230469 258.355469 146.609375 258.121094 148.167969 Z M 252.320312 152.769531 C 252.996094 152.078125 253.292969 151.054688 253.011719 150.058594 C 252.824219 149.40625 252.421875 148.875 251.902344 148.515625 L 251.9375 148.410156 L 258.078125 149.101562 C 258.097656 149.4375 258.152344 149.78125 258.246094 150.121094 C 258.535156 151.128906 259.132812 151.96875 259.910156 152.554688 L 257.082031 160.171875 Z M 251.304688 153.429688 C 251.636719 153.308594 251.929688 153.125 252.179688 152.898438 L 257.003906 160.390625 L 253.902344 168.742188 Z M 249.472656 180.675781 L 239.296875 167.589844 C 240.089844 166.902344 240.464844 165.796875 240.160156 164.71875 C 240.035156 164.289062 239.820312 163.914062 239.539062 163.605469 L 248.707031 153.085938 C 249.375 153.5625 250.242188 153.742188 251.089844 153.503906 C 251.101562 153.5 251.113281 153.496094 251.125 153.488281 L 253.773438 169.09375 Z M 256.144531 189.253906 L 250.144531 181.539062 L 254.085938 170.925781 L 257.140625 188.9375 C 256.996094 188.953125 256.855469 188.980469 256.710938 189.019531 C 256.511719 189.078125 256.320312 189.15625 256.144531 189.253906 Z M 246.6875 204.300781 C 247.0625 203.375 247.148438 202.324219 246.851562 201.289062 C 246.738281 200.886719 246.574219 200.511719 246.371094 200.171875 L 255.460938 193.636719 C 256.117188 194.320312 257.105469 194.640625 258.085938 194.421875 L 259.882812 210.375 Z M 242.511719 207.203125 C 242.886719 207.191406 243.269531 207.136719 243.648438 207.027344 C 244.722656 206.722656 245.601562 206.066406 246.191406 205.214844 L 260.015625 211.519531 L 261.566406 225.308594 L 243.070312 234.828125 Z M 238.8125 237.019531 C 238.34375 236.351562 237.65625 235.914062 236.921875 235.8125 L 241.289062 207.074219 C 241.386719 207.097656 241.480469 207.121094 241.582031 207.136719 L 242.148438 235.300781 Z M 239.40625 238.644531 C 239.386719 238.441406 239.351562 238.234375 239.292969 238.027344 C 239.203125 237.71875 239.074219 237.433594 238.914062 237.175781 L 242.152344 235.511719 L 242.226562 239.109375 Z M 235.265625 241.015625 C 235.917969 241.585938 236.777344 241.835938 237.597656 241.601562 C 238.746094 241.277344 239.460938 240.121094 239.417969 238.835938 L 242.230469 239.296875 L 242.632812 259.1875 C 242.371094 259.214844 242.113281 259.265625 241.855469 259.339844 C 240.671875 259.675781 239.722656 260.441406 239.136719 261.421875 L 229.707031 257.296875 Z M 216.53125 224.496094 L 218.960938 222.484375 L 234.484375 237.136719 C 234.148438 237.796875 234.050781 238.625 234.285156 239.449219 C 234.445312 240.015625 234.738281 240.503906 235.113281 240.878906 L 229.535156 257.226562 L 220.515625 253.285156 Z M 198.566406 243.695312 C 198.820312 242.867188 198.847656 241.957031 198.59375 241.0625 C 198.464844 240.601562 198.269531 240.179688 198.023438 239.796875 L 216.359375 224.636719 L 220.316406 253.199219 Z M 188.609375 217.019531 L 213.253906 219.234375 C 213.242188 219.566406 213.277344 219.90625 213.375 220.25 C 213.464844 220.566406 213.597656 220.855469 213.761719 221.117188 L 197.222656 238.867188 C 196.136719 237.898438 194.617188 237.457031 193.109375 237.792969 Z M 168.304688 216.683594 C 168.566406 216.253906 168.710938 215.753906 168.710938 215.234375 L 187.636719 216.933594 L 192.222656 238.085938 C 191.847656 238.253906 191.5 238.46875 191.191406 238.722656 Z M 161.875 226.253906 L 164.945312 217.839844 C 165.484375 218.042969 166.089844 218.085938 166.6875 217.914062 C 167.324219 217.734375 167.84375 217.34375 168.199219 216.84375 L 191.050781 238.839844 C 190.582031 239.25 190.207031 239.75 189.941406 240.300781 Z M 163.722656 216.941406 C 164.003906 217.300781 164.367188 217.585938 164.773438 217.769531 L 161.707031 226.171875 L 156.355469 223.492188 Z M 132.910156 211.761719 C 133.328125 210.828125 133.441406 209.757812 133.167969 208.699219 L 149.0625 201.808594 L 164.027344 213.1875 C 163.285156 213.878906 162.945312 214.949219 163.242188 215.992188 C 163.324219 216.285156 163.453125 216.554688 163.613281 216.792969 L 156.175781 223.402344 Z M 132.445312 212.566406 L 155.425781 224.070312 L 136.828125 240.59375 L 129.863281 214.347656 C 129.886719 214.34375 129.910156 214.335938 129.9375 214.332031 C 130.988281 214.03125 131.851562 213.394531 132.445312 212.566406 Z M 131.351562 206.0625 C 131.066406 205.859375 130.757812 205.691406 130.433594 205.558594 L 133.140625 198.503906 Z M 135.765625 193.425781 C 136.265625 193.28125 136.695312 193.011719 137.027344 192.65625 L 148.132812 201.101562 L 132.824219 207.773438 C 132.503906 207.136719 132.054688 206.597656 131.511719 206.179688 L 133.640625 197.199219 L 135.046875 193.527344 C 135.285156 193.523438 135.527344 193.492188 135.765625 193.425781 Z M 124.863281 165.101562 L 145.058594 164.804688 L 136.101562 188.175781 C 135.535156 187.933594 134.882812 187.875 134.246094 188.058594 C 134.027344 188.117188 133.824219 188.207031 133.636719 188.3125 L 123.195312 167.15625 C 124.078125 166.789062 124.691406 166.003906 124.863281 165.101562 Z M 122.09375 161.792969 C 121.851562 161.796875 121.609375 161.828125 121.367188 161.898438 C 120.742188 162.074219 120.230469 162.449219 119.878906 162.933594 L 105.070312 149.378906 L 108.414062 142.867188 L 122.128906 139.207031 Z M 135.886719 135.535156 L 140.273438 140.847656 L 123.914062 162.441406 C 123.457031 162.058594 122.886719 161.832031 122.28125 161.796875 L 122.3125 139.15625 Z M 144.429688 133.0625 L 136.746094 135.113281 L 124.972656 120.84375 C 125.1875 120.605469 125.375 120.34375 125.535156 120.066406 L 144.738281 131.375 C 144.46875 131.878906 144.351562 132.464844 144.429688 133.0625 Z M 148.566406 135.125 L 154.402344 144.898438 L 152.761719 149.792969 C 151.816406 149.386719 150.730469 149.289062 149.660156 149.589844 C 149.402344 149.664062 149.15625 149.757812 148.921875 149.871094 L 140.972656 140.234375 L 145.199219 134.652344 C 145.890625 135.359375 146.933594 135.671875 147.953125 135.386719 C 148.171875 135.324219 148.375 135.234375 148.566406 135.125 Z M 174.539062 142.609375 L 158.136719 136.664062 L 162.515625 123.589844 L 182.269531 112.40625 C 182.519531 113.253906 183.136719 113.890625 183.898438 114.203125 Z M 187.203125 117.128906 L 197.386719 143.683594 L 184.886719 146.359375 L 174.714844 142.671875 L 184.070312 114.269531 C 184.484375 114.40625 184.933594 114.445312 185.382812 114.371094 Z M 207.4375 139.378906 C 206.285156 138.21875 204.550781 137.703125 202.867188 138.179688 C 202.691406 138.230469 202.519531 138.292969 202.351562 138.359375 L 186.289062 114.058594 C 187.15625 113.582031 187.707031 112.675781 187.734375 111.699219 C 192.183594 113.519531 197.585938 115.738281 203 117.953125 C 209.4375 120.59375 215.875 123.234375 220.707031 125.210938 C 220.949219 125.3125 221.179688 125.40625 221.414062 125.5 Z M 226.546875 127.601562 C 226.589844 127.617188 226.628906 127.632812 226.667969 127.648438 C 226.292969 128.28125 226.167969 129.0625 226.382812 129.828125 C 226.425781 129.96875 226.476562 130.101562 226.539062 130.230469 C 225.992188 130.71875 225.3125 131.332031 224.464844 132.097656 C 222.242188 134.117188 219.15625 136.941406 215.292969 140.488281 C 214.367188 141.34375 213.4375 142.199219 212.523438 143.039062 L 208.785156 142.617188 C 208.78125 142.210938 208.722656 141.796875 208.605469 141.382812 C 208.476562 140.917969 208.277344 140.488281 208.027344 140.105469 L 222.347656 125.882812 C 224.039062 126.578125 225.472656 127.160156 226.546875 127.601562 Z M 226.769531 127.488281 C 225.6875 127.050781 224.230469 126.453125 222.492188 125.742188 L 225.394531 122.859375 L 227.683594 126.648438 C 227.3125 126.859375 227.003906 127.148438 226.769531 127.488281 Z M 232.714844 145.308594 L 212.765625 143.066406 C 218.222656 138.042969 223.679688 133.039062 226.621094 130.402344 C 227.183594 131.433594 228.347656 132.015625 229.527344 131.816406 Z M 246.921875 146.910156 L 232.910156 145.332031 L 229.710938 131.777344 C 229.75 131.765625 229.789062 131.761719 229.828125 131.75 C 230.304688 131.613281 230.714844 131.363281 231.039062 131.035156 Z M 248.273438 147.996094 L 249.550781 148.140625 C 249.269531 148.222656 249.007812 148.34375 248.777344 148.5 Z M 237.933594 201.199219 L 224.914062 197.667969 C 226.707031 193.265625 228.503906 188.863281 230.296875 184.460938 L 239.417969 198.972656 C 238.710938 199.554688 238.199219 200.332031 237.933594 201.199219 Z M 239.09375 205.839844 C 239.652344 206.402344 240.347656 206.808594 241.109375 207.027344 L 236.738281 235.792969 C 236.484375 235.78125 236.230469 235.804688 235.976562 235.875 C 235.378906 236.046875 234.894531 236.445312 234.578125 236.96875 L 219.105469 222.367188 Z M 218.050781 221.371094 C 218.496094 220.679688 218.648438 219.75 218.386719 218.828125 C 218.292969 218.507812 218.15625 218.210938 217.988281 217.945312 L 238.117188 204.410156 C 238.226562 204.660156 238.355469 204.898438 238.503906 205.121094 L 218.421875 221.722656 Z M 216.25 222.476562 C 216.398438 222.464844 216.546875 222.441406 216.691406 222.402344 C 217.207031 222.257812 217.632812 221.941406 217.945312 221.527344 L 218.28125 221.84375 L 216.378906 223.414062 Z M 201.753906 192.355469 L 224.378906 198.488281 C 221.875 204.625 219.375 210.757812 216.875 216.894531 C 216.320312 216.597656 215.6875 216.5 215.070312 216.675781 C 214.933594 216.714844 214.804688 216.769531 214.679688 216.828125 Z M 188.558594 216.800781 L 198.042969 217.679688 L 188.566406 216.832031 Z M 166.21875 194.367188 L 177.167969 189.617188 C 178.128906 191.40625 180.183594 192.390625 182.222656 191.957031 L 183.96875 200.011719 L 167.726562 213.101562 C 167.304688 212.746094 166.78125 212.519531 166.222656 212.457031 Z M 166.035156 194.445312 L 166.039062 212.445312 C 165.75 212.433594 165.457031 212.464844 165.164062 212.546875 C 164.789062 212.652344 164.453125 212.832031 164.171875 213.0625 L 149.257812 201.722656 Z M 137.6875 189.980469 C 137.609375 189.691406 137.484375 189.429688 137.328125 189.195312 L 162.703125 167.316406 L 166.027344 171.164062 L 166.03125 193.304688 L 148.328125 201.019531 L 137.152344 192.519531 C 137.71875 191.835938 137.949219 190.898438 137.6875 189.980469 Z M 146.0625 164.789062 L 160.339844 164.578125 L 162.582031 167.175781 L 137.214844 189.042969 C 137.121094 188.917969 137.011719 188.800781 136.898438 188.695312 Z M 124.722656 163.558594 L 146.445312 155.296875 C 146.449219 155.308594 146.453125 155.320312 146.457031 155.332031 C 146.707031 156.21875 147.199219 156.972656 147.84375 157.539062 L 145.132812 164.617188 L 124.894531 164.917969 C 124.941406 164.558594 124.914062 164.1875 124.808594 163.820312 C 124.785156 163.730469 124.753906 163.640625 124.722656 163.558594 Z M 160.183594 164.394531 L 146.132812 164.601562 L 148.625 158.101562 C 149.671875 158.695312 150.945312 158.890625 152.195312 158.535156 C 152.957031 158.320312 153.621094 157.925781 154.15625 157.410156 Z M 155.550781 153.589844 L 159.128906 152.824219 L 164.703125 162.160156 C 164.035156 162.679688 163.632812 163.484375 163.625 164.34375 L 161.394531 164.375 L 154.761719 156.691406 C 155.371094 155.800781 155.667969 154.707031 155.550781 153.589844 Z M 155.027344 145.953125 L 158.625 151.980469 L 155.363281 152.679688 C 155.046875 151.65625 154.40625 150.820312 153.589844 150.253906 Z M 157.203125 136.523438 L 154.476562 144.667969 L 148.726562 135.03125 C 149.179688 134.730469 149.535156 134.308594 149.746094 133.820312 Z M 172.425781 149.027344 L 158.820312 151.9375 L 155.105469 145.71875 L 158.078125 136.839844 L 174.480469 142.785156 Z M 172.636719 148.980469 L 174.65625 142.847656 L 184.542969 146.433594 Z M 199.328125 151.792969 L 198.207031 153.949219 L 169.003906 163.328125 C 168.835938 162.910156 168.578125 162.554688 168.257812 162.273438 L 172.296875 150.003906 L 186.191406 147.03125 Z M 200 150.496094 L 199.414062 151.625 L 186.535156 146.957031 L 197.722656 144.5625 Z M 199.519531 143.226562 L 197.570312 143.644531 L 187.679688 117.84375 L 201.527344 138.800781 C 200.101562 139.769531 199.300781 141.476562 199.519531 143.226562 Z M 203.945312 150.953125 C 203.253906 150.269531 202.222656 149.964844 201.21875 150.25 C 201.199219 150.253906 201.183594 150.261719 201.164062 150.269531 L 202.804688 147.105469 C 203.625 147.351562 204.519531 147.375 205.402344 147.125 C 205.808594 147.011719 206.183594 146.84375 206.527344 146.640625 L 207.292969 147.859375 C 205.980469 149.074219 204.832031 150.132812 203.945312 150.953125 Z M 212.804688 156.632812 C 210.019531 155.667969 207.269531 154.691406 204.660156 153.699219 C 204.796875 153.21875 204.8125 152.691406 204.664062 152.171875 C 204.546875 151.757812 204.339844 151.390625 204.070312 151.089844 C 205.117188 150.125 206.234375 149.089844 207.394531 148.019531 Z M 207.988281 147.21875 L 207.273438 146.082031 C 208.007812 145.410156 208.507812 144.519531 208.699219 143.542969 L 211.617188 143.871094 C 210.34375 145.046875 209.113281 146.179688 207.988281 147.21875 Z M 234.949219 164.300781 C 230.191406 162.507812 225.003906 160.757812 219.957031 159.058594 C 218.046875 158.417969 216.121094 157.769531 214.207031 157.113281 L 208.089844 147.378906 C 209.316406 146.246094 210.585938 145.074219 211.863281 143.898438 L 232.941406 146.269531 L 236.839844 162.769531 C 236.796875 162.777344 236.753906 162.785156 236.714844 162.796875 C 235.902344 163.027344 235.277344 163.59375 234.949219 164.300781 Z M 224.433594 173.382812 L 235.226562 167.128906 C 235.601562 167.636719 236.132812 168 236.734375 168.167969 C 234.691406 173.179688 232.648438 178.195312 230.605469 183.207031 Z M 197.410156 189.421875 C 198.089844 189.957031 199.003906 190.171875 199.898438 189.917969 C 200.003906 189.890625 200.105469 189.851562 200.203125 189.8125 L 200.917969 191.164062 L 196.671875 190.015625 Z M 185.898438 187.09375 C 185.875 186.777344 185.820312 186.460938 185.730469 186.140625 C 185.421875 185.058594 184.757812 184.175781 183.894531 183.582031 L 186.496094 178.570312 L 196.808594 185.707031 C 196.382812 186.359375 196.226562 187.1875 196.457031 187.996094 C 196.605469 188.515625 196.890625 188.960938 197.265625 189.296875 L 196.453125 189.957031 Z M 183.113281 191.671875 C 184.625 191.015625 185.644531 189.621094 185.863281 188.046875 L 195.558594 190.675781 L 184.78125 199.359375 Z M 165.652344 161.679688 C 165.359375 161.761719 165.09375 161.890625 164.855469 162.050781 L 159.320312 152.78125 L 172.085938 150.050781 L 168.101562 162.148438 C 167.425781 161.636719 166.53125 161.429688 165.652344 161.679688 Z M 200.113281 150.273438 L 197.910156 144.523438 L 199.730469 144.136719 C 200.117188 145.296875 200.929688 146.207031 201.941406 146.75 Z M 201.769531 155.710938 L 199.585938 184.484375 C 199.195312 184.421875 198.785156 184.4375 198.378906 184.550781 C 197.769531 184.722656 197.269531 185.085938 196.914062 185.558594 L 186.582031 178.402344 L 199.332031 153.800781 C 199.691406 154.898438 200.671875 155.628906 201.769531 155.710938 Z M 223.527344 173.691406 L 201.765625 186.304688 C 201.441406 185.382812 200.671875 184.730469 199.773438 184.519531 L 201.957031 155.722656 C 202.214844 155.722656 202.480469 155.691406 202.742188 155.617188 C 203.640625 155.363281 204.308594 154.695312 204.601562 153.878906 C 207.28125 154.894531 210.101562 155.894531 212.964844 156.882812 Z M 235.121094 166.972656 L 224.335938 173.226562 L 214.363281 157.363281 C 216.207031 157.992188 218.0625 158.617188 219.894531 159.234375 C 224.941406 160.933594 230.125 162.683594 234.875 164.472656 C 234.664062 165.019531 234.617188 165.632812 234.789062 166.242188 C 234.863281 166.507812 234.980469 166.75 235.121094 166.972656 Z M 169.0625 163.503906 L 198.085938 154.183594 L 185.808594 177.867188 L 168.667969 166 C 169.152344 165.332031 169.339844 164.460938 169.097656 163.601562 C 169.085938 163.570312 169.074219 163.535156 169.0625 163.503906 Z M 166.214844 169.957031 L 166.214844 167.144531 C 166.527344 167.167969 166.851562 167.140625 167.171875 167.046875 C 167.734375 166.886719 168.207031 166.566406 168.554688 166.148438 L 185.722656 178.035156 L 183.082031 183.132812 C 182.136719 182.730469 181.054688 182.636719 179.988281 182.9375 C 179.320312 183.128906 178.726562 183.453125 178.230469 183.878906 Z M 177.585938 184.558594 C 176.722656 185.671875 176.375 187.164062 176.773438 188.625 L 166.21875 193.222656 L 166.214844 171.382812 Z M 164.183594 166.039062 C 164.628906 166.632812 165.296875 167.023438 166.027344 167.125 L 166.027344 169.742188 L 163.40625 166.707031 Z M 164.074219 165.886719 L 163.285156 166.566406 L 161.554688 164.558594 L 163.628906 164.527344 C 163.640625 164.726562 163.671875 164.925781 163.730469 165.125 C 163.808594 165.402344 163.925781 165.65625 164.074219 165.886719 Z M 201.160156 191.230469 L 200.371094 189.734375 C 201.554688 189.15625 202.191406 187.800781 201.824219 186.484375 L 223.628906 173.851562 L 230.175781 184.265625 C 228.359375 188.71875 226.546875 193.167969 224.730469 197.621094 Z M 238.042969 204.234375 L 217.886719 217.792969 C 217.652344 217.464844 217.359375 217.191406 217.039062 216.988281 C 219.546875 210.839844 222.050781 204.6875 224.558594 198.539062 L 237.75 202.113281 C 237.699219 202.671875 237.742188 203.25 237.90625 203.824219 C 237.945312 203.964844 237.992188 204.097656 238.042969 204.234375 Z M 149.40625 131.007812 L 161.304688 124.273438 L 157.265625 136.347656 L 149.8125 133.644531 C 150.003906 133.113281 150.039062 132.523438 149.875 131.941406 C 149.777344 131.59375 149.613281 131.28125 149.40625 131.007812 Z M 148.117188 150.359375 C 146.890625 151.292969 146.1875 152.792969 146.289062 154.359375 L 124.226562 162.75 C 124.171875 162.6875 124.113281 162.625 124.054688 162.566406 L 140.394531 140.996094 Z M 145.074219 134.511719 L 140.847656 140.085938 L 136.875 135.269531 L 144.457031 133.246094 C 144.472656 133.316406 144.488281 133.390625 144.507812 133.460938 C 144.621094 133.863281 144.820312 134.214844 145.074219 134.511719 Z M 187.589844 216.710938 L 187.597656 216.742188 L 168.707031 215.046875 C 168.707031 215.019531 168.703125 214.988281 168.699219 214.957031 Z M 168.675781 214.769531 C 168.660156 214.671875 168.636719 214.570312 168.609375 214.46875 C 168.46875 213.980469 168.207031 213.558594 167.863281 213.230469 L 184.015625 200.214844 L 187.546875 216.519531 Z M 216.0625 222.484375 L 216.210938 223.550781 L 197.4375 239.074219 C 197.414062 239.046875 197.386719 239.019531 197.359375 238.996094 L 213.867188 221.273438 C 214.402344 222.027344 215.21875 222.484375 216.0625 222.484375 Z M 213.277344 218.910156 L 188.519531 216.609375 L 184.824219 199.5625 L 195.777344 190.738281 L 201.511719 192.289062 L 214.515625 216.917969 C 213.835938 217.324219 213.390625 218.0625 213.277344 218.910156 Z M 243.058594 197.957031 C 242.425781 197.863281 241.765625 197.898438 241.113281 198.082031 C 240.785156 198.175781 240.476562 198.300781 240.191406 198.453125 L 230.726562 183.398438 C 232.792969 178.335938 234.855469 173.273438 236.917969 168.210938 C 237.339844 168.296875 237.789062 168.289062 238.234375 168.164062 C 238.578125 168.066406 238.882812 167.90625 239.152344 167.707031 L 249.398438 180.878906 Z M 250.019531 196.402344 L 245.816406 199.425781 C 245.78125 199.382812 245.742188 199.34375 245.703125 199.304688 Z M 254.9375 192.863281 L 254.855469 192.925781 L 245.566406 199.171875 C 245.105469 198.738281 244.558594 198.402344 243.964844 198.1875 L 250.070312 181.742188 L 255.980469 189.347656 C 254.964844 189.992188 254.445312 191.246094 254.789062 192.464844 C 254.828125 192.605469 254.882812 192.734375 254.9375 192.863281 Z M 248.558594 152.972656 L 239.40625 163.472656 C 238.789062 162.875 237.910156 162.582031 237.019531 162.730469 L 233.136719 146.292969 L 247.976562 147.964844 L 248.625 148.609375 C 247.75 149.285156 247.324219 150.449219 247.644531 151.578125 C 247.804688 152.148438 248.132812 152.625 248.558594 152.972656 Z M 251.734375 148.386719 L 251.726562 148.40625 C 251.710938 148.398438 251.695312 148.386719 251.683594 148.378906 Z M 231.710938 128.1875 L 251.230469 127.277344 L 255.609375 135.136719 L 252 147.480469 L 247.21875 146.941406 L 231.167969 130.902344 C 231.765625 130.214844 232.019531 129.246094 231.753906 128.304688 C 231.742188 128.265625 231.726562 128.226562 231.710938 128.1875 Z M 182.578125 110.148438 C 182.203125 110.75 182.0625 111.484375 182.222656 112.21875 L 162.601562 123.324219 L 168.324219 106.242188 Z M 171 98.238281 L 171.097656 97.949219 C 171.796875 98.085938 172.535156 98.066406 173.265625 97.863281 C 173.601562 97.765625 173.917969 97.632812 174.214844 97.476562 L 174.535156 97.960938 Z M 174.652344 98.136719 L 182.4375 109.917969 L 168.382812 106.066406 L 170.9375 98.429688 Z M 146.226562 104.894531 L 146.164062 102.476562 C 146.472656 102.496094 146.789062 102.46875 147.101562 102.378906 C 147.898438 102.152344 148.515625 101.601562 148.847656 100.90625 L 152.625 101.941406 Z M 154.015625 102.324219 L 167.425781 105.996094 L 161.394531 124.011719 L 149.289062 130.863281 C 148.695312 130.1875 147.796875 129.828125 146.875 129.933594 L 146.253906 105.910156 Z M 122.339844 122.761719 L 122.339844 122.328125 C 122.480469 122.300781 122.625 122.269531 122.765625 122.230469 C 122.820312 122.214844 122.875 122.195312 122.929688 122.179688 Z M 123.359375 122.015625 C 123.695312 121.871094 124.003906 121.6875 124.289062 121.476562 L 135.757812 135.375 L 122.3125 138.964844 L 122.335938 123.023438 Z M 154.976562 245.140625 L 161.550781 227.132812 L 189.617188 241.175781 C 189.515625 241.574219 189.464844 241.984375 189.472656 242.40625 L 156.441406 247.175781 C 156.433594 247.125 156.421875 247.078125 156.410156 247.03125 C 156.167969 246.183594 155.632812 245.519531 154.976562 245.140625 Z M 222.894531 271.824219 L 222.996094 272.558594 C 222.933594 272.574219 222.867188 272.585938 222.800781 272.605469 C 222.40625 272.71875 222.050781 272.914062 221.757812 273.164062 L 221.15625 272.476562 Z M 220.507812 271.730469 L 197.621094 245.390625 C 197.847656 245.132812 198.042969 244.851562 198.203125 244.550781 L 220.464844 254.277344 L 222.765625 270.878906 Z M 256.375 124.976562 C 255.789062 125.449219 255.410156 126.144531 255.339844 126.898438 L 252.164062 127.046875 L 243.464844 111.441406 C 243.527344 111.394531 243.585938 111.34375 243.644531 111.292969 Z M 244.992188 109.367188 L 257.117188 124.550781 C 256.902344 124.632812 256.707031 124.738281 256.523438 124.867188 L 243.78125 111.171875 C 244.324219 110.671875 244.734375 110.050781 244.992188 109.367188 Z M 209.335938 98.265625 C 209.675781 98.167969 209.980469 98.011719 210.25 97.8125 L 212.542969 101.601562 L 202.273438 99.414062 L 206.113281 96.894531 C 206.714844 98.03125 208.046875 98.632812 209.335938 98.265625 Z M 125.546875 115.472656 L 133.363281 111.863281 L 125.90625 119.234375 C 126.195312 118.378906 126.238281 117.425781 125.972656 116.488281 C 125.871094 116.125 125.726562 115.785156 125.546875 115.472656 Z M 92.636719 202.523438 L 104.382812 187.816406 L 114.5625 197.378906 L 93.375 203.941406 C 93.363281 203.863281 93.34375 203.789062 93.324219 203.710938 C 93.191406 203.246094 92.953125 202.84375 92.636719 202.523438 Z M 169.558594 280.035156 L 161.847656 263.648438 L 190.078125 244.625 C 190.601562 245.550781 191.421875 246.25 192.375 246.636719 L 190.683594 279.652344 C 190.597656 279.671875 190.511719 279.695312 190.425781 279.71875 L 172.921875 282.117188 C 172.910156 282.074219 172.902344 282.027344 172.890625 281.980469 C 172.480469 280.539062 171.003906 279.6875 169.558594 280.035156 Z M 258.414062 241.777344 L 243.15625 239.261719 L 243.074219 235.035156 L 261.589844 225.507812 L 262.746094 235.757812 Z M 262.765625 239.6875 C 261.695312 239.992188 261.003906 241.015625 260.949219 242.191406 L 259.4375 241.945312 L 262.902344 237.136719 L 263.179688 239.613281 C 263.042969 239.625 262.902344 239.648438 262.765625 239.6875 Z M 272.769531 216.304688 L 260.082031 210.464844 L 258.265625 194.375 C 258.453125 194.320312 258.632812 194.246094 258.796875 194.15625 L 273.796875 214.875 C 273.363281 215.285156 273.015625 215.769531 272.769531 216.304688 Z M 276.617188 137.179688 C 276.195312 135.699219 274.652344 134.835938 273.171875 135.257812 C 272.902344 135.335938 272.648438 135.449219 272.425781 135.59375 L 245.175781 108.71875 C 245.332031 108.003906 245.320312 107.242188 245.105469 106.488281 C 244.402344 104.019531 241.835938 102.582031 239.363281 103.285156 C 238.066406 103.652344 237.058594 104.535156 236.492188 105.652344 L 211.269531 96.292969 C 211.390625 95.824219 211.398438 95.320312 211.257812 94.820312 C 210.835938 93.339844 209.296875 92.480469 207.8125 92.898438 C 206.847656 93.171875 206.144531 93.925781 205.890625 94.824219 L 176.648438 93.25 C 176.636719 92.875 176.578125 92.496094 176.472656 92.121094 C 175.773438 89.648438 173.203125 88.214844 170.730469 88.914062 C 168.46875 89.558594 167.074219 91.769531 167.394531 94.035156 L 148.710938 98.230469 C 148.070312 97.195312 146.804688 96.664062 145.578125 97.011719 C 144.109375 97.429688 143.253906 98.945312 143.648438 100.417969 L 124.398438 114.125 C 123.265625 113.222656 121.730469 112.859375 120.230469 113.285156 C 117.761719 113.984375 116.328125 116.554688 117.027344 119.023438 C 117.175781 119.554688 117.414062 120.035156 117.71875 120.457031 L 100.703125 142.105469 C 100.167969 141.839844 99.558594 141.757812 98.972656 141.925781 C 97.585938 142.316406 96.828125 143.917969 97.277344 145.5 C 97.476562 146.199219 97.878906 146.777344 98.386719 147.171875 L 91.996094 171.925781 C 91.570312 171.925781 91.140625 171.980469 90.710938 172.101562 C 88.238281 172.800781 86.804688 175.371094 87.503906 177.84375 C 87.96875 179.476562 89.25 180.660156 90.78125 181.066406 L 90.261719 201.710938 C 90.132812 201.730469 90.007812 201.75 89.878906 201.789062 C 88.398438 202.207031 87.535156 203.75 87.957031 205.234375 C 88.359375 206.652344 89.792969 207.5 91.214844 207.199219 L 104.039062 234.277344 C 101.921875 235.1875 100.757812 237.542969 101.402344 239.816406 C 102.101562 242.285156 104.671875 243.722656 107.140625 243.023438 C 107.851562 242.820312 108.476562 242.464844 108.988281 242.003906 L 114.238281 246.710938 L 117.976562 253.300781 C 117.15625 253.980469 116.78125 255.207031 117.128906 256.425781 C 117.578125 258.007812 119.0625 258.972656 120.445312 258.578125 C 121.699219 258.222656 122.433594 256.878906 122.230469 255.453125 L 123.605469 255.109375 L 141.929688 271.539062 C 140.847656 272.6875 140.382812 274.363281 140.84375 275.992188 C 141.546875 278.460938 144.113281 279.894531 146.585938 279.195312 C 147.957031 278.808594 149.007812 277.84375 149.550781 276.636719 L 167.515625 282.019531 C 167.386719 282.492188 167.378906 283 167.523438 283.503906 C 167.941406 284.984375 169.484375 285.847656 170.96875 285.425781 C 172.054688 285.121094 172.804688 284.207031 172.960938 283.160156 L 187.039062 284.308594 C 187.050781 284.691406 187.105469 285.074219 187.214844 285.460938 C 187.914062 287.929688 190.484375 289.367188 192.953125 288.664062 C 195.402344 287.972656 196.832031 285.4375 196.175781 282.988281 L 220.949219 276.253906 C 221.449219 277.609375 222.914062 278.371094 224.324219 277.972656 C 225.804688 277.550781 226.667969 276.007812 226.246094 274.527344 C 226.199219 274.359375 226.136719 274.203125 226.0625 274.050781 L 239.300781 266.453125 C 240.398438 268.046875 242.425781 268.84375 244.390625 268.285156 C 246.859375 267.582031 248.296875 265.011719 247.59375 262.542969 C 247.40625 261.871094 247.078125 261.277344 246.648438 260.78125 L 262.257812 244.988281 C 262.878906 245.441406 263.648438 245.621094 264.386719 245.414062 C 265.769531 245.019531 266.527344 243.417969 266.082031 241.839844 C 265.929688 241.304688 265.660156 240.84375 265.316406 240.480469 L 274.6875 222.296875 C 275.730469 222.894531 277.007812 223.085938 278.253906 222.730469 C 280.722656 222.03125 282.160156 219.460938 281.457031 216.992188 C 281.066406 215.609375 280.089844 214.554688 278.871094 214.011719 L 280.847656 195.859375 C 281.480469 195.167969 281.753906 194.175781 281.480469 193.210938 C 281.414062 192.976562 281.320312 192.761719 281.207031 192.5625 L 282.925781 176.738281 C 284.230469 176.210938 284.953125 174.777344 284.5625 173.394531 C 284.25 172.292969 283.316406 171.539062 282.253906 171.390625 L 275.09375 140.472656 C 276.324219 139.910156 276.996094 138.523438 276.617188 137.179688 " fill-opacity="1" fill-rule="nonzero"/></g><g clip-path="url(#3cd6ac5507)"><g clip-path="url(#8c51afdf1f)"><path fill="#fdfbee" d="M 118.230469 119.214844 L 258 119.214844 L 258 255.785156 L 118.230469 255.785156 Z M 118.230469 119.214844 " fill-opacity="1" fill-rule="nonzero"/></g></g><path fill="#57b4ba" d="M 80.765625 147.269531 C 77.773438 144.277344 72.90625 144.277344 69.914062 147.269531 L 66.238281 150.941406 C 65.691406 151.492188 65.691406 152.382812 66.238281 152.929688 C 66.789062 153.480469 67.679688 153.480469 68.226562 152.929688 L 71.902344 149.257812 C 76.585938 144.855469 83.1875 151.457031 78.777344 156.132812 C 78.777344 156.132812 74.484375 160.425781 74.484375 160.425781 C 72.308594 162.660156 68.429688 162.175781 66.871094 159.476562 C 66.476562 158.808594 65.613281 158.589844 64.945312 158.984375 C 63.476562 159.914062 64.730469 161.558594 65.621094 162.414062 C 67.117188 163.910156 69.078125 164.65625 71.042969 164.65625 C 73.011719 164.65625 74.972656 163.910156 76.46875 162.414062 L 80.765625 158.121094 C 83.742188 155.261719 83.742188 150.125 80.765625 147.269531 Z M 80.765625 147.269531 " fill-opacity="1" fill-rule="nonzero"/><g clip-path="url(#6d500fbe93)"><path fill="#57b4ba" d="M 68.753906 166.15625 L 65.078125 169.828125 C 60.429688 174.242188 53.792969 167.605469 58.207031 162.953125 C 58.203125 162.953125 62.5 158.660156 62.5 158.660156 C 64.667969 156.429688 68.542969 156.90625 70.101562 159.597656 C 70.496094 160.265625 71.359375 160.488281 72.027344 160.089844 C 73.492188 159.167969 72.25 157.519531 71.363281 156.671875 C 68.371094 153.679688 63.503906 153.679688 60.511719 156.671875 C 60.511719 156.671875 56.21875 160.964844 56.21875 160.964844 C 51.382812 165.734375 54.929688 174.136719 61.644531 174.058594 C 63.605469 174.058594 65.570312 173.3125 67.066406 171.816406 L 70.742188 168.140625 C 72.023438 166.8125 70.082031 164.871094 68.753906 166.15625 Z M 68.753906 166.15625 " fill-opacity="1" fill-rule="nonzero"/></g><g clip-path="url(#de52afce4d)"><path fill="#57b4ba" d="M 312.640625 152.285156 C 312.640625 150.175781 310.921875 148.457031 308.808594 148.457031 C 306.699219 148.457031 304.980469 150.175781 304.980469 152.285156 C 304.980469 154.398438 306.699219 156.117188 308.808594 156.117188 C 310.921875 156.117188 312.640625 154.398438 312.640625 152.285156 Z M 300.703125 174.066406 L 316.828125 174.066406 C 317.308594 174.066406 317.742188 173.84375 318.023438 173.457031 C 318.300781 173.070312 318.375 172.585938 318.21875 172.132812 L 314.527344 161.253906 C 314.328125 160.65625 313.769531 160.257812 313.140625 160.257812 L 312.1875 160.257812 L 314.757812 157.042969 C 314.757812 157.042969 314.78125 157.007812 314.796875 156.988281 C 315.867188 155.632812 316.429688 154.007812 316.429688 152.28125 C 316.429688 150.121094 315.503906 148.054688 313.898438 146.609375 C 312.265625 145.140625 310.15625 144.46875 307.960938 144.707031 C 304.464844 145.089844 301.640625 147.902344 301.246094 151.398438 C 301.015625 153.414062 301.578125 155.398438 302.828125 156.984375 C 302.839844 157.003906 302.851562 157.015625 302.867188 157.035156 L 305.4375 160.253906 L 304.398438 160.253906 C 303.765625 160.253906 303.210938 160.652344 303.007812 161.25 L 299.320312 172.128906 C 299.167969 172.582031 299.238281 173.0625 299.515625 173.453125 C 299.789062 173.832031 300.234375 174.0625 300.703125 174.0625 Z M 303.664062 156.484375 C 303.664062 156.484375 303.640625 156.449219 303.625 156.429688 C 302.511719 155.042969 302.007812 153.292969 302.207031 151.507812 C 302.550781 148.464844 305.011719 146.011719 308.058594 145.679688 C 309.976562 145.46875 311.816406 146.054688 313.238281 147.335938 C 314.640625 148.597656 315.445312 150.394531 315.445312 152.28125 C 315.445312 153.804688 314.945312 155.238281 313.984375 156.429688 C 313.972656 156.445312 313.960938 156.464844 313.953125 156.484375 L 309.1875 162.441406 C 309.09375 162.558594 308.953125 162.628906 308.804688 162.628906 C 308.660156 162.628906 308.515625 162.558594 308.425781 162.441406 L 303.660156 156.484375 Z M 300.238281 172.445312 L 303.929688 161.5625 C 303.992188 161.367188 304.183594 161.230469 304.386719 161.230469 L 306.210938 161.230469 L 307.660156 163.042969 C 307.941406 163.394531 308.359375 163.59375 308.804688 163.59375 C 309.253906 163.59375 309.671875 163.394531 309.949219 163.042969 L 311.402344 161.230469 L 313.136719 161.230469 C 313.34375 161.230469 313.53125 161.363281 313.59375 161.5625 L 317.285156 172.441406 C 317.339844 172.59375 317.3125 172.753906 317.222656 172.878906 C 317.128906 173.007812 316.988281 173.082031 316.824219 173.082031 L 300.703125 173.082031 C 300.546875 173.082031 300.398438 173.007812 300.308594 172.875 C 300.214844 172.75 300.191406 172.585938 300.242188 172.4375 Z M 298.96875 152.148438 C 298.96875 153.25 299.511719 154.269531 300.417969 154.886719 C 300.644531 155.039062 300.703125 155.339844 300.550781 155.566406 C 300.457031 155.707031 300.300781 155.78125 300.144531 155.78125 C 300.054688 155.78125 299.953125 155.75 299.871094 155.699219 C 298.695312 154.902344 297.996094 153.578125 297.996094 152.15625 C 297.996094 150.734375 298.738281 149.339844 299.976562 148.546875 C 300.203125 148.402344 300.503906 148.46875 300.648438 148.699219 C 300.796875 148.929688 300.726562 149.226562 300.496094 149.375 C 299.539062 149.984375 298.96875 151.019531 298.96875 152.15625 Z M 295.453125 152.148438 C 295.453125 149.808594 296.632812 147.664062 298.609375 146.40625 C 298.835938 146.261719 299.140625 146.328125 299.285156 146.558594 C 299.433594 146.789062 299.363281 147.085938 299.132812 147.234375 C 297.441406 148.308594 296.429688 150.144531 296.429688 152.15625 C 296.429688 154.164062 297.390625 155.898438 298.992188 156.988281 C 299.21875 157.140625 299.277344 157.441406 299.125 157.667969 C 299.03125 157.808594 298.875 157.882812 298.71875 157.882812 C 298.625 157.882812 298.527344 157.851562 298.445312 157.800781 C 296.574219 156.527344 295.453125 154.421875 295.453125 152.160156 Z M 318.019531 155.691406 C 317.933594 155.75 317.835938 155.777344 317.742188 155.777344 C 317.585938 155.777344 317.429688 155.703125 317.339844 155.5625 C 317.1875 155.335938 317.246094 155.03125 317.46875 154.882812 C 318.378906 154.265625 318.921875 153.246094 318.921875 152.144531 C 318.921875 151.046875 318.351562 149.96875 317.390625 149.363281 C 317.164062 149.21875 317.097656 148.914062 317.242188 148.691406 C 317.382812 148.464844 317.683594 148.394531 317.914062 148.539062 C 319.15625 149.328125 319.894531 150.671875 319.894531 152.144531 C 319.894531 153.617188 319.191406 154.890625 318.019531 155.6875 Z M 318.761719 157.664062 C 318.609375 157.4375 318.667969 157.132812 318.890625 156.984375 C 320.496094 155.898438 321.453125 154.089844 321.453125 152.148438 C 321.453125 150.210938 320.441406 148.304688 318.75 147.226562 C 318.519531 147.082031 318.457031 146.785156 318.597656 146.554688 C 318.746094 146.324219 319.046875 146.261719 319.273438 146.402344 C 321.246094 147.660156 322.429688 149.804688 322.429688 152.144531 C 322.429688 154.484375 321.3125 156.519531 319.441406 157.785156 C 319.355469 157.84375 319.257812 157.867188 319.167969 157.867188 C 319.007812 157.867188 318.851562 157.792969 318.761719 157.652344 Z M 304.109375 170.652344 C 304.109375 170.382812 304.328125 170.164062 304.597656 170.164062 L 313.082031 170.164062 C 313.351562 170.164062 313.570312 170.382812 313.570312 170.652344 C 313.570312 170.921875 313.351562 171.140625 313.082031 171.140625 L 304.601562 171.140625 C 304.332031 171.140625 304.113281 170.921875 304.113281 170.652344 Z M 304.109375 170.652344 " fill-opacity="1" fill-rule="nonzero"/></g><g fill="#fdfbee" fill-opacity="1"><g transform="translate(58.694399, 188.782982)"><g><path d="M 0.140625 7.5 C 0.078125 6.15625 0.316406 4.976562 0.859375 3.96875 C 1.410156 2.96875 2.207031 2.164062 3.25 1.5625 C 4.289062 0.96875 5.515625 0.640625 6.921875 0.578125 C 8.328125 0.503906 9.578125 0.707031 10.671875 1.1875 C 11.765625 1.675781 12.640625 2.390625 13.296875 3.328125 C 13.953125 4.273438 14.3125 5.421875 14.375 6.765625 C 14.457031 8.335938 14.144531 9.640625 13.4375 10.671875 C 12.738281 11.710938 11.71875 12.398438 10.375 12.734375 L 10.28125 10.90625 C 11.125 10.65625 11.789062 10.191406 12.28125 9.515625 C 12.769531 8.835938 12.984375 7.945312 12.921875 6.84375 C 12.878906 5.863281 12.609375 5.019531 12.109375 4.3125 C 11.617188 3.601562 10.941406 3.070312 10.078125 2.71875 C 9.210938 2.363281 8.191406 2.21875 7.015625 2.28125 C 5.847656 2.332031 4.847656 2.578125 4.015625 3.015625 C 3.179688 3.460938 2.554688 4.0625 2.140625 4.8125 C 1.734375 5.570312 1.550781 6.441406 1.59375 7.421875 C 1.65625 8.523438 1.953125 9.390625 2.484375 10.015625 C 3.023438 10.640625 3.722656 11.035156 4.578125 11.203125 L 4.671875 13.03125 C 3.335938 12.820312 2.269531 12.238281 1.46875 11.28125 C 0.664062 10.332031 0.222656 9.070312 0.140625 7.5 Z M 0.140625 7.5 "/></g></g></g><g fill="#fdfbee" fill-opacity="1"><g transform="translate(60.289044, 209.773206)"><g><path d="M 1.4375 7.578125 C 1.144531 6.253906 1.179688 5.03125 1.546875 3.90625 C 1.921875 2.789062 2.566406 1.835938 3.484375 1.046875 C 4.410156 0.253906 5.554688 -0.289062 6.921875 -0.59375 C 8.296875 -0.894531 9.566406 -0.882812 10.734375 -0.5625 C 11.898438 -0.238281 12.890625 0.347656 13.703125 1.203125 C 14.515625 2.066406 15.066406 3.160156 15.359375 4.484375 C 15.660156 5.816406 15.625 7.039062 15.25 8.15625 C 14.875 9.28125 14.226562 10.238281 13.3125 11.03125 C 12.394531 11.820312 11.25 12.367188 9.875 12.671875 C 8.507812 12.972656 7.238281 12.960938 6.0625 12.640625 C 4.894531 12.316406 3.90625 11.722656 3.09375 10.859375 C 2.289062 10.003906 1.738281 8.910156 1.4375 7.578125 Z M 2.859375 7.265625 C 3.085938 8.253906 3.503906 9.070312 4.109375 9.71875 C 4.722656 10.363281 5.488281 10.800781 6.40625 11.03125 C 7.320312 11.269531 8.351562 11.257812 9.5 11 C 10.65625 10.738281 11.597656 10.304688 12.328125 9.703125 C 13.066406 9.109375 13.570312 8.390625 13.84375 7.546875 C 14.125 6.703125 14.148438 5.785156 13.921875 4.796875 C 13.703125 3.804688 13.285156 2.984375 12.671875 2.328125 C 12.066406 1.679688 11.304688 1.242188 10.390625 1.015625 C 9.484375 0.785156 8.453125 0.800781 7.296875 1.0625 C 6.148438 1.320312 5.207031 1.75 4.46875 2.34375 C 3.726562 2.9375 3.21875 3.65625 2.9375 4.5 C 2.664062 5.351562 2.640625 6.273438 2.859375 7.265625 Z M 2.859375 7.265625 "/></g></g></g><g fill="#fdfbee" fill-opacity="1"><g transform="translate(65.767827, 231.375531)"><g><path d="M 0.546875 1.34375 L 13.3125 -3.828125 L 13.9375 -2.296875 L 6.453125 8.65625 L 16.6875 4.515625 L 17.3125 6.046875 L 4.546875 11.21875 L 3.921875 9.6875 L 11.40625 -1.28125 L 1.171875 2.875 Z M 0.546875 1.34375 "/></g></g></g><g fill="#fdfbee" fill-opacity="1"><g transform="translate(73.922627, 250.04877)"><g><path d="M 0.75 1.25 L 12.546875 -5.875 L 13.40625 -4.46875 L 7.75 7.53125 L 17.203125 1.828125 L 18.0625 3.234375 L 6.265625 10.359375 L 5.40625 8.953125 L 11.0625 -3.0625 L 1.609375 2.65625 Z M 0.75 1.25 "/></g></g></g><g fill="#fdfbee" fill-opacity="1"><g transform="translate(84.930588, 267.120831)"><g><path d="M 0.921875 1.125 L 11.53125 -7.671875 L 16.984375 -1.109375 L 15.9375 -0.234375 L 11.546875 -5.53125 L 7.859375 -2.46875 L 11.859375 2.375 L 10.828125 3.21875 L 6.828125 -1.625 L 3.03125 1.515625 L 7.421875 6.8125 L 6.375 7.6875 Z M 0.921875 1.125 "/></g></g></g><g fill="#fdfbee" fill-opacity="1"><g transform="translate(96.639039, 280.629242)"><g><path d="M 5.4375 5.15625 C 4.425781 4.257812 3.757812 3.257812 3.4375 2.15625 C 3.113281 1.0625 3.101562 -0.0625 3.40625 -1.21875 C 3.707031 -2.375 4.328125 -3.476562 5.265625 -4.53125 C 6.203125 -5.582031 7.226562 -6.328125 8.34375 -6.765625 C 9.46875 -7.203125 10.59375 -7.320312 11.71875 -7.125 C 12.84375 -6.925781 13.910156 -6.378906 14.921875 -5.484375 C 16.097656 -4.429688 16.804688 -3.289062 17.046875 -2.0625 C 17.285156 -0.832031 17.054688 0.375 16.359375 1.5625 L 15 0.34375 C 15.40625 -0.4375 15.535156 -1.234375 15.390625 -2.046875 C 15.253906 -2.867188 14.773438 -3.648438 13.953125 -4.390625 C 13.222656 -5.035156 12.429688 -5.4375 11.578125 -5.59375 C 10.722656 -5.75 9.863281 -5.640625 9 -5.265625 C 8.144531 -4.898438 7.320312 -4.273438 6.53125 -3.390625 C 5.75 -2.515625 5.222656 -1.628906 4.953125 -0.734375 C 4.691406 0.160156 4.6875 1.023438 4.9375 1.859375 C 5.1875 2.691406 5.675781 3.429688 6.40625 4.078125 C 7.226562 4.816406 8.050781 5.210938 8.875 5.265625 C 9.695312 5.316406 10.46875 5.097656 11.1875 4.609375 L 12.546875 5.828125 C 11.472656 6.640625 10.3125 6.992188 9.0625 6.890625 C 7.820312 6.785156 6.613281 6.207031 5.4375 5.15625 Z M 5.4375 5.15625 "/></g></g></g><g fill="#fdfbee" fill-opacity="1"><g transform="translate(112.677682, 294.082199)"><g><path d="M 3.921875 2.5625 L 10.703125 -7.84375 L 7.265625 -10.09375 L 8 -11.234375 L 16.28125 -5.84375 L 15.546875 -4.703125 L 12.09375 -6.9375 L 5.3125 3.46875 Z M 3.921875 2.5625 "/></g></g></g><g fill="#fdfbee" fill-opacity="1"><g transform="translate(127.660124, 303.187407)"><g><path d="M -1.015625 2.109375 L 1.96875 -1.265625 L 3.484375 -0.484375 L 0 2.625 Z M -1.015625 2.109375 "/></g></g></g><g fill="#fdfbee" fill-opacity="1"><g transform="translate(136.5728, 307.460483)"><g/></g></g><g fill="#fdfbee" fill-opacity="1"><g transform="translate(147.544728, 311.690531)"><g><path d="M 1.390625 0.390625 L 5.140625 -12.875 L 6.734375 -12.421875 L 3.34375 -0.421875 L 9.53125 1.328125 L 9.171875 2.59375 Z M 1.390625 0.390625 "/></g></g></g><g fill="#fdfbee" fill-opacity="1"><g transform="translate(164.109362, 316.036786)"><g><path d="M 7.625 1.171875 C 6.28125 1.015625 5.140625 0.578125 4.203125 -0.140625 C 3.273438 -0.859375 2.59375 -1.785156 2.15625 -2.921875 C 1.71875 -4.066406 1.585938 -5.335938 1.765625 -6.734375 C 1.929688 -8.128906 2.363281 -9.316406 3.0625 -10.296875 C 3.769531 -11.285156 4.660156 -12.015625 5.734375 -12.484375 C 6.816406 -12.960938 8.03125 -13.125 9.375 -12.96875 C 10.726562 -12.800781 11.875 -12.351562 12.8125 -11.625 C 13.75 -10.90625 14.429688 -9.976562 14.859375 -8.84375 C 15.285156 -7.71875 15.414062 -6.457031 15.25 -5.0625 C 15.070312 -3.664062 14.632812 -2.46875 13.9375 -1.46875 C 13.25 -0.476562 12.363281 0.25 11.28125 0.71875 C 10.195312 1.1875 8.976562 1.335938 7.625 1.171875 Z M 7.8125 -0.265625 C 8.820312 -0.140625 9.726562 -0.253906 10.53125 -0.609375 C 11.34375 -0.972656 12.015625 -1.550781 12.546875 -2.34375 C 13.078125 -3.132812 13.414062 -4.113281 13.5625 -5.28125 C 13.707031 -6.445312 13.617188 -7.472656 13.296875 -8.359375 C 12.972656 -9.253906 12.457031 -9.972656 11.75 -10.515625 C 11.050781 -11.054688 10.195312 -11.390625 9.1875 -11.515625 C 8.1875 -11.628906 7.273438 -11.507812 6.453125 -11.15625 C 5.640625 -10.8125 4.972656 -10.242188 4.453125 -9.453125 C 3.929688 -8.660156 3.597656 -7.679688 3.453125 -6.515625 C 3.304688 -5.347656 3.390625 -4.316406 3.703125 -3.421875 C 4.015625 -2.535156 4.523438 -1.816406 5.234375 -1.265625 C 5.953125 -0.710938 6.8125 -0.378906 7.8125 -0.265625 Z M 7.8125 -0.265625 "/></g></g></g><g fill="#fdfbee" fill-opacity="1"><g transform="translate(186.313954, 318.137634)"><g><path d="M 7.5 -0.109375 C 6.15625 -0.046875 4.976562 -0.289062 3.96875 -0.84375 C 2.96875 -1.394531 2.171875 -2.191406 1.578125 -3.234375 C 0.992188 -4.285156 0.671875 -5.519531 0.609375 -6.9375 C 0.546875 -8.332031 0.757812 -9.570312 1.25 -10.65625 C 1.738281 -11.75 2.457031 -12.617188 3.40625 -13.265625 C 4.351562 -13.921875 5.5 -14.28125 6.84375 -14.34375 C 8.414062 -14.414062 9.71875 -14.097656 10.75 -13.390625 C 11.78125 -12.679688 12.460938 -11.65625 12.796875 -10.3125 L 10.96875 -10.21875 C 10.71875 -11.070312 10.253906 -11.742188 9.578125 -12.234375 C 8.898438 -12.722656 8.007812 -12.941406 6.90625 -12.890625 C 5.9375 -12.847656 5.09375 -12.582031 4.375 -12.09375 C 3.65625 -11.601562 3.117188 -10.925781 2.765625 -10.0625 C 2.410156 -9.195312 2.257812 -8.179688 2.3125 -7.015625 C 2.363281 -5.835938 2.601562 -4.832031 3.03125 -4 C 3.46875 -3.164062 4.066406 -2.539062 4.828125 -2.125 C 5.585938 -1.707031 6.453125 -1.519531 7.421875 -1.5625 C 8.523438 -1.613281 9.390625 -1.90625 10.015625 -2.4375 C 10.648438 -2.976562 11.050781 -3.671875 11.21875 -4.515625 L 13.046875 -4.609375 C 12.835938 -3.273438 12.253906 -2.207031 11.296875 -1.40625 C 10.335938 -0.613281 9.070312 -0.179688 7.5 -0.109375 Z M 7.5 -0.109375 "/></g></g></g><g fill="#fdfbee" fill-opacity="1"><g transform="translate(207.244043, 316.593248)"><g><path d="M 0.578125 -0.125 L 2.75 -14.65625 L 4.46875 -15.015625 L 12.21875 -2.53125 L 10.515625 -2.1875 L 8.546875 -5.390625 L 2.8125 -4.203125 L 2.28125 -0.46875 Z M 3.03125 -5.59375 L 7.8125 -6.59375 L 4.015625 -12.765625 Z M 3.03125 -5.59375 "/></g></g></g><g fill="#fdfbee" fill-opacity="1"><g transform="translate(226.51528, 312.015673)"><g><path d="M 4.40625 -1.609375 L 0.140625 -13.28125 L -3.71875 -11.875 L -4.1875 -13.140625 L 5.078125 -16.53125 L 5.546875 -15.265625 L 1.6875 -13.84375 L 5.953125 -2.171875 Z M 4.40625 -1.609375 "/></g></g></g><g fill="#fdfbee" fill-opacity="1"><g transform="translate(242.99035, 305.499422)"><g><path d="M 1.28125 -0.6875 L -5.1875 -12.859375 L 2.34375 -16.859375 L 2.984375 -15.65625 L -3.078125 -12.421875 L -0.828125 -8.1875 L 4.71875 -11.140625 L 5.34375 -9.953125 L -0.203125 -7 L 2.109375 -2.65625 L 8.171875 -5.890625 L 8.8125 -4.6875 Z M 1.28125 -0.6875 "/></g></g></g><g fill="#fdfbee" fill-opacity="1"><g transform="translate(258.274176, 296.747405)"><g><path d="M 1.34375 1.90625 L -0.140625 -2.34375 L 1.265625 -3.296875 L 2.296875 1.265625 Z M 1.34375 1.90625 "/></g></g></g><g fill="#fdfbee" fill-opacity="1"><g transform="translate(266.321353, 291.007949)"><g/></g></g><g fill="#fdfbee" fill-opacity="1"><g transform="translate(275.370129, 283.446575)"><g><path d="M 1.015625 -1.03125 L -8.828125 -10.671875 L -5.71875 -13.859375 C -4.96875 -14.628906 -4.226562 -15.128906 -3.5 -15.359375 C -2.769531 -15.597656 -2.070312 -15.625 -1.40625 -15.4375 C -0.738281 -15.25 -0.132812 -14.890625 0.40625 -14.359375 C 1.019531 -13.753906 1.414062 -13.039062 1.59375 -12.21875 C 1.769531 -11.40625 1.613281 -10.539062 1.125 -9.625 L 7.46875 -7.640625 L 6.109375 -6.25 L 0.09375 -8.234375 L 0.015625 -8.15625 L -1.890625 -6.203125 L 2.171875 -2.21875 Z M -2.828125 -7.109375 L -0.953125 -9.015625 C -0.210938 -9.773438 0.144531 -10.507812 0.125 -11.21875 C 0.101562 -11.9375 -0.191406 -12.570312 -0.765625 -13.125 C -1.347656 -13.695312 -1.976562 -13.976562 -2.65625 -13.96875 C -3.34375 -13.96875 -4.066406 -13.578125 -4.828125 -12.796875 L -6.6875 -10.890625 Z M -2.828125 -7.109375 "/></g></g></g><g fill="#fdfbee" fill-opacity="1"><g transform="translate(287.866592, 269.965921)"><g><path d="M 0.859375 -1.171875 L -10.25 -9.328125 L -5.203125 -16.203125 L -4.109375 -15.40625 L -8.171875 -9.859375 L -4.296875 -7.015625 L -0.578125 -12.078125 L 0.5 -11.28125 L -3.21875 -6.21875 L 0.75 -3.3125 L 4.8125 -8.859375 L 5.90625 -8.046875 Z M 0.859375 -1.171875 "/></g></g></g><g fill="#fdfbee" fill-opacity="1"><g transform="translate(298.036446, 255.351316)"><g><path d="M 2.96875 -5.03125 C 2.488281 -4.144531 1.914062 -3.457031 1.25 -2.96875 C 0.582031 -2.488281 -0.132812 -2.222656 -0.90625 -2.171875 C -1.6875 -2.117188 -2.460938 -2.300781 -3.234375 -2.71875 L -2.40625 -4.25 C -1.9375 -3.988281 -1.441406 -3.859375 -0.921875 -3.859375 C -0.398438 -3.867188 0.0859375 -4.019531 0.546875 -4.3125 C 1.015625 -4.601562 1.414062 -5.0625 1.75 -5.6875 C 2.195312 -6.507812 2.34375 -7.253906 2.1875 -7.921875 C 2.039062 -8.585938 1.675781 -9.078125 1.09375 -9.390625 C 0.601562 -9.648438 0.15625 -9.753906 -0.25 -9.703125 C -0.65625 -9.660156 -1.046875 -9.507812 -1.421875 -9.25 C -1.796875 -9 -2.175781 -8.679688 -2.5625 -8.296875 C -2.957031 -7.910156 -3.367188 -7.519531 -3.796875 -7.125 C -4.628906 -6.363281 -5.40625 -5.890625 -6.125 -5.703125 C -6.851562 -5.515625 -7.601562 -5.628906 -8.375 -6.046875 C -9.03125 -6.367188 -9.523438 -6.820312 -9.859375 -7.40625 C -10.191406 -7.988281 -10.347656 -8.644531 -10.328125 -9.375 C -10.304688 -10.101562 -10.082031 -10.863281 -9.65625 -11.65625 C -9.238281 -12.414062 -8.726562 -13.003906 -8.125 -13.421875 C -7.53125 -13.847656 -6.890625 -14.078125 -6.203125 -14.109375 C -5.523438 -14.148438 -4.863281 -14.007812 -4.21875 -13.6875 L -5.046875 -12.15625 C -5.378906 -12.332031 -5.753906 -12.421875 -6.171875 -12.421875 C -6.597656 -12.429688 -7.007812 -12.3125 -7.40625 -12.0625 C -7.800781 -11.820312 -8.144531 -11.4375 -8.4375 -10.90625 C -8.800781 -10.257812 -8.921875 -9.628906 -8.796875 -9.015625 C -8.671875 -8.410156 -8.300781 -7.941406 -7.6875 -7.609375 C -7.175781 -7.335938 -6.703125 -7.273438 -6.265625 -7.421875 C -5.828125 -7.566406 -5.375 -7.851562 -4.90625 -8.28125 C -4.445312 -8.707031 -3.914062 -9.210938 -3.3125 -9.796875 C -2.789062 -10.253906 -2.265625 -10.640625 -1.734375 -10.953125 C -1.210938 -11.265625 -0.660156 -11.4375 -0.078125 -11.46875 C 0.503906 -11.5 1.132812 -11.332031 1.8125 -10.96875 C 2.382812 -10.65625 2.847656 -10.203125 3.203125 -9.609375 C 3.554688 -9.023438 3.726562 -8.34375 3.71875 -7.5625 C 3.71875 -6.789062 3.46875 -5.945312 2.96875 -5.03125 Z M 2.96875 -5.03125 "/></g></g></g><g fill="#fdfbee" fill-opacity="1"><g transform="translate(306.289715, 239.178279)"><g><path d="M 2.734375 -6.984375 C 2.273438 -5.710938 1.601562 -4.71875 0.71875 -4 C -0.164062 -3.289062 -1.203125 -2.859375 -2.390625 -2.703125 C -3.578125 -2.546875 -4.835938 -2.707031 -6.171875 -3.1875 C -7.503906 -3.65625 -8.582031 -4.320312 -9.40625 -5.1875 C -10.226562 -6.0625 -10.757812 -7.054688 -11 -8.171875 C -11.25 -9.296875 -11.144531 -10.492188 -10.6875 -11.765625 C -10.15625 -13.242188 -9.363281 -14.320312 -8.3125 -15 C -7.269531 -15.6875 -6.066406 -15.9375 -4.703125 -15.75 L -5.328125 -14.03125 C -6.191406 -14.113281 -6.976562 -13.9375 -7.6875 -13.5 C -8.394531 -13.0625 -8.9375 -12.320312 -9.3125 -11.28125 C -9.632812 -10.363281 -9.707031 -9.476562 -9.53125 -8.625 C -9.351562 -7.78125 -8.929688 -7.023438 -8.265625 -6.359375 C -7.609375 -5.703125 -6.722656 -5.175781 -5.609375 -4.78125 C -4.503906 -4.382812 -3.484375 -4.226562 -2.546875 -4.3125 C -1.609375 -4.40625 -0.800781 -4.722656 -0.125 -5.265625 C 0.550781 -5.816406 1.050781 -6.550781 1.375 -7.46875 C 1.75 -8.507812 1.804688 -9.421875 1.546875 -10.203125 C 1.285156 -10.992188 0.789062 -11.628906 0.0625 -12.109375 L 0.6875 -13.828125 C 1.832031 -13.117188 2.59375 -12.171875 2.96875 -10.984375 C 3.34375 -9.796875 3.265625 -8.460938 2.734375 -6.984375 Z M 2.734375 -6.984375 "/></g></g></g><g fill="#fdfbee" fill-opacity="1"><g transform="translate(312.776248, 219.223683)"><g><path d="M 1.40625 -6.28125 C 1.238281 -5.351562 0.898438 -4.546875 0.390625 -3.859375 C -0.117188 -3.171875 -0.800781 -2.675781 -1.65625 -2.375 C -2.507812 -2.070312 -3.539062 -2.03125 -4.75 -2.25 L -13.296875 -3.84375 L -13 -5.46875 L -4.4375 -3.875 C -3.113281 -3.632812 -2.09375 -3.769531 -1.375 -4.28125 C -0.664062 -4.800781 -0.21875 -5.570312 -0.03125 -6.59375 C 0.15625 -7.601562 0.0078125 -8.472656 -0.46875 -9.203125 C -0.945312 -9.941406 -1.847656 -10.429688 -3.171875 -10.671875 L -11.734375 -12.265625 L -11.421875 -13.890625 L -2.875 -12.296875 C -1.664062 -12.078125 -0.71875 -11.671875 -0.03125 -11.078125 C 0.65625 -10.484375 1.109375 -9.769531 1.328125 -8.9375 C 1.554688 -8.101562 1.582031 -7.21875 1.40625 -6.28125 Z M 1.40625 -6.28125 "/></g></g></g><g fill="#fdfbee" fill-opacity="1"><g transform="translate(315.822982, 199.811416)"><g><path d="M 0.0625 -1.453125 L -13.703125 -1.984375 L -13.375 -10.515625 L -12.015625 -10.453125 L -12.28125 -3.578125 L -7.5 -3.40625 L -7.265625 -9.6875 L -5.921875 -9.625 L -6.15625 -3.34375 L -1.234375 -3.15625 L -0.96875 -10.03125 L 0.390625 -9.984375 Z M 0.0625 -1.453125 "/></g></g></g><g clip-path="url(#2af3979c23)"><path fill="#015551" d="M 188.316406 116.742188 C 149.699219 116.742188 118.230469 148.210938 118.230469 186.828125 C 118.230469 225.527344 149.699219 256.992188 188.316406 256.992188 C 227.015625 256.992188 258.480469 225.527344 258.480469 186.828125 C 258.480469 148.210938 227.015625 116.742188 188.316406 116.742188 Z M 188.316406 116.742188 " fill-opacity="1" fill-rule="evenodd"/></g><g clip-path="url(#45f217fb75)"><path fill="#e07a5f" d="M 188.316406 116.742188 C 182.484375 116.742188 176.8125 117.484375 171.472656 118.796875 C 155.203125 129.808594 143.785156 156.179688 143.785156 186.828125 C 143.785156 217.554688 155.203125 243.847656 171.390625 254.855469 C 176.8125 256.253906 182.484375 256.992188 188.316406 256.992188 C 210.992188 256.992188 229.398438 225.527344 229.398438 186.828125 C 229.398438 148.210938 210.992188 116.742188 188.316406 116.742188 Z M 188.316406 256.992188 C 194.148438 256.992188 199.820312 256.253906 205.242188 254.855469 C 221.425781 243.847656 232.847656 217.554688 232.847656 186.828125 C 232.847656 156.179688 221.425781 129.808594 205.242188 118.796875 C 199.820312 117.484375 194.148438 116.742188 188.316406 116.742188 C 165.722656 116.742188 147.234375 148.210938 147.234375 186.828125 C 147.234375 225.527344 165.722656 256.992188 188.316406 256.992188 Z M 188.316406 256.992188 " fill-opacity="1" fill-rule="evenodd"/></g><g clip-path="url(#4508caef58)"><path fill="#e07a5f" d="M 120.285156 169.984375 C 118.972656 175.324219 118.230469 180.992188 118.230469 186.828125 C 118.230469 209.503906 149.699219 227.90625 188.316406 227.90625 C 227.015625 227.90625 258.480469 209.503906 258.480469 186.828125 C 258.480469 180.992188 257.742188 175.324219 256.347656 169.902344 C 245.335938 153.714844 219.042969 142.296875 188.316406 142.296875 C 157.667969 142.296875 131.296875 153.714844 120.285156 169.984375 Z M 118.230469 186.828125 C 118.230469 192.660156 118.972656 198.328125 120.285156 203.753906 C 131.296875 219.9375 157.667969 231.359375 188.316406 231.359375 C 219.042969 231.359375 245.335938 219.9375 256.347656 203.753906 C 257.742188 198.328125 258.480469 192.660156 258.480469 186.828125 C 258.480469 164.234375 227.015625 145.746094 188.316406 145.746094 C 149.699219 145.746094 118.230469 164.234375 118.230469 186.828125 Z M 118.230469 186.828125 " fill-opacity="1" fill-rule="evenodd"/></g><path fill="#e07a5f" d="M 188.316406 219.855469 C 187.824219 219.855469 187.328125 219.527344 187 219.035156 C 186.097656 217.226562 184.617188 214.597656 182.894531 211.558594 C 174.183594 196.359375 166.460938 182.144531 166.460938 175.816406 C 166.460938 163.738281 176.238281 153.878906 188.316406 153.878906 C 200.394531 153.878906 210.253906 163.738281 210.253906 175.816406 C 210.253906 182.144531 202.449219 196.359375 193.820312 211.558594 C 192.09375 214.597656 190.617188 217.226562 189.628906 219.035156 C 189.382812 219.527344 188.890625 219.855469 188.316406 219.855469 Z M 188.316406 187.484375 C 181.90625 187.484375 176.648438 182.226562 176.648438 175.816406 C 176.648438 169.328125 181.90625 164.070312 188.316406 164.070312 C 194.808594 164.070312 200.066406 169.328125 200.066406 175.816406 C 200.066406 182.226562 194.808594 187.484375 188.316406 187.484375 Z M 188.316406 187.484375 " fill-opacity="1" fill-rule="evenodd"/></svg>