<svg xmlns="http://www.w3.org/2000/svg" xmlns:xlink="http://www.w3.org/1999/xlink" width="500" zoomAndPan="magnify" viewBox="0 0 375 374.999991" height="500" preserveAspectRatio="xMidYMid meet" version="1.0"><defs><g/><clipPath id="64fee6d2a7"><path d="M 37.5 37.5 L 337.5 37.5 L 337.5 337.5 L 37.5 337.5 Z M 37.5 37.5 " clip-rule="nonzero"/></clipPath><clipPath id="4df4343fe6"><path d="M 187.5 37.5 C 104.65625 37.5 37.5 104.65625 37.5 187.5 C 37.5 270.34375 104.65625 337.5 187.5 337.5 C 270.34375 337.5 337.5 270.34375 337.5 187.5 C 337.5 104.65625 270.34375 37.5 187.5 37.5 Z M 187.5 37.5 " clip-rule="nonzero"/></clipPath><clipPath id="d783d85356"><path d="M 83.878906 83.878906 L 291.121094 83.878906 L 291.121094 291.121094 L 83.878906 291.121094 Z M 83.878906 83.878906 " clip-rule="nonzero"/></clipPath><clipPath id="744dc52555"><path d="M 187.5 83.878906 C 130.273438 83.878906 83.878906 130.273438 83.878906 187.5 C 83.878906 244.726562 130.273438 291.121094 187.5 291.121094 C 244.726562 291.121094 291.121094 244.726562 291.121094 187.5 C 291.121094 130.273438 244.726562 83.878906 187.5 83.878906 Z M 187.5 83.878906 " clip-rule="nonzero"/></clipPath><clipPath id="7fccc79a56"><path d="M 83.878906 83.878906 L 290.878906 83.878906 L 290.878906 290.878906 L 83.878906 290.878906 Z M 83.878906 83.878906 " clip-rule="nonzero"/></clipPath><clipPath id="27487f8201"><path d="M 187.496094 83.878906 C 130.269531 83.878906 83.878906 130.269531 83.878906 187.496094 C 83.878906 244.722656 130.269531 291.113281 187.496094 291.113281 C 244.722656 291.113281 291.113281 244.722656 291.113281 187.496094 C 291.113281 130.269531 244.722656 83.878906 187.496094 83.878906 Z M 187.496094 83.878906 " clip-rule="nonzero"/></clipPath><clipPath id="b6f404f0a2"><path d="M 106.09375 106.09375 L 268.90625 106.09375 L 268.90625 268.90625 L 106.09375 268.90625 Z M 106.09375 106.09375 " clip-rule="nonzero"/></clipPath><clipPath id="ab5a0eef6b"><path d="M 187.5 106.09375 C 142.542969 106.09375 106.09375 142.542969 106.09375 187.5 C 106.09375 232.457031 142.542969 268.90625 187.5 268.90625 C 232.457031 268.90625 268.90625 232.457031 268.90625 187.5 C 268.90625 142.542969 232.457031 106.09375 187.5 106.09375 Z M 187.5 106.09375 " clip-rule="nonzero"/></clipPath><clipPath id="26898c62bb"><path d="M 112.460938 112.417969 L 262.539062 112.417969 L 262.539062 263 L 112.460938 263 Z M 112.460938 112.417969 " clip-rule="nonzero"/></clipPath><clipPath id="f11487c20f"><path d="M 187.5 112.417969 C 146.058594 112.417969 112.460938 146.035156 112.460938 187.5 C 112.460938 228.964844 146.058594 262.582031 187.5 262.582031 C 228.941406 262.582031 262.539062 228.964844 262.539062 187.5 C 262.539062 146.035156 228.941406 112.417969 187.5 112.417969 Z M 187.5 112.417969 " clip-rule="nonzero"/></clipPath><clipPath id="c239ad578c"><path d="M 127.136719 119 L 247.886719 119 L 247.886719 252.597656 L 127.136719 252.597656 Z M 127.136719 119 " clip-rule="nonzero"/></clipPath></defs><g clip-path="url(#64fee6d2a7)"><g clip-path="url(#4df4343fe6)"><path fill="#1b4d3e" d="M 37.5 37.5 L 337.5 37.5 L 337.5 337.5 L 37.5 337.5 Z M 37.5 37.5 " fill-opacity="1" fill-rule="nonzero"/><path stroke-linecap="butt" transform="matrix(0.75, 0, 0, 0.75, 37.500002, 37.499998)" fill="none" stroke-linejoin="miter" d="M 200.00001 0.00000328333 C 89.54167 0.00000328333 -0.00000271667 89.541676 -0.00000271667 200.000016 C -0.00000271667 310.458357 89.54167 400.00003 200.00001 400.00003 C 310.458351 400.00003 400.000024 310.458357 400.000024 200.000016 C 400.000024 89.541676 310.458351 0.00000328333 200.00001 0.00000328333 Z M 200.00001 0.00000328333 " stroke="#690b22" stroke-width="16" stroke-opacity="1" stroke-miterlimit="4"/></g></g><path fill="#f1e3d3" d="M 278.765625 298.527344 C 277.171875 299.8125 275.550781 301.066406 273.90625 302.289062 C 272.261719 303.507812 270.589844 304.691406 268.894531 305.839844 C 267.199219 306.988281 265.476562 308.101562 263.734375 309.179688 C 261.992188 310.253906 260.226562 311.292969 258.4375 312.296875 C 256.652344 313.296875 254.84375 314.257812 253.015625 315.183594 C 251.1875 316.109375 249.339844 316.996094 247.476562 317.839844 C 245.609375 318.6875 243.726562 319.496094 241.828125 320.261719 C 239.929688 321.027344 238.011719 321.753906 236.082031 322.441406 C 234.152344 323.128906 232.207031 323.773438 230.25 324.375 C 228.292969 324.980469 226.324219 325.539062 224.34375 326.0625 C 222.359375 326.582031 220.367188 327.058594 218.367188 327.496094 C 216.367188 327.929688 214.355469 328.324219 212.335938 328.675781 C 210.320312 329.023438 208.292969 329.332031 206.261719 329.597656 C 204.230469 329.863281 202.195312 330.085938 200.152344 330.261719 C 198.113281 330.441406 196.070312 330.578125 194.023438 330.667969 C 191.976562 330.761719 189.929688 330.808594 187.878906 330.816406 C 185.832031 330.820312 183.785156 330.78125 181.738281 330.703125 C 179.691406 330.621094 177.644531 330.496094 175.605469 330.328125 C 173.5625 330.160156 171.523438 329.949219 169.492188 329.695312 C 167.460938 329.441406 165.433594 329.144531 163.414062 328.804688 C 161.390625 328.464844 159.378906 328.082031 157.375 327.65625 C 155.371094 327.230469 153.378906 326.765625 151.394531 326.253906 C 149.410156 325.746094 147.4375 325.191406 145.476562 324.601562 C 143.515625 324.007812 141.566406 323.371094 139.632812 322.695312 C 137.699219 322.023438 135.78125 321.304688 133.878906 320.546875 C 131.972656 319.792969 130.085938 318.996094 128.214844 318.15625 C 126.347656 317.320312 124.496094 316.445312 122.664062 315.53125 C 120.828125 314.613281 119.015625 313.660156 117.222656 312.667969 C 115.433594 311.675781 113.660156 310.648438 111.914062 309.582031 C 110.164062 308.515625 108.4375 307.410156 106.734375 306.269531 C 105.035156 305.132812 103.355469 303.957031 101.703125 302.746094 C 100.050781 301.535156 98.425781 300.289062 96.824219 299.007812 L 125.632812 263.003906 C 127.816406 264.75 130.070312 266.402344 132.394531 267.957031 C 134.71875 269.511719 137.105469 270.96875 139.550781 272.324219 C 142 273.675781 144.5 274.925781 147.050781 276.066406 C 149.605469 277.210938 152.199219 278.242188 154.839844 279.164062 C 157.480469 280.085938 160.15625 280.894531 162.863281 281.589844 C 165.574219 282.285156 168.304688 282.867188 171.0625 283.332031 C 173.820312 283.796875 176.59375 284.140625 179.382812 284.371094 C 182.167969 284.601562 184.960938 284.710938 187.757812 284.703125 C 190.554688 284.695312 193.347656 284.570312 196.132812 284.328125 C 198.917969 284.082031 201.6875 283.722656 204.445312 283.242188 C 207.199219 282.765625 209.929688 282.167969 212.636719 281.460938 C 215.339844 280.75 218.011719 279.925781 220.644531 278.988281 C 223.28125 278.054688 225.871094 277.007812 228.417969 275.851562 C 230.964844 274.695312 233.457031 273.433594 235.898438 272.066406 C 238.339844 270.699219 240.714844 269.234375 243.03125 267.664062 C 245.347656 266.09375 247.589844 264.433594 249.765625 262.671875 Z M 278.765625 298.527344 " fill-opacity="1" fill-rule="nonzero"/><g fill="#1b4d3e" fill-opacity="1"><g transform="translate(120.646443, 296.503817)"><g><path d="M 22.046875 -5.1875 C 21.421875 -3.9375 20.539062 -3.070312 19.40625 -2.59375 C 18.28125 -2.113281 16.859375 -2.125 15.140625 -2.625 L 17.390625 5.9375 C 17.535156 6.539062 17.796875 7.070312 18.171875 7.53125 C 18.554688 8 19.003906 8.359375 19.515625 8.609375 L 19.0625 9.5 L 13.75 6.859375 L 11.59375 -2.75 C 11.4375 -3.382812 11.257812 -3.84375 11.0625 -4.125 C 10.863281 -4.414062 10.644531 -4.625 10.40625 -4.75 L 8.21875 -0.359375 C 7.9375 0.191406 7.742188 0.660156 7.640625 1.046875 C 7.546875 1.441406 7.5625 1.789062 7.6875 2.09375 C 7.820312 2.394531 8.082031 2.6875 8.46875 2.96875 C 8.863281 3.257812 9.421875 3.582031 10.140625 3.9375 L 9.6875 4.828125 L 0.78125 0.390625 L 1.234375 -0.5 C 1.734375 -0.25 2.148438 -0.0820312 2.484375 0 C 2.828125 0.0703125 3.128906 0.0625 3.390625 -0.03125 C 3.660156 -0.125 3.90625 -0.328125 4.125 -0.640625 C 4.351562 -0.953125 4.597656 -1.367188 4.859375 -1.890625 L 10.03125 -12.25 C 10.289062 -12.769531 10.476562 -13.203125 10.59375 -13.546875 C 10.707031 -13.890625 10.734375 -14.191406 10.671875 -14.453125 C 10.617188 -14.710938 10.472656 -14.945312 10.234375 -15.15625 C 9.992188 -15.363281 9.644531 -15.597656 9.1875 -15.859375 L 9.640625 -16.75 L 17.40625 -12.875 C 19.570312 -11.800781 21.054688 -10.585938 21.859375 -9.234375 C 22.660156 -7.878906 22.722656 -6.53125 22.046875 -5.1875 Z M 11.078125 -6.109375 L 12.546875 -5.375 C 13.941406 -4.675781 15.125 -4.425781 16.09375 -4.625 C 17.0625 -4.820312 17.859375 -5.546875 18.484375 -6.796875 C 18.960938 -7.753906 19.050781 -8.671875 18.75 -9.546875 C 18.457031 -10.421875 17.800781 -11.113281 16.78125 -11.625 L 14.828125 -12.609375 C 14.554688 -12.742188 14.359375 -12.6875 14.234375 -12.4375 Z M 11.078125 -6.109375 "/></g></g></g><g fill="#1b4d3e" fill-opacity="1"><g transform="translate(140.017871, 305.844037)"><g><path d="M 13.578125 2.03125 C 11.597656 3.1875 9.53125 3.40625 7.375 2.6875 C 6.394531 2.363281 5.554688 1.914062 4.859375 1.34375 C 4.160156 0.769531 3.613281 0.109375 3.21875 -0.640625 C 2.832031 -1.390625 2.609375 -2.207031 2.546875 -3.09375 C 2.492188 -3.976562 2.625 -4.894531 2.9375 -5.84375 C 3.257812 -6.820312 3.722656 -7.664062 4.328125 -8.375 C 4.929688 -9.082031 5.632812 -9.632812 6.4375 -10.03125 C 7.238281 -10.425781 8.109375 -10.648438 9.046875 -10.703125 C 9.992188 -10.753906 10.96875 -10.617188 11.96875 -10.296875 C 13.644531 -9.734375 14.804688 -8.847656 15.453125 -7.640625 C 16.097656 -6.429688 16.148438 -5.007812 15.609375 -3.375 C 15.523438 -3.113281 15.429688 -2.96875 15.328125 -2.9375 C 15.234375 -2.914062 15.003906 -2.960938 14.640625 -3.078125 L 6.96875 -5.625 C 6.863281 -5.488281 6.75 -5.226562 6.625 -4.84375 C 6.113281 -3.289062 6.046875 -1.953125 6.421875 -0.828125 C 6.796875 0.285156 7.5625 1.035156 8.71875 1.421875 C 9.382812 1.640625 10.097656 1.707031 10.859375 1.625 C 11.617188 1.550781 12.394531 1.332031 13.1875 0.96875 Z M 11.03125 -5.75 C 11.664062 -5.539062 12.082031 -5.441406 12.28125 -5.453125 C 12.488281 -5.460938 12.640625 -5.601562 12.734375 -5.875 C 12.960938 -6.570312 12.953125 -7.207031 12.703125 -7.78125 C 12.453125 -8.351562 12.023438 -8.742188 11.421875 -8.953125 C 10.742188 -9.171875 10.046875 -9.085938 9.328125 -8.703125 C 8.609375 -8.316406 8.023438 -7.710938 7.578125 -6.890625 Z M 11.03125 -5.75 "/></g></g></g><g fill="#1b4d3e" fill-opacity="1"><g transform="translate(154.746162, 310.574618)"><g><path d="M 2.078125 0.4375 L 1.328125 0.28125 L 2.28125 -4.1875 L 3.3125 -3.96875 C 3.332031 -2.71875 3.546875 -1.769531 3.953125 -1.125 C 4.367188 -0.476562 4.992188 -0.0625 5.828125 0.125 C 6.429688 0.25 6.925781 0.222656 7.3125 0.046875 C 7.695312 -0.128906 7.9375 -0.441406 8.03125 -0.890625 C 8.132812 -1.347656 8.03125 -1.835938 7.71875 -2.359375 C 7.40625 -2.878906 6.84375 -3.484375 6.03125 -4.171875 C 4.925781 -5.097656 4.171875 -5.953125 3.765625 -6.734375 C 3.367188 -7.515625 3.265625 -8.320312 3.453125 -9.15625 C 3.566406 -9.695312 3.773438 -10.175781 4.078125 -10.59375 C 4.378906 -11.019531 4.742188 -11.367188 5.171875 -11.640625 C 5.597656 -11.910156 6.070312 -12.085938 6.59375 -12.171875 C 7.125 -12.253906 7.675781 -12.234375 8.25 -12.109375 C 8.757812 -11.992188 9.25 -11.804688 9.71875 -11.546875 C 10.1875 -11.296875 10.578125 -11 10.890625 -10.65625 L 11.453125 -11.15625 L 12.09375 -11.015625 L 11.3125 -7.3125 L 10.359375 -7.515625 C 10.179688 -8.523438 9.929688 -9.28125 9.609375 -9.78125 C 9.296875 -10.28125 8.859375 -10.585938 8.296875 -10.703125 C 7.835938 -10.804688 7.441406 -10.765625 7.109375 -10.578125 C 6.785156 -10.390625 6.582031 -10.09375 6.5 -9.6875 C 6.40625 -9.226562 6.515625 -8.75 6.828125 -8.25 C 7.140625 -7.75 7.710938 -7.15625 8.546875 -6.46875 C 9.117188 -5.96875 9.601562 -5.492188 10 -5.046875 C 10.40625 -4.609375 10.710938 -4.179688 10.921875 -3.765625 C 11.140625 -3.347656 11.28125 -2.9375 11.34375 -2.53125 C 11.40625 -2.125 11.390625 -1.695312 11.296875 -1.25 C 11.171875 -0.675781 10.953125 -0.179688 10.640625 0.234375 C 10.328125 0.648438 9.9375 0.976562 9.46875 1.21875 C 9.007812 1.457031 8.488281 1.609375 7.90625 1.671875 C 7.332031 1.734375 6.707031 1.691406 6.03125 1.546875 C 5.332031 1.398438 4.695312 1.164062 4.125 0.84375 C 3.550781 0.519531 3.113281 0.140625 2.8125 -0.296875 Z M 2.078125 0.4375 "/></g></g></g><g fill="#1b4d3e" fill-opacity="1"><g transform="translate(167.205571, 313.608996)"><g><path d="M 13.046875 -18.71875 C 14.566406 -18.625 15.96875 -18.273438 17.25 -17.671875 C 18.539062 -17.078125 19.644531 -16.289062 20.5625 -15.3125 C 21.476562 -14.34375 22.175781 -13.222656 22.65625 -11.953125 C 23.132812 -10.691406 23.328125 -9.363281 23.234375 -7.96875 C 23.117188 -6.25 22.59375 -4.695312 21.65625 -3.3125 C 20.71875 -1.925781 19.460938 -0.789062 17.890625 0.09375 C 17.585938 0.257812 17.300781 0.40625 17.03125 0.53125 C 16.769531 0.65625 16.46875 0.78125 16.125 0.90625 C 15.78125 1.039062 15.378906 1.175781 14.921875 1.3125 C 14.472656 1.445312 13.929688 1.601562 13.296875 1.78125 C 12.910156 1.894531 12.585938 1.992188 12.328125 2.078125 C 12.066406 2.160156 11.832031 2.238281 11.625 2.3125 C 11.414062 2.382812 11.226562 2.460938 11.0625 2.546875 C 10.90625 2.628906 10.75 2.71875 10.59375 2.8125 L 10.59375 2.90625 C 10.695312 2.90625 10.84375 2.90625 11.03125 2.90625 C 11.21875 2.90625 11.394531 2.910156 11.5625 2.921875 C 12.28125 2.972656 12.953125 3.097656 13.578125 3.296875 C 14.210938 3.492188 14.835938 3.707031 15.453125 3.9375 C 16.066406 4.164062 16.679688 4.375 17.296875 4.5625 C 17.921875 4.757812 18.585938 4.878906 19.296875 4.921875 C 20.097656 4.972656 20.726562 4.875 21.1875 4.625 C 21.65625 4.382812 22.035156 3.9375 22.328125 3.28125 L 23.265625 3.34375 C 23.285156 3.5625 23.296875 3.765625 23.296875 3.953125 C 23.304688 4.140625 23.304688 4.296875 23.296875 4.421875 C 23.265625 4.929688 23.113281 5.398438 22.84375 5.828125 C 22.582031 6.253906 22.234375 6.617188 21.796875 6.921875 C 21.359375 7.222656 20.847656 7.445312 20.265625 7.59375 C 19.691406 7.738281 19.078125 7.785156 18.421875 7.734375 C 17.503906 7.679688 16.65625 7.46875 15.875 7.09375 C 15.09375 6.71875 14.34375 6.3125 13.625 5.875 C 12.90625 5.445312 12.222656 5.054688 11.578125 4.703125 C 10.929688 4.347656 10.289062 4.148438 9.65625 4.109375 C 9.195312 4.078125 8.820312 4.125 8.53125 4.25 C 8.25 4.375 7.984375 4.515625 7.734375 4.671875 C 7.492188 4.835938 7.253906 4.988281 7.015625 5.125 C 6.785156 5.269531 6.515625 5.332031 6.203125 5.3125 C 5.910156 5.289062 5.6875 5.207031 5.53125 5.0625 C 5.375 4.914062 5.300781 4.742188 5.3125 4.546875 C 5.332031 4.265625 5.476562 4.007812 5.75 3.78125 C 6.03125 3.5625 6.535156 3.28125 7.265625 2.9375 L 10.53125 1.375 C 9.207031 1.164062 7.988281 0.738281 6.875 0.09375 C 5.757812 -0.539062 4.8125 -1.332031 4.03125 -2.28125 C 3.25 -3.238281 2.65625 -4.320312 2.25 -5.53125 C 1.84375 -6.738281 1.6875 -8.015625 1.78125 -9.359375 C 1.875 -10.765625 2.226562 -12.066406 2.84375 -13.265625 C 3.46875 -14.460938 4.285156 -15.484375 5.296875 -16.328125 C 6.304688 -17.171875 7.476562 -17.804688 8.8125 -18.234375 C 10.144531 -18.660156 11.554688 -18.820312 13.046875 -18.71875 Z M 11.8125 0.03125 C 12.800781 0.09375 13.707031 -0.0507812 14.53125 -0.40625 C 15.363281 -0.769531 16.085938 -1.304688 16.703125 -2.015625 C 17.316406 -2.722656 17.804688 -3.597656 18.171875 -4.640625 C 18.546875 -5.691406 18.78125 -6.875 18.875 -8.1875 C 18.957031 -9.476562 18.878906 -10.660156 18.640625 -11.734375 C 18.410156 -12.804688 18.035156 -13.726562 17.515625 -14.5 C 17.003906 -15.269531 16.359375 -15.878906 15.578125 -16.328125 C 14.804688 -16.785156 13.925781 -17.046875 12.9375 -17.109375 C 11.96875 -17.179688 11.082031 -17.039062 10.28125 -16.6875 C 9.476562 -16.34375 8.785156 -15.820312 8.203125 -15.125 C 7.617188 -14.425781 7.144531 -13.5625 6.78125 -12.53125 C 6.425781 -11.5 6.207031 -10.332031 6.125 -9.03125 C 6.03125 -7.6875 6.09375 -6.46875 6.3125 -5.375 C 6.539062 -4.289062 6.898438 -3.359375 7.390625 -2.578125 C 7.878906 -1.804688 8.5 -1.191406 9.25 -0.734375 C 10 -0.285156 10.851562 -0.03125 11.8125 0.03125 Z M 11.8125 0.03125 "/></g></g></g><g fill="#1b4d3e" fill-opacity="1"><g transform="translate(192.284189, 314.930815)"><g><path d="M 18.03125 -1.96875 L 0.875 -0.09375 L 0.765625 -1.09375 C 1.304688 -1.175781 1.742188 -1.273438 2.078125 -1.390625 C 2.421875 -1.515625 2.675781 -1.679688 2.84375 -1.890625 C 3.007812 -2.109375 3.101562 -2.40625 3.125 -2.78125 C 3.15625 -3.15625 3.140625 -3.632812 3.078125 -4.21875 L 1.8125 -15.71875 C 1.75 -16.300781 1.664062 -16.765625 1.5625 -17.109375 C 1.46875 -17.460938 1.320312 -17.734375 1.125 -17.921875 C 0.9375 -18.117188 0.6875 -18.238281 0.375 -18.28125 C 0.0625 -18.320312 -0.335938 -18.332031 -0.828125 -18.3125 L -0.9375 -19.3125 L 7.640625 -20.25 L 7.75 -19.25 C 7.195312 -19.164062 6.75 -19.0625 6.40625 -18.9375 C 6.070312 -18.820312 5.828125 -18.644531 5.671875 -18.40625 C 5.515625 -18.175781 5.425781 -17.867188 5.40625 -17.484375 C 5.382812 -17.097656 5.410156 -16.585938 5.484375 -15.953125 L 6.625 -5.515625 C 6.695312 -4.816406 6.828125 -4.253906 7.015625 -3.828125 C 7.210938 -3.398438 7.5 -3.082031 7.875 -2.875 C 8.25 -2.675781 8.726562 -2.5625 9.3125 -2.53125 C 9.90625 -2.507812 10.640625 -2.546875 11.515625 -2.640625 C 12.472656 -2.742188 13.269531 -2.890625 13.90625 -3.078125 C 14.539062 -3.265625 15.0625 -3.546875 15.46875 -3.921875 C 15.875 -4.296875 16.175781 -4.769531 16.375 -5.34375 C 16.582031 -5.914062 16.726562 -6.65625 16.8125 -7.5625 L 17.8125 -7.671875 Z M 18.03125 -1.96875 "/></g></g></g><g fill="#1b4d3e" fill-opacity="1"><g transform="translate(211.898994, 312.448569)"><g><path d="M 5.375 -5.421875 C 5.519531 -4.773438 5.660156 -4.265625 5.796875 -3.890625 C 5.929688 -3.515625 6.097656 -3.234375 6.296875 -3.046875 C 6.492188 -2.867188 6.734375 -2.773438 7.015625 -2.765625 C 7.304688 -2.753906 7.695312 -2.789062 8.1875 -2.875 L 8.40625 -1.90625 L 0.71875 -0.15625 L 0.5 -1.125 C 0.9375 -1.25 1.289062 -1.390625 1.5625 -1.546875 C 1.832031 -1.703125 2.019531 -1.898438 2.125 -2.140625 C 2.238281 -2.378906 2.28125 -2.6875 2.25 -3.0625 C 2.21875 -3.445312 2.132812 -3.925781 2 -4.5 L 1.3125 -7.5 C 1.101562 -8.445312 0.910156 -9.222656 0.734375 -9.828125 C 0.566406 -10.429688 0.4375 -10.835938 0.34375 -11.046875 C 0.164062 -11.441406 -0.078125 -11.671875 -0.390625 -11.734375 C -0.710938 -11.796875 -1.25 -11.742188 -2 -11.578125 L -2.1875 -12.40625 L 3.28125 -14.609375 Z M -1.484375 -18.984375 C -1.609375 -19.523438 -1.523438 -20.019531 -1.234375 -20.46875 C -0.953125 -20.914062 -0.550781 -21.203125 -0.03125 -21.328125 C 0.5 -21.441406 0.988281 -21.359375 1.4375 -21.078125 C 1.882812 -20.796875 2.171875 -20.382812 2.296875 -19.84375 C 2.410156 -19.320312 2.328125 -18.835938 2.046875 -18.390625 C 1.765625 -17.941406 1.359375 -17.660156 0.828125 -17.546875 C 0.304688 -17.421875 -0.175781 -17.5 -0.625 -17.78125 C -1.082031 -18.0625 -1.367188 -18.460938 -1.484375 -18.984375 Z M -1.484375 -18.984375 "/></g></g></g><g fill="#1b4d3e" fill-opacity="1"><g transform="translate(221.603603, 310.456218)"><g><path d="M 4.734375 -5.96875 C 4.960938 -5.332031 5.160156 -4.832031 5.328125 -4.46875 C 5.503906 -4.101562 5.691406 -3.847656 5.890625 -3.703125 C 6.097656 -3.554688 6.347656 -3.5 6.640625 -3.53125 C 6.941406 -3.5625 7.332031 -3.644531 7.8125 -3.78125 L 8.140625 -2.84375 L 0.6875 -0.234375 L 0.359375 -1.171875 C 0.804688 -1.367188 1.15625 -1.546875 1.40625 -1.703125 C 1.664062 -1.867188 1.835938 -2.070312 1.921875 -2.3125 C 2.003906 -2.550781 2.003906 -2.847656 1.921875 -3.203125 C 1.847656 -3.566406 1.707031 -4.050781 1.5 -4.65625 L 0.46875 -7.625 C 0.144531 -8.550781 -0.128906 -9.296875 -0.359375 -9.859375 C -0.585938 -10.421875 -0.765625 -10.800781 -0.890625 -11 C -1.015625 -11.1875 -1.140625 -11.332031 -1.265625 -11.4375 C -1.390625 -11.539062 -1.539062 -11.597656 -1.71875 -11.609375 C -1.894531 -11.628906 -2.101562 -11.609375 -2.34375 -11.546875 C -2.59375 -11.492188 -2.898438 -11.40625 -3.265625 -11.28125 L -3.546875 -12.078125 L 0.71875 -14.578125 L 1.734375 -12.609375 L 1.828125 -12.640625 C 2.117188 -13.472656 2.554688 -14.195312 3.140625 -14.8125 C 3.722656 -15.425781 4.441406 -15.878906 5.296875 -16.171875 C 6.304688 -16.523438 7.171875 -16.671875 7.890625 -16.609375 C 8.609375 -16.554688 9.328125 -16.289062 10.046875 -15.8125 C 10.429688 -15.539062 10.828125 -15.148438 11.234375 -14.640625 C 11.648438 -14.140625 12.03125 -13.390625 12.375 -12.390625 L 13.546875 -9.03125 C 13.773438 -8.394531 13.972656 -7.894531 14.140625 -7.53125 C 14.304688 -7.175781 14.488281 -6.921875 14.6875 -6.765625 C 14.894531 -6.617188 15.144531 -6.5625 15.4375 -6.59375 C 15.726562 -6.625 16.101562 -6.703125 16.5625 -6.828125 L 16.890625 -5.890625 L 9.484375 -3.3125 L 9.15625 -4.25 C 9.625 -4.425781 9.984375 -4.597656 10.234375 -4.765625 C 10.484375 -4.941406 10.644531 -5.144531 10.71875 -5.375 C 10.800781 -5.613281 10.800781 -5.921875 10.71875 -6.296875 C 10.644531 -6.671875 10.507812 -7.148438 10.3125 -7.734375 L 9.1875 -10.953125 C 8.90625 -11.753906 8.617188 -12.410156 8.328125 -12.921875 C 8.046875 -13.441406 7.738281 -13.832031 7.40625 -14.09375 C 7.070312 -14.363281 6.707031 -14.515625 6.3125 -14.546875 C 5.914062 -14.585938 5.457031 -14.515625 4.9375 -14.328125 C 4.425781 -14.160156 4.039062 -13.867188 3.78125 -13.453125 C 3.519531 -13.035156 3.34375 -12.53125 3.25 -11.9375 C 3.207031 -11.59375 3.210938 -11.179688 3.265625 -10.703125 C 3.316406 -10.222656 3.425781 -9.738281 3.59375 -9.25 Z M 4.734375 -5.96875 "/></g></g></g><g fill="#1b4d3e" fill-opacity="1"><g transform="translate(239.787023, 303.978556)"><g><path d="M 7.515625 -5.015625 C 7.992188 -5.265625 8.316406 -5.457031 8.484375 -5.59375 C 8.648438 -5.726562 8.703125 -5.851562 8.640625 -5.96875 C 8.585938 -6.0625 8.375 -6.226562 8 -6.46875 C 7.625 -6.71875 7.160156 -6.988281 6.609375 -7.28125 L 3.609375 -8.953125 L 3.046875 -7.296875 L 3.5 -6.4375 C 3.800781 -5.851562 4.0625 -5.394531 4.28125 -5.0625 C 4.507812 -4.738281 4.734375 -4.503906 4.953125 -4.359375 C 5.171875 -4.210938 5.398438 -4.15625 5.640625 -4.1875 C 5.878906 -4.21875 6.15625 -4.316406 6.46875 -4.484375 L 6.921875 -3.59375 L 0.359375 -0.1875 L -0.09375 -1.078125 C 0.3125 -1.316406 0.617188 -1.535156 0.828125 -1.734375 C 1.035156 -1.929688 1.164062 -2.160156 1.21875 -2.421875 C 1.269531 -2.679688 1.234375 -2.988281 1.109375 -3.34375 C 0.992188 -3.707031 0.796875 -4.160156 0.515625 -4.703125 L -4.375 -14.140625 C -4.84375 -15.046875 -5.222656 -15.75 -5.515625 -16.25 C -5.804688 -16.757812 -6.082031 -17.109375 -6.34375 -17.296875 C -6.601562 -17.492188 -6.878906 -17.550781 -7.171875 -17.46875 C -7.460938 -17.394531 -7.832031 -17.242188 -8.28125 -17.015625 L -8.703125 -17.84375 L -4.171875 -21.25 L 2.234375 -8.875 L 3.3125 -12 C 3.71875 -13.144531 3.984375 -13.984375 4.109375 -14.515625 C 4.242188 -15.046875 4.269531 -15.390625 4.1875 -15.546875 C 4.125 -15.679688 3.941406 -15.703125 3.640625 -15.609375 C 3.335938 -15.523438 2.816406 -15.289062 2.078125 -14.90625 L 1.625 -15.796875 L 7.6875 -18.9375 L 8.140625 -18.046875 C 7.578125 -17.765625 7.128906 -17.410156 6.796875 -16.984375 C 6.472656 -16.566406 6.179688 -15.992188 5.921875 -15.265625 L 4.796875 -12.125 L 11.484375 -8.671875 C 12.078125 -8.367188 12.582031 -8.210938 13 -8.203125 C 13.414062 -8.191406 13.894531 -8.328125 14.4375 -8.609375 L 14.890625 -7.71875 L 7.96875 -4.125 Z M 7.515625 -5.015625 "/></g></g></g><g clip-path="url(#d783d85356)"><g clip-path="url(#744dc52555)"><path fill="#f1e3d3" d="M 83.878906 83.878906 L 291.121094 83.878906 L 291.121094 291.121094 L 83.878906 291.121094 Z M 83.878906 83.878906 " fill-opacity="1" fill-rule="nonzero"/></g></g><g clip-path="url(#7fccc79a56)"><g clip-path="url(#27487f8201)"><path stroke-linecap="butt" transform="matrix(0.75, 0, 0, 0.75, 83.879699, 83.879702)" fill="none" stroke-linejoin="miter" d="M 138.155202 -0.00106059 C 61.853114 -0.00106059 -0.00105699 61.85311 -0.00105699 138.155198 C -0.00105699 214.457287 61.853114 276.311458 138.155202 276.311458 C 214.45729 276.311458 276.311461 214.457287 276.311461 138.155198 C 276.311461 61.85311 214.45729 -0.00106059 138.155202 -0.00106059 Z M 138.155202 -0.00106059 " stroke="#690b22" stroke-width="16" stroke-opacity="1" stroke-miterlimit="4"/></g></g><g clip-path="url(#b6f404f0a2)"><g clip-path="url(#ab5a0eef6b)"><path fill="#690b22" d="M 106.09375 106.09375 L 268.90625 106.09375 L 268.90625 268.90625 L 106.09375 268.90625 Z M 106.09375 106.09375 " fill-opacity="1" fill-rule="nonzero"/></g></g><g clip-path="url(#26898c62bb)"><g clip-path="url(#f11487c20f)"><path fill="#f1e3d3" d="M 112.460938 112.417969 L 262.539062 112.417969 L 262.539062 262.496094 L 112.460938 262.496094 Z M 112.460938 112.417969 " fill-opacity="1" fill-rule="nonzero"/></g></g><g clip-path="url(#c239ad578c)"><path fill="#690b22" d="M 229.953125 225.398438 C 226.691406 225.398438 224.042969 222.742188 224.042969 219.472656 C 224.042969 216.210938 226.691406 213.554688 229.953125 213.554688 C 233.230469 213.554688 235.878906 216.210938 235.878906 219.472656 C 235.878906 222.742188 233.230469 225.398438 229.953125 225.398438 Z M 222.15625 138.339844 C 222.15625 135.070312 224.804688 132.414062 228.085938 132.414062 C 231.34375 132.414062 233.996094 135.074219 233.996094 138.339844 C 233.996094 141.601562 231.34375 144.261719 228.085938 144.261719 C 224.804688 144.261719 222.15625 141.601562 222.15625 138.339844 Z M 146.914062 144.261719 C 143.652344 144.261719 141.003906 141.601562 141.003906 138.339844 C 141.003906 135.070312 143.652344 132.414062 146.914062 132.414062 C 150.191406 132.414062 152.839844 135.074219 152.839844 138.339844 C 152.839844 141.601562 150.191406 144.261719 146.914062 144.261719 Z M 150.957031 219.472656 C 150.957031 222.742188 148.304688 225.398438 145.046875 225.398438 C 141.765625 225.398438 139.117188 222.742188 139.117188 219.472656 C 139.117188 216.210938 141.765625 213.550781 145.046875 213.550781 C 148.304688 213.554688 150.957031 216.210938 150.957031 219.472656 Z M 247.566406 178.476562 C 247.277344 166.058594 243.285156 154.308594 235.980469 144.375 C 237.273438 142.699219 238.039062 140.605469 238.039062 138.339844 C 238.039062 132.847656 233.570312 128.382812 228.085938 128.382812 C 225.722656 128.382812 223.566406 129.207031 221.851562 130.578125 C 201.289062 116.179688 173.71875 116.171875 153.148438 130.578125 C 151.433594 129.207031 149.273438 128.382812 146.914062 128.382812 C 141.425781 128.382812 136.960938 132.847656 136.960938 138.339844 C 136.960938 140.605469 137.726562 142.699219 139.015625 144.375 C 131.710938 154.308594 127.71875 166.058594 127.433594 178.476562 C 127.144531 190.894531 130.589844 202.816406 137.417969 213.074219 C 135.957031 214.808594 135.09375 217.039062 135.09375 219.472656 C 135.09375 224.964844 139.542969 229.429688 145.046875 229.429688 C 150.53125 229.429688 155 224.964844 155 219.472656 C 155 212.066406 147.175781 207.289062 140.59375 210.570312 C 127.976562 191.292969 128.570312 165.699219 142.074219 147.027344 C 148.613281 150.707031 156.867188 145.972656 156.867188 138.339844 C 156.867188 136.660156 156.460938 135.082031 155.730469 133.691406 C 174.703125 120.617188 200.296875 120.617188 219.269531 133.691406 C 215.828125 140.230469 220.539062 148.292969 228.085938 148.292969 C 229.835938 148.292969 231.480469 147.828125 232.925781 147.027344 C 246.429688 165.699219 247.023438 191.292969 234.402344 210.570312 C 227.824219 207.289062 220 212.066406 220 219.472656 C 220 224.964844 224.46875 229.429688 229.953125 229.429688 C 235.457031 229.429688 239.90625 224.964844 239.90625 219.472656 C 239.90625 217.039062 239.039062 214.808594 237.578125 213.074219 C 244.40625 202.820312 247.855469 190.894531 247.566406 178.476562 Z M 215.769531 203.480469 C 215.007812 204.292969 215.058594 205.570312 215.871094 206.328125 C 216.6875 207.085938 217.957031 207.042969 218.726562 206.230469 C 234.515625 189.410156 233.972656 162.816406 217.332031 146.566406 C 200.730469 130.347656 174.273438 130.34375 157.664062 146.566406 C 141.027344 162.824219 140.476562 189.382812 156.273438 206.230469 C 157.035156 207.039062 158.308594 207.085938 159.125 206.328125 C 159.941406 205.566406 159.992188 204.292969 159.226562 203.480469 C 145.011719 188.246094 145.570312 164.007812 160.484375 149.453125 C 175.378906 134.890625 199.617188 134.890625 214.511719 149.453125 C 229.425781 164.007812 229.988281 188.246094 215.769531 203.480469 Z M 204.273438 190.253906 C 212.695312 181.21875 212.375 166.835938 203.523438 158.199219 C 194.691406 149.5625 180.304688 149.5625 171.472656 158.199219 C 162.625 166.835938 162.285156 181.21875 170.726562 190.253906 C 171.492188 191.066406 171.441406 192.34375 170.625 193.101562 C 169.808594 193.863281 168.535156 193.816406 167.769531 193.003906 C 157.765625 182.304688 158.183594 165.542969 168.652344 155.316406 C 179.148438 145.0625 195.855469 145.070312 206.34375 155.316406 C 216.847656 165.566406 217.199219 182.371094 207.226562 193.003906 C 206.460938 193.8125 205.1875 193.859375 204.375 193.101562 C 203.558594 192.34375 203.507812 191.066406 204.273438 190.253906 Z M 169.605469 245.539062 L 187.21875 227.878906 L 204.816406 245.539062 L 205.546875 248.792969 L 168.890625 248.792969 Z M 176.160156 215.746094 L 184.433594 224.953125 L 171.21875 238.210938 Z M 187.21875 183.144531 C 188.507812 183.144531 189.765625 182.933594 190.9375 182.546875 L 197.1875 210.902344 L 187.21875 222.007812 L 177.230469 210.902344 L 183.480469 182.546875 C 184.652344 182.9375 185.910156 183.144531 187.21875 183.144531 Z M 187.21875 163.238281 C 191.582031 163.238281 195.152344 166.800781 195.152344 171.175781 C 195.152344 175.554688 191.582031 179.113281 187.21875 179.113281 C 182.835938 179.113281 179.269531 175.554688 179.269531 171.175781 C 179.269531 166.800781 182.835938 163.238281 187.21875 163.238281 Z M 203.203125 238.210938 L 189.988281 224.953125 L 198.257812 215.746094 Z M 222.445312 248.792969 L 209.671875 248.792969 L 194.640625 180.558594 C 197.410156 178.363281 199.175781 174.976562 199.175781 171.175781 C 199.175781 164.578125 193.808594 159.207031 187.21875 159.207031 C 180.613281 159.207031 175.246094 164.578125 175.246094 171.175781 C 175.246094 174.976562 177.027344 178.363281 179.796875 180.558594 L 164.765625 248.792969 L 151.992188 248.792969 C 150.871094 248.792969 149.96875 249.695312 149.96875 250.808594 C 149.96875 251.921875 150.871094 252.824219 151.992188 252.824219 L 222.445312 252.824219 C 223.550781 252.824219 224.449219 251.921875 224.449219 250.808594 C 224.449219 249.695312 223.550781 248.792969 222.445312 248.792969 Z M 222.445312 248.792969 " fill-opacity="1" fill-rule="evenodd"/></g><g fill="#fdfbee" fill-opacity="1"><g transform="translate(78.275437, 221.881552)"><g><path d="M -1.828125 -8.546875 C -1.441406 -6.984375 -1.445312 -5.5625 -1.84375 -4.28125 C -2.238281 -3 -2.957031 -1.910156 -4 -1.015625 C -5.050781 -0.117188 -6.363281 0.519531 -7.9375 0.90625 C -9.507812 1.289062 -10.96875 1.328125 -12.3125 1.015625 C -13.664062 0.710938 -14.816406 0.0859375 -15.765625 -0.859375 C -16.722656 -1.804688 -17.394531 -3.0625 -17.78125 -4.625 C -18.238281 -6.46875 -18.148438 -8.09375 -17.515625 -9.5 C -16.890625 -10.914062 -15.785156 -11.972656 -14.203125 -12.671875 L -13.421875 -9.5625 C -14.222656 -9.15625 -14.78125 -8.582031 -15.09375 -7.84375 C -15.414062 -7.113281 -15.453125 -6.234375 -15.203125 -5.203125 C -14.847656 -3.773438 -14.085938 -2.78125 -12.921875 -2.21875 C -11.753906 -1.65625 -10.328125 -1.582031 -8.640625 -2 C -6.953125 -2.414062 -5.726562 -3.140625 -4.96875 -4.171875 C -4.207031 -5.210938 -4.003906 -6.445312 -4.359375 -7.875 C -4.609375 -8.90625 -5.03125 -9.675781 -5.625 -10.1875 C -6.226562 -10.695312 -6.953125 -10.953125 -7.796875 -10.953125 L -8.578125 -14.0625 C -6.910156 -14.164062 -5.484375 -13.734375 -4.296875 -12.765625 C -3.109375 -11.796875 -2.285156 -10.390625 -1.828125 -8.546875 Z M -1.828125 -8.546875 "/></g></g></g><g fill="#fdfbee" fill-opacity="1"><g transform="translate(73.430159, 200.17522)"><g><path d="M -0.125 -8.984375 C -0.0507812 -7.410156 -0.332031 -6.015625 -0.96875 -4.796875 C -1.613281 -3.578125 -2.539062 -2.601562 -3.75 -1.875 C -4.957031 -1.144531 -6.367188 -0.742188 -7.984375 -0.671875 C -9.597656 -0.597656 -11.03125 -0.875 -12.28125 -1.5 C -13.539062 -2.125 -14.546875 -3.015625 -15.296875 -4.171875 C -16.046875 -5.328125 -16.457031 -6.691406 -16.53125 -8.265625 C -16.59375 -9.835938 -16.300781 -11.234375 -15.65625 -12.453125 C -15.007812 -13.679688 -14.085938 -14.65625 -12.890625 -15.375 C -11.691406 -16.09375 -10.285156 -16.488281 -8.671875 -16.5625 C -7.054688 -16.632812 -5.613281 -16.363281 -4.34375 -15.75 C -3.082031 -15.132812 -2.078125 -14.242188 -1.328125 -13.078125 C -0.585938 -11.921875 -0.1875 -10.554688 -0.125 -8.984375 Z M -2.734375 -8.875 C -2.796875 -10.382812 -3.34375 -11.566406 -4.375 -12.421875 C -5.40625 -13.273438 -6.789062 -13.664062 -8.53125 -13.59375 C -10.257812 -13.519531 -11.601562 -13.007812 -12.5625 -12.0625 C -13.53125 -11.125 -13.984375 -9.898438 -13.921875 -8.390625 C -13.859375 -6.890625 -13.304688 -5.707031 -12.265625 -4.84375 C -11.222656 -3.976562 -9.835938 -3.582031 -8.109375 -3.65625 C -6.367188 -3.726562 -5.019531 -4.238281 -4.0625 -5.1875 C -3.113281 -6.144531 -2.671875 -7.375 -2.734375 -8.875 Z M -2.734375 -8.875 "/></g></g></g><g fill="#fdfbee" fill-opacity="1"><g transform="translate(73.03993, 176.708568)"><g><path d="M 0.234375 -1.53125 L -15.453125 -3.96875 L -15 -6.84375 L -2.8125 -12.484375 L -13.859375 -14.203125 L -13.421875 -17.078125 L 2.265625 -14.640625 L 1.828125 -11.765625 L -10.34375 -6.125 L 0.6875 -4.40625 Z M 0.234375 -1.53125 "/></g></g></g><g fill="#fdfbee" fill-opacity="1"><g transform="translate(76.92766, 155.131926)"><g><path d="M 0.515625 -1.453125 L -14.421875 -6.8125 L -13.4375 -9.546875 L -0.40625 -12.796875 L -10.921875 -16.5625 L -9.9375 -19.296875 L 5 -13.9375 L 4.015625 -11.203125 L -9 -7.953125 L 1.5 -4.1875 Z M 0.515625 -1.453125 "/></g></g></g><g fill="#fdfbee" fill-opacity="1"><g transform="translate(84.96424, 134.659753)"><g><path d="M 0.765625 -1.34375 L -13 -9.25 L -7.828125 -18.234375 L -5.8125 -17.078125 L -9.53125 -10.609375 L -5.75 -8.4375 L -2.375 -14.3125 L -0.40625 -13.1875 L -3.78125 -7.3125 L 0.1875 -5.03125 L 3.90625 -11.5 L 5.9375 -10.328125 Z M 0.765625 -1.34375 "/></g></g></g><g fill="#fdfbee" fill-opacity="1"><g transform="translate(94.611835, 118.563884)"><g><path d="M 5.828125 -6.5 C 4.796875 -5.28125 3.644531 -4.453125 2.375 -4.015625 C 1.113281 -3.578125 -0.179688 -3.515625 -1.515625 -3.828125 C -2.859375 -4.148438 -4.15625 -4.835938 -5.40625 -5.890625 C -6.632812 -6.929688 -7.519531 -8.085938 -8.0625 -9.359375 C -8.613281 -10.628906 -8.785156 -11.929688 -8.578125 -13.265625 C -8.367188 -14.597656 -7.75 -15.875 -6.71875 -17.09375 C -5.488281 -18.550781 -4.117188 -19.4375 -2.609375 -19.75 C -1.097656 -20.070312 0.40625 -19.800781 1.90625 -18.9375 L -0.15625 -16.5 C -0.945312 -16.894531 -1.734375 -17.003906 -2.515625 -16.828125 C -3.304688 -16.660156 -4.046875 -16.171875 -4.734375 -15.359375 C -5.671875 -14.234375 -6.023438 -13.03125 -5.796875 -11.75 C -5.578125 -10.476562 -4.804688 -9.285156 -3.484375 -8.171875 C -2.148438 -7.046875 -0.835938 -6.476562 0.453125 -6.46875 C 1.742188 -6.46875 2.859375 -7.03125 3.796875 -8.15625 C 4.484375 -8.96875 4.859375 -9.765625 4.921875 -10.546875 C 4.984375 -11.328125 4.769531 -12.0625 4.28125 -12.75 L 6.34375 -15.1875 C 7.394531 -13.90625 7.878906 -12.5 7.796875 -10.96875 C 7.710938 -9.445312 7.054688 -7.957031 5.828125 -6.5 Z M 5.828125 -6.5 "/></g></g></g><g fill="#fdfbee" fill-opacity="1"><g transform="translate(109.510489, 101.916382)"><g><path d="M 4.03125 -3.328125 L -4.59375 -13.78125 L -8.15625 -10.84375 L -9.640625 -12.625 L -0.25 -20.375 L 1.234375 -18.59375 L -2.34375 -15.640625 L 6.28125 -5.1875 Z M 4.03125 -3.328125 "/></g></g></g><g fill="#fdfbee" fill-opacity="1"><g transform="translate(124.825665, 90.128984)"><g><path d="M 1.65625 2.0625 L -0.234375 -3.40625 L 2.15625 -4.90625 L 3.265625 1.0625 Z M 1.65625 2.0625 "/></g></g></g><g fill="#fdfbee" fill-opacity="1"><g transform="translate(134.643181, 84.36159)"><g/></g></g><g fill="#fdfbee" fill-opacity="1"><g transform="translate(144.901434, 79.481532)"><g><path d="M 1.46875 -0.5 L -3.640625 -15.53125 L -0.890625 -16.46875 L 3.484375 -3.578125 L 10.140625 -5.84375 L 10.875 -3.703125 Z M 1.46875 -0.5 "/></g></g></g><g fill="#fdfbee" fill-opacity="1"><g transform="translate(162.15896, 73.886074)"><g><path d="M 8.921875 -1.046875 C 7.347656 -0.816406 5.925781 -0.957031 4.65625 -1.46875 C 3.382812 -1.988281 2.320312 -2.804688 1.46875 -3.921875 C 0.613281 -5.046875 0.0703125 -6.410156 -0.15625 -8.015625 C -0.394531 -9.617188 -0.269531 -11.078125 0.21875 -12.390625 C 0.707031 -13.703125 1.488281 -14.789062 2.5625 -15.65625 C 3.632812 -16.519531 4.957031 -17.066406 6.53125 -17.296875 C 8.082031 -17.523438 9.5 -17.378906 10.78125 -16.859375 C 12.0625 -16.347656 13.117188 -15.535156 13.953125 -14.421875 C 14.796875 -13.304688 15.335938 -11.945312 15.578125 -10.34375 C 15.804688 -8.738281 15.679688 -7.273438 15.203125 -5.953125 C 14.734375 -4.640625 13.957031 -3.550781 12.875 -2.6875 C 11.789062 -1.820312 10.472656 -1.273438 8.921875 -1.046875 Z M 8.546875 -3.625 C 10.035156 -3.84375 11.148438 -4.507812 11.890625 -5.625 C 12.640625 -6.75 12.890625 -8.175781 12.640625 -9.90625 C 12.378906 -11.625 11.726562 -12.910156 10.6875 -13.765625 C 9.65625 -14.617188 8.394531 -14.9375 6.90625 -14.71875 C 5.40625 -14.5 4.28125 -13.828125 3.53125 -12.703125 C 2.78125 -11.578125 2.535156 -10.15625 2.796875 -8.4375 C 3.046875 -6.707031 3.691406 -5.414062 4.734375 -4.5625 C 5.773438 -3.71875 7.046875 -3.40625 8.546875 -3.625 Z M 8.546875 -3.625 "/></g></g></g><g fill="#fdfbee" fill-opacity="1"><g transform="translate(185.447001, 71.055772)"><g><path d="M 8.703125 0.71875 C 7.097656 0.632812 5.738281 0.222656 4.625 -0.515625 C 3.519531 -1.265625 2.6875 -2.269531 2.125 -3.53125 C 1.570312 -4.800781 1.335938 -6.242188 1.421875 -7.859375 C 1.503906 -9.472656 1.882812 -10.878906 2.5625 -12.078125 C 3.25 -13.285156 4.179688 -14.207031 5.359375 -14.84375 C 6.546875 -15.488281 7.941406 -15.769531 9.546875 -15.6875 C 11.453125 -15.59375 12.988281 -15.039062 14.15625 -14.03125 C 15.332031 -13.019531 16.03125 -11.648438 16.25 -9.921875 L 13.046875 -10.09375 C 12.890625 -10.96875 12.503906 -11.664062 11.890625 -12.1875 C 11.273438 -12.707031 10.4375 -12.992188 9.375 -13.046875 C 7.90625 -13.128906 6.734375 -12.691406 5.859375 -11.734375 C 4.984375 -10.785156 4.5 -9.441406 4.40625 -7.703125 C 4.320312 -5.972656 4.664062 -4.59375 5.4375 -3.5625 C 6.207031 -2.53125 7.328125 -1.972656 8.796875 -1.890625 C 9.859375 -1.835938 10.71875 -2.023438 11.375 -2.453125 C 12.039062 -2.878906 12.492188 -3.5 12.734375 -4.3125 L 15.9375 -4.140625 C 15.550781 -2.523438 14.722656 -1.285156 13.453125 -0.421875 C 12.191406 0.429688 10.609375 0.8125 8.703125 0.71875 Z M 8.703125 0.71875 "/></g></g></g><g fill="#fdfbee" fill-opacity="1"><g transform="translate(207.667219, 72.774334)"><g><path d="M 0.5 0.125 L 9.9375 -13.890625 L 13.109375 -13.109375 L 14.953125 3.6875 L 11.953125 2.953125 L 11.59375 -0.921875 L 5.59375 -2.40625 L 3.453125 0.859375 Z M 6.90625 -4.40625 L 11.375 -3.3125 L 10.703125 -10.28125 Z M 6.90625 -4.40625 "/></g></g></g><g fill="#fdfbee" fill-opacity="1"><g transform="translate(228.434375, 78.525159)"><g><path d="M 4.78125 2.125 L 10.28125 -10.25 L 6.0625 -12.125 L 7.015625 -14.25 L 18.140625 -9.296875 L 17.1875 -7.171875 L 12.9375 -9.0625 L 7.4375 3.3125 Z M 4.78125 2.125 "/></g></g></g><g fill="#fdfbee" fill-opacity="1"><g transform="translate(245.712069, 86.739023)"><g><path d="M 1.296875 0.859375 L 10.046875 -12.390625 L 18.6875 -6.6875 L 17.40625 -4.75 L 11.1875 -8.859375 L 8.78125 -5.21875 L 14.4375 -1.484375 L 13.1875 0.40625 L 7.53125 -3.328125 L 5.015625 0.5 L 11.234375 4.609375 L 9.9375 6.5625 Z M 1.296875 0.859375 "/></g></g></g><g fill="#fdfbee" fill-opacity="1"><g transform="translate(261.233944, 97.765633)"><g><path d="M -1.484375 2.1875 L 3.203125 -1.21875 L 5.328125 0.625 L -0.046875 3.4375 Z M -1.484375 2.1875 "/></g></g></g><g fill="#fdfbee" fill-opacity="1"><g transform="translate(269.628408, 105.458979)"><g/></g></g><g fill="#fdfbee" fill-opacity="1"><g transform="translate(277.318422, 113.765868)"><g><path d="M 0.890625 1.265625 L 13.8125 -7.953125 L 17.203125 -3.21875 C 17.941406 -2.175781 18.375 -1.195312 18.5 -0.28125 C 18.632812 0.632812 18.523438 1.472656 18.171875 2.234375 C 17.816406 3.003906 17.273438 3.644531 16.546875 4.15625 C 15.753906 4.71875 14.878906 5.023438 13.921875 5.078125 C 12.972656 5.128906 12.039062 4.820312 11.125 4.15625 L 7.625 10.703125 L 5.6875 7.96875 L 9.078125 1.9375 L 7.671875 -0.015625 L 2.578125 3.625 Z M 9.40625 -1.25 L 11 0.96875 C 11.5625 1.757812 12.164062 2.203125 12.8125 2.296875 C 13.457031 2.398438 14.097656 2.226562 14.734375 1.78125 C 15.347656 1.34375 15.707031 0.8125 15.8125 0.1875 C 15.925781 -0.4375 15.695312 -1.15625 15.125 -1.96875 L 13.53125 -4.1875 Z M 9.40625 -1.25 "/></g></g></g><g fill="#fdfbee" fill-opacity="1"><g transform="translate(288.408571, 130.21196)"><g><path d="M 0.671875 1.390625 L 14.953125 -5.53125 L 19.46875 3.796875 L 17.375 4.8125 L 14.125 -1.90625 L 10.203125 -0.015625 L 13.171875 6.09375 L 11.140625 7.09375 L 8.171875 0.984375 L 4.046875 2.984375 L 7.296875 9.703125 L 5.1875 10.71875 Z M 0.671875 1.390625 "/></g></g></g><g fill="#fdfbee" fill-opacity="1"><g transform="translate(296.210251, 147.357257)"><g><path d="M 1.71875 6.765625 C 1.382812 5.640625 1.285156 4.59375 1.421875 3.625 C 1.554688 2.65625 1.90625 1.816406 2.46875 1.109375 C 3.039062 0.410156 3.835938 -0.0976562 4.859375 -0.421875 L 5.734375 2.53125 C 5.023438 2.757812 4.5 3.1875 4.15625 3.8125 C 3.8125 4.445312 3.765625 5.191406 4.015625 6.046875 C 4.234375 6.785156 4.585938 7.316406 5.078125 7.640625 C 5.566406 7.972656 6.109375 8.050781 6.703125 7.875 C 7.328125 7.695312 7.753906 7.367188 7.984375 6.890625 C 8.222656 6.410156 8.351562 5.816406 8.375 5.109375 C 8.40625 4.410156 8.4375 3.660156 8.46875 2.859375 C 8.53125 1.554688 8.789062 0.503906 9.25 -0.296875 C 9.707031 -1.109375 10.46875 -1.664062 11.53125 -1.96875 C 12.414062 -2.238281 13.25 -2.25 14.03125 -2 C 14.8125 -1.757812 15.488281 -1.304688 16.0625 -0.640625 C 16.644531 0.0234375 17.085938 0.859375 17.390625 1.859375 C 17.679688 2.867188 17.757812 3.816406 17.625 4.703125 C 17.488281 5.585938 17.160156 6.347656 16.640625 6.984375 C 16.117188 7.628906 15.414062 8.09375 14.53125 8.375 L 13.65625 5.40625 C 14.175781 5.226562 14.582031 4.878906 14.875 4.359375 C 15.175781 3.847656 15.222656 3.234375 15.015625 2.515625 C 14.847656 1.890625 14.550781 1.421875 14.125 1.109375 C 13.695312 0.796875 13.179688 0.726562 12.578125 0.90625 C 12.078125 1.050781 11.722656 1.328125 11.515625 1.734375 C 11.316406 2.140625 11.191406 2.644531 11.140625 3.25 C 11.097656 3.851562 11.066406 4.550781 11.046875 5.34375 C 11.003906 6.175781 10.898438 6.953125 10.734375 7.671875 C 10.566406 8.398438 10.253906 9.035156 9.796875 9.578125 C 9.335938 10.117188 8.660156 10.519531 7.765625 10.78125 C 6.960938 11.019531 6.160156 11.039062 5.359375 10.84375 C 4.554688 10.644531 3.832031 10.203125 3.1875 9.515625 C 2.539062 8.835938 2.050781 7.921875 1.71875 6.765625 Z M 1.71875 6.765625 "/></g></g></g><g fill="#fdfbee" fill-opacity="1"><g transform="translate(301.266345, 165.861556)"><g><path d="M 0.65625 8.71875 C 0.488281 7.125 0.679688 5.71875 1.234375 4.5 C 1.796875 3.28125 2.65625 2.296875 3.8125 1.546875 C 4.976562 0.804688 6.367188 0.351562 7.984375 0.1875 C 9.585938 0.0078125 11.035156 0.160156 12.328125 0.640625 C 13.628906 1.128906 14.6875 1.910156 15.5 2.984375 C 16.320312 4.054688 16.816406 5.390625 16.984375 6.984375 C 17.179688 8.878906 16.875 10.484375 16.0625 11.796875 C 15.25 13.109375 14.007812 14.003906 12.34375 14.484375 L 12 11.3125 C 12.84375 11.019531 13.472656 10.523438 13.890625 9.828125 C 14.304688 9.140625 14.457031 8.269531 14.34375 7.21875 C 14.195312 5.757812 13.582031 4.671875 12.5 3.953125 C 11.425781 3.234375 10.023438 2.96875 8.296875 3.15625 C 6.566406 3.332031 5.253906 3.882812 4.359375 4.8125 C 3.460938 5.738281 3.085938 6.929688 3.234375 8.390625 C 3.347656 9.441406 3.664062 10.265625 4.1875 10.859375 C 4.71875 11.453125 5.398438 11.804688 6.234375 11.921875 L 6.578125 15.09375 C 4.921875 14.96875 3.566406 14.347656 2.515625 13.234375 C 1.472656 12.117188 0.851562 10.613281 0.65625 8.71875 Z M 0.65625 8.71875 "/></g></g></g><g fill="#fdfbee" fill-opacity="1"><g transform="translate(303.029702, 188.0859)"><g><path d="M -0.90625 7.625 C -0.800781 6.46875 -0.484375 5.4375 0.046875 4.53125 C 0.578125 3.632812 1.332031 2.953125 2.3125 2.484375 C 3.289062 2.015625 4.5 1.835938 5.9375 1.953125 L 15.6875 2.765625 L 15.453125 5.65625 L 5.6875 4.84375 C 4.445312 4.738281 3.492188 4.957031 2.828125 5.5 C 2.171875 6.050781 1.800781 6.851562 1.71875 7.90625 C 1.632812 8.945312 1.867188 9.789062 2.421875 10.4375 C 2.984375 11.09375 3.882812 11.472656 5.125 11.578125 L 14.890625 12.390625 L 14.65625 15.28125 L 4.90625 14.46875 C 3.46875 14.351562 2.304688 13.96875 1.421875 13.3125 C 0.535156 12.664062 -0.09375 11.847656 -0.46875 10.859375 C -0.851562 9.867188 -1 8.789062 -0.90625 7.625 Z M -0.90625 7.625 "/></g></g></g><g fill="#fdfbee" fill-opacity="1"><g transform="translate(300.691663, 209.068056)"><g><path d="M -0.390625 1.5 L 14.96875 5.53125 L 12.34375 15.546875 L 10.09375 14.953125 L 11.984375 7.75 L 7.765625 6.640625 L 6.046875 13.1875 L 3.859375 12.609375 L 5.578125 6.0625 L 1.140625 4.90625 L -0.75 12.109375 L -3.015625 11.515625 Z M -0.390625 1.5 "/></g></g></g></svg>