<svg xmlns="http://www.w3.org/2000/svg" xmlns:xlink="http://www.w3.org/1999/xlink" width="500" zoomAndPan="magnify" viewBox="0 0 375 374.999991" height="500" preserveAspectRatio="xMidYMid meet" version="1.0"><defs><g/><clipPath id="69c2824912"><path d="M 71.695312 93.035156 L 193 93.035156 L 193 192.035156 L 71.695312 192.035156 Z M 71.695312 93.035156 " clip-rule="nonzero"/></clipPath><clipPath id="1c99159f11"><path d="M 182 93.035156 L 303.445312 93.035156 L 303.445312 192.035156 L 182 192.035156 Z M 182 93.035156 " clip-rule="nonzero"/></clipPath><clipPath id="036873739a"><path d="M 216 208 L 226 208 L 226 227.476562 L 216 227.476562 Z M 216 208 " clip-rule="nonzero"/></clipPath></defs><g fill="#e07a5f" fill-opacity="1"><g transform="translate(74.656245, 227.416684)"><g><path d="M 20.140625 0 L 14.25 -10.359375 L 10.046875 -10.359375 L 10.046875 0 L 3.46875 0 L 3.46875 -30.328125 L 15.734375 -30.328125 C 17.753906 -30.328125 19.554688 -29.894531 21.140625 -29.03125 C 22.734375 -28.164062 23.988281 -26.976562 24.90625 -25.46875 C 25.832031 -23.96875 26.296875 -22.238281 26.296875 -20.28125 C 26.296875 -18.3125 25.796875 -16.550781 24.796875 -15 C 23.804688 -13.457031 22.472656 -12.285156 20.796875 -11.484375 L 27.515625 0 Z M 10.046875 -24.265625 L 10.046875 -16.421875 L 15.296875 -16.421875 C 16.648438 -16.421875 17.71875 -16.785156 18.5 -17.515625 C 19.28125 -18.253906 19.671875 -19.191406 19.671875 -20.328125 C 19.671875 -21.472656 19.28125 -22.414062 18.5 -23.15625 C 17.71875 -23.894531 16.648438 -24.265625 15.296875 -24.265625 Z M 10.046875 -24.265625 "/></g></g></g><g fill="#e07a5f" fill-opacity="1"><g transform="translate(103.293595, 227.416684)"><g><path d="M 10.046875 -6.109375 L 22.140625 -6.109375 L 22.140625 0 L 3.46875 0 L 3.46875 -30.328125 L 21.65625 -30.328125 L 21.65625 -24.265625 L 10.046875 -24.265625 L 10.046875 -18.28125 L 20.53125 -18.28125 L 20.53125 -12.34375 L 10.046875 -12.34375 Z M 10.046875 -6.109375 "/></g></g></g><g fill="#e07a5f" fill-opacity="1"><g transform="translate(127.511878, 227.416684)"><g><path d="M 13.515625 0.609375 C 11.203125 0.609375 9.164062 0.191406 7.40625 -0.640625 C 5.644531 -1.484375 4.265625 -2.679688 3.265625 -4.234375 C 2.273438 -5.796875 1.78125 -7.660156 1.78125 -9.828125 L 8.40625 -9.828125 C 8.40625 -8.359375 8.914062 -7.269531 9.9375 -6.5625 C 10.96875 -5.851562 12.144531 -5.5 13.46875 -5.5 C 14.3125 -5.5 15.097656 -5.632812 15.828125 -5.90625 C 16.566406 -6.1875 17.175781 -6.59375 17.65625 -7.125 C 18.132812 -7.65625 18.375 -8.300781 18.375 -9.0625 C 18.375 -9.832031 18.097656 -10.441406 17.546875 -10.890625 C 16.992188 -11.335938 16.253906 -11.707031 15.328125 -12 C 14.410156 -12.289062 13.40625 -12.566406 12.3125 -12.828125 C 11.175781 -13.085938 10.015625 -13.40625 8.828125 -13.78125 C 7.648438 -14.15625 6.554688 -14.648438 5.546875 -15.265625 C 4.535156 -15.890625 3.722656 -16.726562 3.109375 -17.78125 C 2.503906 -18.84375 2.203125 -20.179688 2.203125 -21.796875 C 2.203125 -24.710938 3.191406 -26.957031 5.171875 -28.53125 C 7.148438 -30.101562 9.832031 -30.890625 13.21875 -30.890625 C 16.6875 -30.890625 19.375 -30.015625 21.28125 -28.265625 C 23.1875 -26.523438 24.140625 -24.148438 24.140625 -21.140625 L 17.640625 -21.140625 C 17.640625 -22.441406 17.175781 -23.398438 16.25 -24.015625 C 15.320312 -24.640625 14.253906 -24.953125 13.046875 -24.953125 C 11.972656 -24.953125 10.988281 -24.722656 10.09375 -24.265625 C 9.195312 -23.804688 8.75 -23.082031 8.75 -22.09375 C 8.75 -21.375 9.015625 -20.800781 9.546875 -20.375 C 10.085938 -19.957031 10.796875 -19.613281 11.671875 -19.34375 C 12.554688 -19.070312 13.53125 -18.804688 14.59375 -18.546875 C 15.75 -18.253906 16.929688 -17.910156 18.140625 -17.515625 C 19.359375 -17.128906 20.488281 -16.601562 21.53125 -15.9375 C 22.570312 -15.28125 23.414062 -14.398438 24.0625 -13.296875 C 24.71875 -12.203125 25.046875 -10.816406 25.046875 -9.140625 C 25.046875 -6.941406 24.515625 -5.117188 23.453125 -3.671875 C 22.398438 -2.234375 21.007812 -1.160156 19.28125 -0.453125 C 17.550781 0.253906 15.628906 0.609375 13.515625 0.609375 Z M 13.515625 0.609375 "/></g></g></g><g fill="#e07a5f" fill-opacity="1"><g transform="translate(154.329618, 227.416684)"><g><path d="M 35.1875 3.25 L 28.515625 3.25 L 24.953125 -0.828125 C 23.890625 -0.359375 22.765625 0.00390625 21.578125 0.265625 C 20.390625 0.523438 19.144531 0.65625 17.84375 0.65625 C 15.539062 0.65625 13.40625 0.257812 11.4375 -0.53125 C 9.476562 -1.332031 7.765625 -2.445312 6.296875 -3.875 C 4.835938 -5.300781 3.703125 -6.972656 2.890625 -8.890625 C 2.085938 -10.816406 1.6875 -12.910156 1.6875 -15.171875 C 1.6875 -17.421875 2.085938 -19.503906 2.890625 -21.421875 C 3.703125 -23.347656 4.835938 -25.023438 6.296875 -26.453125 C 7.765625 -27.878906 9.476562 -28.988281 11.4375 -29.78125 C 13.40625 -30.582031 15.539062 -30.984375 17.84375 -30.984375 C 20.15625 -30.984375 22.289062 -30.582031 24.25 -29.78125 C 26.21875 -28.988281 27.925781 -27.878906 29.375 -26.453125 C 30.820312 -25.023438 31.945312 -23.347656 32.75 -21.421875 C 33.5625 -19.503906 33.96875 -17.421875 33.96875 -15.171875 C 33.96875 -12.859375 33.539062 -10.71875 32.6875 -8.75 C 31.832031 -6.789062 30.671875 -5.101562 29.203125 -3.6875 Z M 17.84375 -5.546875 C 18.800781 -5.546875 19.710938 -5.660156 20.578125 -5.890625 L 14.5625 -12.875 L 21.234375 -12.875 L 24.90625 -8.625 C 25.664062 -9.457031 26.257812 -10.429688 26.6875 -11.546875 C 27.125 -12.660156 27.34375 -13.867188 27.34375 -15.171875 C 27.34375 -16.984375 26.929688 -18.617188 26.109375 -20.078125 C 25.285156 -21.535156 24.15625 -22.679688 22.71875 -23.515625 C 21.289062 -24.359375 19.664062 -24.78125 17.84375 -24.78125 C 16.0625 -24.78125 14.445312 -24.359375 13 -23.515625 C 11.550781 -22.679688 10.40625 -21.535156 9.5625 -20.078125 C 8.726562 -18.617188 8.3125 -16.984375 8.3125 -15.171875 C 8.3125 -13.347656 8.726562 -11.707031 9.5625 -10.25 C 10.40625 -8.789062 11.550781 -7.640625 13 -6.796875 C 14.445312 -5.960938 16.0625 -5.546875 17.84375 -5.546875 Z M 17.84375 -5.546875 "/></g></g></g><g fill="#e07a5f" fill-opacity="1"><g transform="translate(190.072158, 227.416684)"><g><path d="M 10.046875 -6.109375 L 21.65625 -6.109375 L 21.65625 0 L 3.46875 0 L 3.46875 -30.328125 L 10.046875 -30.328125 Z M 10.046875 -6.109375 "/></g></g></g><g fill="#e07a5f" fill-opacity="1"><g transform="translate(212.691396, 227.416684)"><g/></g></g><g fill="#e07a5f" fill-opacity="1"><g transform="translate(223.045907, 227.416684)"><g/></g></g><g fill="#e07a5f" fill-opacity="1"><g transform="translate(233.410145, 227.416684)"><g><path d="M 22.703125 -30.328125 L 29.109375 -30.328125 L 29.109375 0 L 23.65625 0 L 9.921875 -18.9375 L 9.921875 0 L 3.46875 0 L 3.46875 -30.328125 L 9.40625 -30.328125 L 22.703125 -11.828125 Z M 22.703125 -30.328125 "/></g></g></g><g fill="#e07a5f" fill-opacity="1"><g transform="translate(265.990007, 227.416684)"><g><path d="M 28.765625 0 L 20.75 0 L 10.046875 -14.8125 L 10.046875 0 L 3.46875 0 L 3.46875 -30.328125 L 10.046875 -30.328125 L 10.046875 -16.328125 L 19.96875 -30.328125 L 27.640625 -30.328125 L 17.28125 -15.8125 Z M 28.765625 0 "/></g></g></g><path fill="#1b4d3e" d="M 155.265625 135.699219 C 155.265625 136.089844 155.230469 136.472656 155.152344 136.851562 C 155.078125 137.234375 154.964844 137.605469 154.816406 137.960938 C 154.667969 138.320312 154.484375 138.664062 154.269531 138.984375 C 154.054688 139.308594 153.808594 139.605469 153.535156 139.882812 C 153.261719 140.15625 152.960938 140.402344 152.640625 140.617188 C 152.316406 140.832031 151.976562 141.015625 151.617188 141.164062 C 151.257812 141.3125 150.886719 141.421875 150.507812 141.5 C 150.125 141.574219 149.742188 141.613281 149.355469 141.613281 C 148.964844 141.613281 148.582031 141.574219 148.199219 141.5 C 147.820312 141.421875 147.449219 141.3125 147.089844 141.164062 C 146.734375 141.015625 146.390625 140.832031 146.070312 140.617188 C 145.746094 140.402344 145.449219 140.15625 145.171875 139.882812 C 144.898438 139.605469 144.652344 139.308594 144.4375 138.984375 C 144.222656 138.664062 144.039062 138.320312 143.890625 137.960938 C 143.742188 137.605469 143.628906 137.234375 143.554688 136.851562 C 143.480469 136.472656 143.441406 136.089844 143.441406 135.699219 C 143.441406 135.3125 143.480469 134.925781 143.554688 134.546875 C 143.628906 134.164062 143.742188 133.796875 143.890625 133.4375 C 144.039062 133.078125 144.222656 132.738281 144.4375 132.414062 C 144.652344 132.09375 144.898438 131.792969 145.171875 131.519531 C 145.449219 131.246094 145.746094 131 146.070312 130.785156 C 146.390625 130.566406 146.734375 130.386719 147.089844 130.238281 C 147.449219 130.089844 147.820312 129.976562 148.199219 129.902344 C 148.582031 129.824219 148.964844 129.789062 149.355469 129.789062 C 149.742188 129.789062 150.125 129.824219 150.507812 129.902344 C 150.886719 129.976562 151.257812 130.089844 151.617188 130.238281 C 151.976562 130.386719 152.316406 130.566406 152.640625 130.785156 C 152.960938 131 153.261719 131.246094 153.535156 131.519531 C 153.808594 131.792969 154.054688 132.09375 154.269531 132.414062 C 154.484375 132.738281 154.667969 133.078125 154.816406 133.4375 C 154.964844 133.796875 155.078125 134.164062 155.152344 134.546875 C 155.230469 134.925781 155.265625 135.3125 155.265625 135.699219 Z M 155.265625 135.699219 " fill-opacity="1" fill-rule="nonzero"/><path fill="#1b4d3e" d="M 130.660156 129.785156 C 133.925781 129.785156 136.574219 132.433594 136.574219 135.699219 C 136.574219 138.964844 133.925781 141.613281 130.660156 141.613281 C 127.394531 141.613281 124.746094 138.964844 124.746094 135.699219 C 124.746094 132.433594 127.394531 129.785156 130.660156 129.785156 Z M 130.660156 129.785156 " fill-opacity="1" fill-rule="nonzero"/><path fill="#1b4d3e" d="M 117.878906 135.699219 C 117.878906 136.089844 117.84375 136.472656 117.765625 136.851562 C 117.691406 137.234375 117.578125 137.605469 117.429688 137.960938 C 117.28125 138.320312 117.101562 138.664062 116.882812 138.984375 C 116.667969 139.308594 116.421875 139.605469 116.148438 139.882812 C 115.875 140.15625 115.574219 140.402344 115.253906 140.617188 C 114.929688 140.832031 114.589844 141.015625 114.230469 141.164062 C 113.871094 141.3125 113.503906 141.421875 113.121094 141.5 C 112.742188 141.574219 112.355469 141.613281 111.96875 141.613281 C 111.578125 141.613281 111.195312 141.574219 110.8125 141.5 C 110.433594 141.421875 110.0625 141.3125 109.707031 141.164062 C 109.347656 141.015625 109.003906 140.832031 108.683594 140.617188 C 108.359375 140.402344 108.0625 140.15625 107.785156 139.882812 C 107.511719 139.605469 107.265625 139.308594 107.050781 138.984375 C 106.835938 138.664062 106.652344 138.320312 106.503906 137.960938 C 106.355469 137.605469 106.246094 137.234375 106.167969 136.851562 C 106.09375 136.472656 106.054688 136.089844 106.054688 135.699219 C 106.054688 135.3125 106.09375 134.925781 106.167969 134.546875 C 106.246094 134.164062 106.355469 133.796875 106.503906 133.4375 C 106.652344 133.078125 106.835938 132.738281 107.050781 132.414062 C 107.265625 132.09375 107.511719 131.792969 107.785156 131.519531 C 108.0625 131.246094 108.359375 131 108.683594 130.785156 C 109.003906 130.566406 109.347656 130.386719 109.707031 130.238281 C 110.0625 130.089844 110.433594 129.976562 110.8125 129.902344 C 111.195312 129.824219 111.578125 129.789062 111.96875 129.789062 C 112.355469 129.789062 112.742188 129.824219 113.121094 129.902344 C 113.503906 129.976562 113.871094 130.089844 114.230469 130.238281 C 114.589844 130.386719 114.929688 130.566406 115.253906 130.785156 C 115.574219 131 115.875 131.246094 116.148438 131.519531 C 116.421875 131.792969 116.667969 132.09375 116.882812 132.414062 C 117.101562 132.738281 117.28125 133.078125 117.429688 133.4375 C 117.578125 133.796875 117.691406 134.164062 117.765625 134.546875 C 117.84375 134.925781 117.878906 135.3125 117.878906 135.699219 Z M 117.878906 135.699219 " fill-opacity="1" fill-rule="nonzero"/><path fill="#690b22" d="M 263.027344 129.785156 C 266.292969 129.785156 268.941406 132.433594 268.941406 135.699219 C 268.941406 138.964844 266.292969 141.613281 263.027344 141.613281 C 259.761719 141.613281 257.117188 138.964844 257.117188 135.699219 C 257.117188 132.433594 259.761719 129.785156 263.027344 129.785156 Z M 263.027344 129.785156 " fill-opacity="1" fill-rule="nonzero"/><path fill="#690b22" d="M 244.335938 129.785156 C 247.601562 129.785156 250.25 132.433594 250.25 135.699219 C 250.25 138.964844 247.601562 141.613281 244.335938 141.613281 C 241.070312 141.613281 238.421875 138.964844 238.421875 135.699219 C 238.421875 132.433594 241.070312 129.785156 244.335938 129.785156 Z M 244.335938 129.785156 " fill-opacity="1" fill-rule="nonzero"/><path fill="#690b22" d="M 225.644531 129.785156 C 228.910156 129.785156 231.554688 132.433594 231.554688 135.699219 C 231.554688 138.964844 228.910156 141.613281 225.644531 141.613281 C 222.378906 141.613281 219.730469 138.964844 219.730469 135.699219 C 219.730469 132.433594 222.378906 129.785156 225.644531 129.785156 Z M 225.644531 129.785156 " fill-opacity="1" fill-rule="nonzero"/><g clip-path="url(#69c2824912)"><path fill="#690b22" d="M 187.5 117.695312 C 184.5625 117.695312 182.183594 120.074219 182.183594 123.011719 L 182.183594 154.9375 C 182.183594 161.660156 176.714844 167.132812 169.992188 167.132812 L 125.03125 167.132812 L 116.402344 176.441406 L 107.777344 167.132812 L 94.519531 167.132812 C 87.796875 167.132812 82.324219 161.660156 82.324219 154.9375 L 82.324219 115.996094 C 82.324219 109.273438 87.796875 103.800781 94.519531 103.800781 L 171.300781 103.800781 C 172.714844 99.898438 174.785156 96.3125 177.386719 93.171875 L 94.519531 93.171875 C 81.933594 93.171875 71.695312 103.410156 71.695312 115.996094 L 71.695312 154.9375 C 71.695312 167.523438 81.933594 177.761719 94.519531 177.761719 L 103.132812 177.761719 L 116.402344 192.085938 L 129.671875 177.761719 L 169.992188 177.761719 C 182.574219 177.761719 192.8125 167.523438 192.8125 154.9375 L 192.8125 123.011719 C 192.8125 120.074219 190.433594 117.695312 187.5 117.695312 Z M 187.5 117.695312 " fill-opacity="1" fill-rule="nonzero"/></g><g clip-path="url(#1c99159f11)"><path fill="#1b4d3e" d="M 280.480469 93.171875 L 205.007812 93.171875 C 192.421875 93.171875 182.183594 103.410156 182.183594 115.996094 L 182.183594 134.210938 C 182.183594 137.148438 184.5625 139.527344 187.5 139.527344 C 190.433594 139.527344 192.8125 137.148438 192.8125 134.210938 L 192.8125 115.996094 C 192.8125 109.273438 198.285156 103.800781 205.007812 103.800781 L 280.480469 103.800781 C 287.203125 103.800781 292.671875 109.273438 292.671875 115.996094 L 292.671875 154.9375 C 292.671875 161.660156 287.203125 167.132812 280.480469 167.132812 L 267.21875 167.132812 L 258.59375 176.441406 L 249.96875 167.132812 L 203.6875 167.132812 C 202.273438 171.035156 200.203125 174.621094 197.605469 177.761719 L 245.324219 177.761719 L 258.59375 192.085938 L 271.863281 177.761719 L 280.480469 177.761719 C 293.066406 177.761719 303.304688 167.523438 303.304688 154.9375 L 303.304688 115.996094 C 303.304688 103.410156 293.066406 93.171875 280.480469 93.171875 Z M 280.480469 93.171875 " fill-opacity="1" fill-rule="nonzero"/></g><path fill="#e07a5f" d="M 233.382812 196.257812 C 233.277344 196.148438 233.144531 196.09375 232.992188 196.09375 C 232.839844 196.089844 232.710938 196.144531 232.601562 196.253906 C 232.492188 196.359375 232.441406 196.492188 232.441406 196.644531 C 232.441406 196.796875 232.5 196.925781 232.609375 197.03125 C 232.960938 197.386719 233.277344 197.769531 233.550781 198.183594 C 233.828125 198.597656 234.0625 199.039062 234.253906 199.5 C 234.445312 199.960938 234.589844 200.433594 234.683594 200.925781 C 234.78125 201.414062 234.832031 201.90625 234.832031 202.40625 C 234.832031 202.90625 234.78125 203.398438 234.683594 203.886719 C 234.589844 204.378906 234.445312 204.851562 234.253906 205.3125 C 234.0625 205.773438 233.828125 206.214844 233.550781 206.628906 C 233.277344 207.042969 232.960938 207.425781 232.609375 207.78125 C 232.5 207.886719 232.441406 208.015625 232.441406 208.167969 C 232.441406 208.320312 232.492188 208.453125 232.601562 208.558594 C 232.710938 208.667969 232.839844 208.722656 232.992188 208.71875 C 233.144531 208.71875 233.277344 208.664062 233.382812 208.554688 C 233.785156 208.148438 234.144531 207.710938 234.460938 207.234375 C 234.777344 206.761719 235.046875 206.261719 235.265625 205.734375 C 235.480469 205.207031 235.648438 204.660156 235.757812 204.101562 C 235.867188 203.542969 235.925781 202.976562 235.925781 202.40625 C 235.925781 201.835938 235.867188 201.269531 235.757812 200.710938 C 235.648438 200.152344 235.480469 199.609375 235.265625 199.082031 C 235.046875 198.554688 234.777344 198.050781 234.460938 197.578125 C 234.144531 197.101562 233.785156 196.664062 233.382812 196.257812 Z M 233.382812 196.257812 " fill-opacity="1" fill-rule="nonzero"/><path fill="#e07a5f" d="M 229.363281 205.308594 C 229.46875 205.414062 229.597656 205.46875 229.75 205.46875 C 229.898438 205.46875 230.027344 205.414062 230.136719 205.308594 C 230.328125 205.117188 230.496094 204.910156 230.648438 204.6875 C 230.796875 204.460938 230.921875 204.226562 231.027344 203.976562 C 231.128906 203.726562 231.207031 203.472656 231.257812 203.207031 C 231.3125 202.941406 231.339844 202.675781 231.339844 202.40625 C 231.339844 202.136719 231.3125 201.871094 231.257812 201.605469 C 231.207031 201.339844 231.128906 201.085938 231.027344 200.835938 C 230.921875 200.585938 230.796875 200.351562 230.648438 200.125 C 230.496094 199.902344 230.328125 199.695312 230.136719 199.503906 C 230.03125 199.394531 229.898438 199.339844 229.746094 199.339844 C 229.59375 199.335938 229.464844 199.390625 229.355469 199.5 C 229.246094 199.605469 229.195312 199.738281 229.195312 199.890625 C 229.195312 200.042969 229.253906 200.171875 229.363281 200.277344 C 229.644531 200.5625 229.863281 200.886719 230.015625 201.253906 C 230.167969 201.625 230.242188 202.007812 230.242188 202.40625 C 230.242188 202.804688 230.167969 203.1875 230.015625 203.558594 C 229.863281 203.925781 229.644531 204.253906 229.363281 204.535156 C 229.257812 204.640625 229.203125 204.769531 229.203125 204.921875 C 229.203125 205.070312 229.257812 205.199219 229.363281 205.308594 Z M 229.363281 205.308594 " fill-opacity="1" fill-rule="nonzero"/><path fill="#e07a5f" d="M 207.789062 208.554688 C 207.894531 208.65625 208.023438 208.707031 208.171875 208.707031 C 208.320312 208.707031 208.449219 208.652344 208.554688 208.546875 C 208.660156 208.441406 208.714844 208.3125 208.714844 208.164062 C 208.714844 208.015625 208.664062 207.886719 208.5625 207.78125 C 208.207031 207.425781 207.894531 207.042969 207.617188 206.628906 C 207.339844 206.214844 207.105469 205.773438 206.917969 205.3125 C 206.726562 204.851562 206.582031 204.378906 206.484375 203.886719 C 206.386719 203.398438 206.339844 202.90625 206.339844 202.40625 C 206.339844 201.90625 206.386719 201.414062 206.484375 200.925781 C 206.582031 200.433594 206.726562 199.960938 206.917969 199.5 C 207.105469 199.039062 207.339844 198.597656 207.617188 198.183594 C 207.894531 197.769531 208.207031 197.386719 208.5625 197.03125 C 208.65625 196.925781 208.699219 196.796875 208.695312 196.65625 C 208.691406 196.511719 208.640625 196.386719 208.539062 196.285156 C 208.4375 196.183594 208.3125 196.128906 208.167969 196.125 C 208.027344 196.121094 207.898438 196.164062 207.792969 196.257812 C 207.386719 196.664062 207.027344 197.101562 206.710938 197.578125 C 206.394531 198.050781 206.128906 198.554688 205.910156 199.082031 C 205.691406 199.609375 205.527344 200.152344 205.414062 200.710938 C 205.304688 201.269531 205.25 201.835938 205.25 202.40625 C 205.25 202.976562 205.304688 203.542969 205.414062 204.101562 C 205.527344 204.660156 205.691406 205.207031 205.910156 205.734375 C 206.128906 206.261719 206.394531 206.761719 206.710938 207.234375 C 207.027344 207.710938 207.386719 208.148438 207.792969 208.554688 Z M 207.789062 208.554688 " fill-opacity="1" fill-rule="nonzero"/><path fill="#e07a5f" d="M 211.808594 199.503906 C 211.699219 199.398438 211.570312 199.34375 211.421875 199.34375 C 211.269531 199.34375 211.140625 199.398438 211.035156 199.503906 C 210.84375 199.695312 210.671875 199.902344 210.523438 200.125 C 210.375 200.351562 210.246094 200.585938 210.144531 200.835938 C 210.039062 201.085938 209.960938 201.339844 209.910156 201.605469 C 209.855469 201.871094 209.832031 202.136719 209.832031 202.40625 C 209.832031 202.675781 209.855469 202.941406 209.910156 203.207031 C 209.960938 203.472656 210.039062 203.726562 210.144531 203.976562 C 210.246094 204.226562 210.375 204.460938 210.523438 204.6875 C 210.671875 204.910156 210.84375 205.117188 211.035156 205.308594 C 211.140625 205.410156 211.269531 205.460938 211.417969 205.460938 C 211.566406 205.460938 211.695312 205.40625 211.800781 205.300781 C 211.90625 205.195312 211.960938 205.066406 211.960938 204.917969 C 211.960938 204.769531 211.910156 204.640625 211.808594 204.535156 C 211.523438 204.253906 211.308594 203.925781 211.15625 203.558594 C 211.003906 203.1875 210.925781 202.804688 210.925781 202.40625 C 210.925781 202.007812 211.003906 201.625 211.15625 201.253906 C 211.308594 200.886719 211.523438 200.5625 211.808594 200.277344 C 211.914062 200.171875 211.96875 200.042969 211.96875 199.890625 C 211.96875 199.742188 211.914062 199.613281 211.808594 199.503906 Z M 211.808594 199.503906 " fill-opacity="1" fill-rule="nonzero"/><path fill="#e07a5f" d="M 215.097656 202.550781 C 215.097656 202.910156 215.132812 203.269531 215.203125 203.621094 C 215.273438 203.976562 215.375 204.316406 215.515625 204.652344 C 215.652344 204.984375 215.820312 205.300781 216.019531 205.601562 C 216.222656 205.898438 216.449219 206.175781 216.703125 206.429688 C 216.957031 206.6875 217.234375 206.914062 217.535156 207.113281 C 217.835938 207.3125 218.152344 207.484375 218.484375 207.621094 C 218.816406 207.757812 219.160156 207.863281 219.515625 207.933594 C 219.867188 208.003906 220.222656 208.039062 220.585938 208.039062 C 220.945312 208.039062 221.300781 208.003906 221.65625 207.933594 C 222.007812 207.863281 222.351562 207.757812 222.683594 207.621094 C 223.019531 207.484375 223.335938 207.3125 223.632812 207.113281 C 223.933594 206.914062 224.210938 206.6875 224.464844 206.429688 C 224.722656 206.175781 224.949219 205.898438 225.148438 205.601562 C 225.347656 205.300781 225.519531 204.984375 225.65625 204.652344 C 225.792969 204.316406 225.898438 203.976562 225.96875 203.621094 C 226.039062 203.269531 226.074219 202.910156 226.074219 202.550781 C 226.074219 202.191406 226.039062 201.832031 225.96875 201.480469 C 225.898438 201.125 225.792969 200.78125 225.65625 200.449219 C 225.519531 200.117188 225.347656 199.800781 225.148438 199.5 C 224.949219 199.203125 224.722656 198.925781 224.464844 198.667969 C 224.210938 198.414062 223.933594 198.1875 223.632812 197.988281 C 223.335938 197.785156 223.019531 197.617188 222.683594 197.480469 C 222.351562 197.339844 222.007812 197.238281 221.65625 197.167969 C 221.300781 197.097656 220.945312 197.0625 220.585938 197.0625 C 220.222656 197.0625 219.867188 197.097656 219.515625 197.167969 C 219.160156 197.238281 218.816406 197.34375 218.484375 197.480469 C 218.152344 197.617188 217.835938 197.789062 217.535156 197.988281 C 217.238281 198.1875 216.960938 198.417969 216.707031 198.671875 C 216.449219 198.925781 216.222656 199.203125 216.023438 199.503906 C 215.824219 199.800781 215.652344 200.117188 215.515625 200.449219 C 215.378906 200.785156 215.273438 201.125 215.203125 201.480469 C 215.132812 201.832031 215.097656 202.191406 215.097656 202.550781 Z M 215.097656 202.550781 " fill-opacity="1" fill-rule="nonzero"/><g clip-path="url(#036873739a)"><path fill="#e07a5f" d="M 223.140625 208.617188 C 222.324219 208.960938 221.472656 209.132812 220.585938 209.132812 C 219.699219 209.132812 218.847656 208.960938 218.027344 208.617188 L 216.160156 227.679688 L 225.011719 227.679688 Z M 223.140625 208.617188 " fill-opacity="1" fill-rule="nonzero"/></g><g fill="#022e43" fill-opacity="1"><g transform="translate(105.965001, 259.065685)"><g><path d="M 6.265625 0.15625 C 5.203125 0.15625 4.242188 -0.078125 3.390625 -0.546875 C 2.535156 -1.015625 1.863281 -1.65625 1.375 -2.46875 C 0.894531 -3.289062 0.65625 -4.21875 0.65625 -5.25 C 0.65625 -6.269531 0.898438 -7.191406 1.390625 -8.015625 C 1.878906 -8.835938 2.550781 -9.476562 3.40625 -9.9375 C 4.257812 -10.40625 5.21875 -10.640625 6.28125 -10.640625 C 7.132812 -10.640625 7.914062 -10.488281 8.625 -10.1875 C 9.332031 -9.882812 9.929688 -9.453125 10.421875 -8.890625 L 9.171875 -7.703125 C 8.410156 -8.523438 7.476562 -8.9375 6.375 -8.9375 C 5.65625 -8.9375 5.007812 -8.773438 4.4375 -8.453125 C 3.863281 -8.140625 3.414062 -7.703125 3.09375 -7.140625 C 2.78125 -6.585938 2.625 -5.957031 2.625 -5.25 C 2.625 -4.539062 2.78125 -3.90625 3.09375 -3.34375 C 3.414062 -2.78125 3.863281 -2.34375 4.4375 -2.03125 C 5.007812 -1.71875 5.65625 -1.5625 6.375 -1.5625 C 7.476562 -1.5625 8.410156 -1.972656 9.171875 -2.796875 L 10.421875 -1.609375 C 9.929688 -1.035156 9.328125 -0.597656 8.609375 -0.296875 C 7.898438 0.00390625 7.117188 0.15625 6.265625 0.15625 Z M 6.265625 0.15625 "/></g></g></g><g fill="#022e43" fill-opacity="1"><g transform="translate(127.533089, 259.065685)"><g><path d="M 6.3125 0.15625 C 5.238281 0.15625 4.269531 -0.078125 3.40625 -0.546875 C 2.550781 -1.015625 1.878906 -1.660156 1.390625 -2.484375 C 0.898438 -3.304688 0.65625 -4.226562 0.65625 -5.25 C 0.65625 -6.257812 0.898438 -7.175781 1.390625 -8 C 1.878906 -8.832031 2.550781 -9.476562 3.40625 -9.9375 C 4.269531 -10.40625 5.238281 -10.640625 6.3125 -10.640625 C 7.375 -10.640625 8.332031 -10.40625 9.1875 -9.9375 C 10.050781 -9.476562 10.726562 -8.835938 11.21875 -8.015625 C 11.707031 -7.191406 11.953125 -6.269531 11.953125 -5.25 C 11.953125 -4.21875 11.707031 -3.289062 11.21875 -2.46875 C 10.726562 -1.65625 10.050781 -1.015625 9.1875 -0.546875 C 8.332031 -0.078125 7.375 0.15625 6.3125 0.15625 Z M 6.3125 -1.5625 C 7.007812 -1.5625 7.632812 -1.71875 8.1875 -2.03125 C 8.75 -2.34375 9.191406 -2.78125 9.515625 -3.34375 C 9.835938 -3.914062 10 -4.550781 10 -5.25 C 10 -5.945312 9.835938 -6.578125 9.515625 -7.140625 C 9.191406 -7.703125 8.75 -8.140625 8.1875 -8.453125 C 7.632812 -8.773438 7.007812 -8.9375 6.3125 -8.9375 C 5.613281 -8.9375 4.984375 -8.773438 4.421875 -8.453125 C 3.859375 -8.140625 3.414062 -7.703125 3.09375 -7.140625 C 2.78125 -6.578125 2.625 -5.945312 2.625 -5.25 C 2.625 -4.550781 2.78125 -3.914062 3.09375 -3.34375 C 3.414062 -2.78125 3.859375 -2.34375 4.421875 -2.03125 C 4.984375 -1.71875 5.613281 -1.5625 6.3125 -1.5625 Z M 6.3125 -1.5625 "/></g></g></g><g fill="#022e43" fill-opacity="1"><g transform="translate(150.822881, 259.065685)"><g><path d="M 10.734375 -10.484375 L 10.734375 0 L 9.125 0 L 3.34375 -7.109375 L 3.34375 0 L 1.40625 0 L 1.40625 -10.484375 L 3.015625 -10.484375 L 8.796875 -3.390625 L 8.796875 -10.484375 Z M 10.734375 -10.484375 "/></g></g></g><g fill="#022e43" fill-opacity="1"><g transform="translate(173.633595, 259.065685)"><g><path d="M 10.734375 -10.484375 L 10.734375 0 L 9.125 0 L 3.34375 -7.109375 L 3.34375 0 L 1.40625 0 L 1.40625 -10.484375 L 3.015625 -10.484375 L 8.796875 -3.390625 L 8.796875 -10.484375 Z M 10.734375 -10.484375 "/></g></g></g><g fill="#022e43" fill-opacity="1"><g transform="translate(196.444309, 259.065685)"><g><path d="M 9.28125 -1.640625 L 9.28125 0 L 1.40625 0 L 1.40625 -10.484375 L 9.0625 -10.484375 L 9.0625 -8.859375 L 3.359375 -8.859375 L 3.359375 -6.125 L 8.421875 -6.125 L 8.421875 -4.53125 L 3.359375 -4.53125 L 3.359375 -1.640625 Z M 9.28125 -1.640625 "/></g></g></g><g fill="#022e43" fill-opacity="1"><g transform="translate(217.159021, 259.065685)"><g><path d="M 6.265625 0.15625 C 5.203125 0.15625 4.242188 -0.078125 3.390625 -0.546875 C 2.535156 -1.015625 1.863281 -1.65625 1.375 -2.46875 C 0.894531 -3.289062 0.65625 -4.21875 0.65625 -5.25 C 0.65625 -6.269531 0.898438 -7.191406 1.390625 -8.015625 C 1.878906 -8.835938 2.550781 -9.476562 3.40625 -9.9375 C 4.257812 -10.40625 5.21875 -10.640625 6.28125 -10.640625 C 7.132812 -10.640625 7.914062 -10.488281 8.625 -10.1875 C 9.332031 -9.882812 9.929688 -9.453125 10.421875 -8.890625 L 9.171875 -7.703125 C 8.410156 -8.523438 7.476562 -8.9375 6.375 -8.9375 C 5.65625 -8.9375 5.007812 -8.773438 4.4375 -8.453125 C 3.863281 -8.140625 3.414062 -7.703125 3.09375 -7.140625 C 2.78125 -6.585938 2.625 -5.957031 2.625 -5.25 C 2.625 -4.539062 2.78125 -3.90625 3.09375 -3.34375 C 3.414062 -2.78125 3.863281 -2.34375 4.4375 -2.03125 C 5.007812 -1.71875 5.65625 -1.5625 6.375 -1.5625 C 7.476562 -1.5625 8.410156 -1.972656 9.171875 -2.796875 L 10.421875 -1.609375 C 9.929688 -1.035156 9.328125 -0.597656 8.609375 -0.296875 C 7.898438 0.00390625 7.117188 0.15625 6.265625 0.15625 Z M 6.265625 0.15625 "/></g></g></g><g fill="#022e43" fill-opacity="1"><g transform="translate(238.727108, 259.065685)"><g><path d="M 3.53125 -8.84375 L 0.0625 -8.84375 L 0.0625 -10.484375 L 8.953125 -10.484375 L 8.953125 -8.84375 L 5.484375 -8.84375 L 5.484375 0 L 3.53125 0 Z M 3.53125 -8.84375 "/></g></g></g><g fill="#022e43" fill-opacity="1"><g transform="translate(258.423766, 259.065685)"><g><path d="M 9.28125 0.171875 L 7.953125 -1.109375 C 6.972656 -0.265625 5.800781 0.15625 4.4375 0.15625 C 3.707031 0.15625 3.050781 0.0351562 2.46875 -0.203125 C 1.894531 -0.441406 1.441406 -0.773438 1.109375 -1.203125 C 0.773438 -1.628906 0.609375 -2.113281 0.609375 -2.65625 C 0.609375 -3.300781 0.796875 -3.867188 1.171875 -4.359375 C 1.554688 -4.859375 2.179688 -5.347656 3.046875 -5.828125 C 2.617188 -6.242188 2.316406 -6.632812 2.140625 -7 C 1.960938 -7.363281 1.875 -7.742188 1.875 -8.140625 C 1.875 -8.878906 2.148438 -9.472656 2.703125 -9.921875 C 3.253906 -10.378906 3.992188 -10.609375 4.921875 -10.609375 C 5.765625 -10.609375 6.441406 -10.398438 6.953125 -9.984375 C 7.460938 -9.566406 7.71875 -9.003906 7.71875 -8.296875 C 7.71875 -7.753906 7.550781 -7.273438 7.21875 -6.859375 C 6.882812 -6.441406 6.335938 -6.019531 5.578125 -5.59375 L 7.84375 -3.4375 C 8.09375 -3.925781 8.285156 -4.515625 8.421875 -5.203125 L 9.9375 -4.703125 C 9.738281 -3.773438 9.421875 -2.976562 8.984375 -2.3125 L 10.3125 -1.046875 Z M 4.921875 -9.28125 C 4.503906 -9.28125 4.175781 -9.175781 3.9375 -8.96875 C 3.695312 -8.757812 3.578125 -8.492188 3.578125 -8.171875 C 3.578125 -7.929688 3.640625 -7.703125 3.765625 -7.484375 C 3.898438 -7.265625 4.15625 -6.972656 4.53125 -6.609375 C 5.125 -6.941406 5.535156 -7.226562 5.765625 -7.46875 C 6.003906 -7.71875 6.125 -7.984375 6.125 -8.265625 C 6.125 -8.578125 6.015625 -8.820312 5.796875 -9 C 5.585938 -9.1875 5.296875 -9.28125 4.921875 -9.28125 Z M 4.5625 -1.375 C 5.4375 -1.375 6.195312 -1.640625 6.84375 -2.171875 L 4.078125 -4.828125 C 3.472656 -4.492188 3.046875 -4.175781 2.796875 -3.875 C 2.554688 -3.570312 2.4375 -3.226562 2.4375 -2.84375 C 2.4375 -2.40625 2.628906 -2.050781 3.015625 -1.78125 C 3.410156 -1.507812 3.925781 -1.375 4.5625 -1.375 Z M 4.5625 -1.375 "/></g></g></g><g fill="#022e43" fill-opacity="1"><g transform="translate(129.423336, 279.766934)"><g><path d="M 1.40625 -10.484375 L 3.359375 -10.484375 L 3.359375 -1.640625 L 8.84375 -1.640625 L 8.84375 0 L 1.40625 0 Z M 1.40625 -10.484375 "/></g></g></g><g fill="#022e43" fill-opacity="1"><g transform="translate(149.07508, 279.766934)"><g><path d="M 6.3125 0.15625 C 5.238281 0.15625 4.269531 -0.078125 3.40625 -0.546875 C 2.550781 -1.015625 1.878906 -1.660156 1.390625 -2.484375 C 0.898438 -3.304688 0.65625 -4.226562 0.65625 -5.25 C 0.65625 -6.257812 0.898438 -7.175781 1.390625 -8 C 1.878906 -8.832031 2.550781 -9.476562 3.40625 -9.9375 C 4.269531 -10.40625 5.238281 -10.640625 6.3125 -10.640625 C 7.375 -10.640625 8.332031 -10.40625 9.1875 -9.9375 C 10.050781 -9.476562 10.726562 -8.835938 11.21875 -8.015625 C 11.707031 -7.191406 11.953125 -6.269531 11.953125 -5.25 C 11.953125 -4.21875 11.707031 -3.289062 11.21875 -2.46875 C 10.726562 -1.65625 10.050781 -1.015625 9.1875 -0.546875 C 8.332031 -0.078125 7.375 0.15625 6.3125 0.15625 Z M 6.3125 -1.5625 C 7.007812 -1.5625 7.632812 -1.71875 8.1875 -2.03125 C 8.75 -2.34375 9.191406 -2.78125 9.515625 -3.34375 C 9.835938 -3.914062 10 -4.550781 10 -5.25 C 10 -5.945312 9.835938 -6.578125 9.515625 -7.140625 C 9.191406 -7.703125 8.75 -8.140625 8.1875 -8.453125 C 7.632812 -8.773438 7.007812 -8.9375 6.3125 -8.9375 C 5.613281 -8.9375 4.984375 -8.773438 4.421875 -8.453125 C 3.859375 -8.140625 3.414062 -7.703125 3.09375 -7.140625 C 2.78125 -6.578125 2.625 -5.945312 2.625 -5.25 C 2.625 -4.550781 2.78125 -3.914062 3.09375 -3.34375 C 3.414062 -2.78125 3.859375 -2.34375 4.421875 -2.03125 C 4.984375 -1.71875 5.613281 -1.5625 6.3125 -1.5625 Z M 6.3125 -1.5625 "/></g></g></g><g fill="#022e43" fill-opacity="1"><g transform="translate(172.364872, 279.766934)"><g><path d="M 6.265625 0.15625 C 5.203125 0.15625 4.242188 -0.078125 3.390625 -0.546875 C 2.535156 -1.015625 1.863281 -1.65625 1.375 -2.46875 C 0.894531 -3.289062 0.65625 -4.21875 0.65625 -5.25 C 0.65625 -6.269531 0.898438 -7.191406 1.390625 -8.015625 C 1.878906 -8.835938 2.550781 -9.476562 3.40625 -9.9375 C 4.257812 -10.40625 5.21875 -10.640625 6.28125 -10.640625 C 7.132812 -10.640625 7.914062 -10.488281 8.625 -10.1875 C 9.332031 -9.882812 9.929688 -9.453125 10.421875 -8.890625 L 9.171875 -7.703125 C 8.410156 -8.523438 7.476562 -8.9375 6.375 -8.9375 C 5.65625 -8.9375 5.007812 -8.773438 4.4375 -8.453125 C 3.863281 -8.140625 3.414062 -7.703125 3.09375 -7.140625 C 2.78125 -6.585938 2.625 -5.957031 2.625 -5.25 C 2.625 -4.539062 2.78125 -3.90625 3.09375 -3.34375 C 3.414062 -2.78125 3.863281 -2.34375 4.4375 -2.03125 C 5.007812 -1.71875 5.65625 -1.5625 6.375 -1.5625 C 7.476562 -1.5625 8.410156 -1.972656 9.171875 -2.796875 L 10.421875 -1.609375 C 9.929688 -1.035156 9.328125 -0.597656 8.609375 -0.296875 C 7.898438 0.00390625 7.117188 0.15625 6.265625 0.15625 Z M 6.265625 0.15625 "/></g></g></g><g fill="#022e43" fill-opacity="1"><g transform="translate(193.93296, 279.766934)"><g><path d="M 8.21875 -2.421875 L 2.96875 -2.421875 L 1.9375 0 L -0.078125 0 L 4.640625 -10.484375 L 6.5625 -10.484375 L 11.296875 0 L 9.265625 0 Z M 7.5625 -3.953125 L 5.59375 -8.546875 L 3.625 -3.953125 Z M 7.5625 -3.953125 "/></g></g></g><g fill="#022e43" fill-opacity="1"><g transform="translate(215.830415, 279.766934)"><g><path d="M 3.53125 -8.84375 L 0.0625 -8.84375 L 0.0625 -10.484375 L 8.953125 -10.484375 L 8.953125 -8.84375 L 5.484375 -8.84375 L 5.484375 0 L 3.53125 0 Z M 3.53125 -8.84375 "/></g></g></g><g fill="#022e43" fill-opacity="1"><g transform="translate(235.527073, 279.766934)"><g><path d="M 9.28125 -1.640625 L 9.28125 0 L 1.40625 0 L 1.40625 -10.484375 L 9.0625 -10.484375 L 9.0625 -8.859375 L 3.359375 -8.859375 L 3.359375 -6.125 L 8.421875 -6.125 L 8.421875 -4.53125 L 3.359375 -4.53125 L 3.359375 -1.640625 Z M 9.28125 -1.640625 "/></g></g></g></svg>